<?xml version="1.0" standalone="no"?>
<!DOCTYPE svg PUBLIC "-//W3C//DTD SVG 1.1//EN" "http://www.w3.org/Graphics/SVG/1.1/DTD/svg11.dtd" >
<svg>
<metadata>
Created by FontForge 20090914 at Sun Oct 22 19:22:48 2017
 By www-data
Copyright &#194;&#169; 1992
</metadata>
<defs>
<font id="PresentScript_cyr" horiz-adv-x="566" >
  <font-face 
    font-family="PresentScript"
    font-weight="400"
    font-stretch="normal"
    units-per-em="1000"
    panose-1="0 0 0 0 0 0 0 0 0 0"
    ascent="800"
    descent="-200"
    x-height="300.002"
    cap-height="609.999"
    bbox="-33 -269 1142 792.001"
    underline-thickness="53"
    underline-position="-43"
    unicode-range="U+0020-U+2215"
  />
<missing-glyph horiz-adv-x="733" 
d="M45 0v733h643v-733h-643zM643 45v643h-553v-643h553z" />
    <glyph glyph-name=".notdef" horiz-adv-x="733" 
d="M45 0v733h643v-733h-643zM643 45v643h-553v-643h553z" />
    <glyph glyph-name="space" unicode=" " horiz-adv-x="432" 
 />
    <glyph glyph-name="exclam" unicode="!" horiz-adv-x="278" 
d="M96 25v69.001c0 10.667 9 16 27 16c10 0 19.5 -2.66699 28.5 -8s13.5 -13 13.5 -23v-77c0 -6.66699 -6.33301 -10 -19 -10c-10.667 0 -21.667 3.16699 -33 9.5s-17 14.166 -17 23.499zM112 179.001v33.999v40c0 84 -0.5 150.167 -1.5 198.5s-3.16699 89.5 -6.5 123.5
l-2 4c0 14 8.33301 21 25 21c12 0 23.667 -4.66699 35 -14s17 -21.333 17 -36l2 -6c-7.33301 -46.667 -13 -104.167 -17 -172.5s-6 -140.166 -6 -215.499c0 -8 -4.66699 -12 -14 -12c-7.33301 0 -14.5 3.5 -21.5 10.5s-10.5 15.167 -10.5 24.5z" />
    <glyph glyph-name="quotedbl" unicode="&#x22;" horiz-adv-x="336" 
d="M71 388l-15.002 202.002c0 11.333 3 20.666 9 27.999s13.333 11 22 11s15.834 -4.33301 21.501 -13s8.5 -22.334 8.5 -41.001l-15 -187c0 -8 -1.66699 -14.333 -5 -19s-6.66602 -7 -9.99902 -7c-10.667 0 -16 8.66699 -16 26zM201.998 388.002l-15 202
c0 10.667 2.83301 19.167 8.5 25.5s12.167 9.5 19.5 9.5c9.33301 0 17.5 -4.16699 24.5 -12.5s10.5 -20.833 10.5 -37.5l-17 -187c0 -8.66699 -2.16699 -15.167 -6.5 -19.5s-7.5 -6.5 -9.5 -6.5c-8 0 -13 8.66699 -15 26z" />
    <glyph glyph-name="numbersign" unicode="#" 
d="M108 2l30 185h-115v38h123l16 110h-108v38h115l31 194h56l-33 -194h133l31 194h53l-30 -194h102v-38h-110l-15 -110h92v-38h-100l-31 -185h-54l31 185h-133l-30 -185h-54zM200 225h133l15 110h-133z" />
    <glyph glyph-name="dollar" unicode="$" 
d="M279 2c-10 -2.66699 -24.6621 -5.33398 -43.9951 -8.00098s-37.333 -4 -54 -4c-34.667 0 -62 5.33301 -82 16c-26 14 -41 35.667 -45 65c-2.66699 8 -4 13.333 -4 16c0 6 2 9 6 9c3.33301 0 7.66602 -1.66699 12.999 -5s10.666 -7.33301 15.999 -12
c9.33301 -9.33301 27 -17.5 53 -24.5s56.333 -10.5 91 -10.5c4.66699 0 12.667 0.666992 24 2s20 2 26 2v240c-61.333 0 -105.333 5.33301 -132 16c-32.667 12.667 -49 36.334 -49 71.001l2 13c4 40 23 75.667 57 107c29.333 27.333 70 51.333 122 72v46c0 4 2 7.66699 6 11
s8.33301 5 13 5c8 0 12 -2.66699 12 -8v-46l42 2c31.333 0 57 -5.16699 77 -15.5s34 -28.833 42 -55.5l4 -25c0 -8 -2.66699 -12 -8 -12c-2.66699 0 -7.33398 2.66699 -14.001 8s-11 9 -13 11c-17.333 18.667 -34.333 32.667 -51 42s-36 14 -58 14h-21v-209
c71.333 -8 120.166 -20 146.499 -36s39.5 -40.667 39.5 -74c0 -44 -24.333 -89 -73 -135c-40.667 -38 -78.334 -62.333 -113.001 -73v-69c0 -5.33301 -2.83301 -10.5 -8.5 -15.5s-10.5 -7.5 -14.5 -7.5c-5.33301 0 -8 2.66699 -8 8v69zM310.005 56
c33.333 7.33301 62.167 24.168 86.5 50.501s36.5 53.166 36.5 80.499c0 24 -11 44.667 -33 62s-52 28 -90 32v-225zM279.006 342.002v195c-32 -8 -60.833 -25.5 -86.5 -52.5s-38.5 -53.833 -38.5 -80.5c0 -29.333 14.333 -47 43 -53c10.667 -2 38 -5 82 -9z" />
    <glyph glyph-name="percent" unicode="%" horiz-adv-x="893" 
d="M56 412c0 60 16.667 106.668 50 140.001c30.667 30.667 70.334 46 119.001 46c44.667 0 78 -10.333 100 -31c26.667 -24.667 40 -66.334 40 -125.001c0 -64 -21.333 -111.667 -64 -143c-31.333 -22.667 -67 -34 -107 -34c-42.667 0 -76.334 13 -101.001 39
s-37 62 -37 108zM117 404.001c4 -40.667 14.668 -69.332 32.001 -85.999c15.333 -14.667 38 -22 68 -22c30.667 0 54.167 11.5 70.5 34.5s24.5 52.5 24.5 88.5c0 50 -6.66699 86.333 -20 109c-15.333 26 -40.333 39 -75 39s-60.334 -11.833 -77.001 -35.5
s-25 -55.834 -25 -96.501zM513.001 140.003c0 59.333 16.666 106.001 49.999 140.001c31.333 31.333 71.333 47 120 47c44.667 0 78 -10.333 100 -31c26.667 -24.667 40 -66.334 40 -125.001c0 -64 -21.667 -111.667 -65 -143c-31.333 -22.667 -66.666 -34 -105.999 -34
c-42.667 0 -76.5 12.833 -101.5 38.5s-37.5 61.5 -37.5 107.5zM575 133.004c4 -40.667 14.668 -69.333 32.001 -86c15.333 -14.667 38 -22 68 -22s53.167 11.5 69.5 34.5s24.5 52.5 24.5 88.5c0 48.667 -6.66699 84.667 -20 108c-15.333 26.667 -40 40 -74 40
c-34.667 0 -60.334 -12.167 -77.001 -36.5s-25 -56.5 -25 -96.5zM258.001 -5.99512l104.001 173.999l108 182l105 187c4 7.33301 9.66699 11 17 11c4 0 8.33301 -2.66699 13 -8s7 -11 7 -17c0 -5.33301 -2 -11 -6 -17l-124 -199l-103 -173l-98 -163
c-2.66699 -5.33301 -6.33398 -10 -11.001 -14c-1.33301 -1.33301 -4 -3 -8 -5c-2 0 -4.5 2.33301 -7.5 7s-4.5 9.33398 -4.5 14.001c0 6 2.66699 13 8 21z" />
    <glyph glyph-name="ampersand" unicode="&#x26;" horiz-adv-x="740" 
d="M450 110c-48.667 48 -83.667 83.333 -105 106l-64 72c-52 -31.333 -91.333 -66 -118 -104c-20 -28.667 -30 -53.334 -30 -74.001c0 -17.333 8.66699 -34 26 -50c22.667 -20.667 51.667 -31 87 -31c26.667 0 56.5 6.33301 89.5 19s71.167 33.334 114.5 62.001zM327 350
c38.667 23.333 70.168 49.168 94.501 77.501s36.5 54.5 36.5 78.5c0 20 -5.5 35.167 -16.5 45.5s-24.833 15.5 -41.5 15.5c-16 0 -32.833 -4.83301 -50.5 -14.5s-32.834 -22.834 -45.501 -39.501c-8 -10.667 -14.5 -21.334 -19.5 -32.001s-7.5 -21 -7.5 -31
c0 -13.333 3.83301 -27.666 11.5 -42.999s20.5 -34.333 38.5 -57zM506.001 148.002c22 26 39.002 52.333 51.002 79s18 48.334 18 65.001v12l-6 23c0 10 4 15 12 15c9.33301 0 19.666 -6.33301 30.999 -19s17 -26.667 17 -42c0 -21.333 -8.16699 -45 -24.5 -71
s-41.5 -54.333 -75.5 -85c70.667 -56.667 116.667 -85 138 -85c12 0 18 -4.33301 18 -13c0 -4 -0.5 -7.16699 -1.5 -9.5s-3.83301 -7.5 -8.5 -15.5c-10.667 -15.333 -24.667 -23 -42 -23c-10.667 0 -21.5 2.66699 -32.5 8s-24.5 15.333 -40.5 30l-87 70
c-38.667 -28 -84 -50.833 -136 -68.5s-100.333 -26.5 -145 -26.5c-38 0 -69.167 7 -93.5 21s-38.5 36 -42.5 66l-2 15c0 39.333 24 79.666 72 120.999c18 15.333 64.333 47.666 139 96.999c-44.667 51.333 -67 94.666 -67 129.999c0 29.333 15.333 56.333 46 81
c26 20.667 64 40.667 114 60c24 7.33301 48.333 11 73 11c29.333 0 53.666 -6.16699 72.999 -18.5s29 -29.166 29 -50.499c0 -22.667 -11.667 -47.667 -35 -75c-18.667 -21.333 -41.667 -42.666 -69 -63.999c-23.333 -18 -52.333 -37.667 -87 -59z" />
    <glyph glyph-name="quotesingle" unicode="'" horiz-adv-x="278" 
d="M104 388c13.333 23.333 26.666 54.667 39.999 94c10.667 32 20.334 65.667 29.001 101c4 19.333 11.667 29 23 29c8.66699 0 17.334 -5 26.001 -15s13 -20 13 -30c0 -16 -14.333 -47.333 -43 -94c-10.667 -17.333 -27.334 -43 -50.001 -77
c-15.333 -24 -29.333 -36 -42 -36l-6 5c0 3.33301 3.33301 11 10 23z" />
    <glyph glyph-name="parenleft" unicode="(" horiz-adv-x="278" 
d="M219 -144c-54.667 53.333 -96.833 110.499 -126.5 171.499s-44.5 124.167 -44.5 189.5c0 68 16 136.333 48 205s81.333 137.667 148 207l16 -23c-54 -57.333 -93.833 -118.666 -119.5 -183.999s-38.5 -131 -38.5 -197c0 -69.333 13.333 -136 40 -200
c24.667 -60 58.667 -111.333 102 -154z" />
    <glyph glyph-name="parenright" unicode=")" horiz-adv-x="278" 
d="M4 -121c52 55.333 91.333 116.499 118 183.499s40 133.5 40 199.5s-12.167 128.667 -36.5 188s-59.833 111.333 -106.5 156l23 23c112 -119.333 168 -243.666 168 -372.999c0 -66 -15.833 -132.833 -47.5 -200.5s-79.5 -134.167 -143.5 -199.5z" />
    <glyph glyph-name="asterisk" unicode="*" horiz-adv-x="413" 
d="M163 458c-18.667 11.333 -43.002 24.6689 -73.002 40.002c-16.667 8.66699 -25 15.667 -25 21c0 6 4.66699 14.333 14 25c5.33301 5.33301 9.66602 8 12.999 8c4 0 16.333 -9.33301 37 -28l50 -43c-2.66699 20.667 -5.66699 40 -9 58s-5 29.333 -5 34
c0 16.667 9.66699 25 29 25c9.33301 0 15.833 -1.5 19.5 -4.5s5.5 -8.5 5.5 -16.5c-2.66699 -16 -4.83398 -31.833 -6.50098 -47.5s-2.5 -31.834 -2.5 -48.501c11.333 8 29 23 53 45c14.667 13.333 25 20 31 20c7.33301 0 13 -2.66699 17 -8s6 -11 6 -17
c0 -8 -13.333 -19 -40 -33c-15.333 -8 -32.666 -18 -51.999 -30l65 -36c18 -10.667 27 -20 27 -28c0 -4 -1.66699 -8.33301 -5 -13c-8 -10.667 -14 -16 -18 -16s-12.667 6.33301 -26 19c-21.333 20 -40.666 37 -57.999 51c0 -14.667 1.5 -33 4.5 -55s4.5 -34 4.5 -36
c0 -16.667 -8.33301 -25 -25 -25c-19.333 0 -29 8.33301 -29 25c0 5.33301 1 13.666 3 24.999c6.66699 36.667 10.334 58.667 11.001 66c-49.333 -44 -78.333 -66 -87 -66c-3.33301 0 -7.66602 4 -12.999 12c-6.66699 8 -10 14.333 -10 19c0 8 31.333 27.333 94 58z" />
    <glyph glyph-name="plus" unicode="+" horiz-adv-x="605" 
d="M252 2v223h-217v63h217v218h61v-218h218v-63h-218v-223h-61z" />
    <glyph glyph-name="comma" unicode="," horiz-adv-x="278" 
d="M-12 -121c42 48.667 75.334 99.998 100.001 153.998c20.667 44.667 31 80.334 31 107.001l-2 6c0 9.33301 3.33301 14 10 14c9.33301 0 20.666 -6.66699 33.999 -20s20 -26 20 -38c0 -22 -18.333 -58.333 -55 -109s-74.667 -94 -114 -130
c-4.66699 -3.33301 -9.66699 -5.66602 -15 -6.99902s-9.33301 -2 -12 -2c-5.33301 0 -8 2.66699 -8 8c0.666992 2.66699 1.66699 5.5 3 8.5s4 5.83301 8 8.5z" />
    <glyph glyph-name="hyphen" unicode="-" horiz-adv-x="393" 
d="M46 194c8.66699 0 24.666 -0.666992 47.999 -2s36.333 -2 39 -2c20 0 54.667 0.666992 104 2s76 2 80 2c8 0 14.5 -3.5 19.5 -10.5s7.5 -13.833 7.5 -20.5c0 -10 -3.66699 -15 -11 -15c-29.333 -4.66699 -75.666 -7.16699 -138.999 -7.5s-107.333 -0.5 -132 -0.5
c-6.66699 0 -14.167 4.5 -22.5 13.5s-12.5 17.5 -12.5 25.5c0 10 6.33301 15 19 15z" />
    <glyph glyph-name="period" unicode="." horiz-adv-x="278" 
d="M96 25v85.001c0 6 6.33301 9 19 9c12 0 24.667 -3.16699 38 -9.5s20 -13.833 20 -22.5v-85c0 -6.66699 -7 -10 -21 -10c-12 0 -24.333 3.16699 -37 9.5s-19 14.166 -19 23.499z" />
    <glyph glyph-name="slash" unicode="/" horiz-adv-x="393" 
d="M31 33c26 48 56.335 107.999 91.002 179.999l89 193l83 192c8 16.667 17.667 25 29 25c7.33301 0 13.666 -3.33301 18.999 -10s8 -15 8 -25c-0.666992 -7.33301 -1.33398 -11.666 -2.00098 -12.999c-19.333 -37.333 -46.666 -93.333 -81.999 -168l-96 -204l-93 -193
c-2.66699 -8 -6.83398 -13.833 -12.501 -17.5s-11.167 -5.5 -16.5 -5.5s-10.833 2.83301 -16.5 8.5s-8.5 11.5 -8.5 17.5c0 8 2.66699 14.667 8 20z" />
    <glyph glyph-name="zero" unicode="0" 
d="M38 225c0 78.667 23.667 146.333 71 203c52 62 119 93 201 93c60.667 0 106.834 -22.167 138.501 -66.5s47.5 -107.5 47.5 -189.5c0 -93.333 -26.333 -164 -79 -212c-48 -44 -115.333 -66 -202 -66c-64.667 0 -112.334 28 -143.001 84c-22.667 42 -34 93.333 -34 154z
M100 249.999c0 -74.667 18.667 -133.666 56 -176.999c32.667 -37.333 71 -56 115 -56c56 0 97 20.167 123 60.5s39 100.5 39 180.5c0 75.333 -16 133.666 -48 174.999c-28 36.667 -63.333 55 -106 55c-64 0 -111.333 -25.333 -142 -76c-24.667 -41.333 -37 -95.333 -37 -162
z" />
    <glyph glyph-name="one" unicode="1" 
d="M340 450c-128.667 -97.333 -198.332 -145.998 -208.999 -145.998c-13.333 0 -26 2.33301 -38 7s-18 10 -18 16c0 4.66699 5.66699 9.66699 17 15c43.333 16 93 40 149 72s102 62.667 138 92l25 15l2 -4l-4 -19c-3.33301 -18.667 -7 -60.5 -11 -125.5
s-6 -123.833 -6 -176.5c0 -40.667 0.666992 -75.334 2 -104.001s3.66602 -51 6.99902 -67l2 -25c0 -10 -4.33301 -15 -13 -15l-20 2c-17.333 6.66699 -29.333 13.667 -36 21s-10 15.666 -10 24.999z" />
    <glyph glyph-name="two" unicode="2" 
d="M77 358c12 50 42.666 91.002 91.999 123.002c46 29.333 96 44 150 44c46.667 0 85 -10.667 115 -32c35.333 -24.667 53 -59.667 53 -105v-15c0 -46.667 -26.5 -94.5 -79.5 -143.5s-137.5 -101.833 -253.5 -158.5c-8 -3.33301 -13.167 -6 -15.5 -8
s-4.83301 -4.33301 -7.5 -7c3.33301 -0.666992 8.16602 -1.83398 14.499 -3.50098l16.5 -4.5c20 -2.66699 45 -4 75 -4c29.333 0 64 1.16699 104 3.5s83.333 5.16602 130 8.49902h17c16 0 24 -4 24 -12c0 -5.33301 -5.33301 -9 -16 -11
c-55.333 -12.667 -107.833 -21 -157.5 -25s-139.5 -6 -269.5 -6c-11.333 0 -20.833 3.16699 -28.5 9.5s-11.5 14.166 -11.5 23.499c0 3.33301 1.83301 7.5 5.5 12.5s7.5 7.83301 11.5 8.5c116.667 48.667 202.667 94 258 136c70.667 54 106 111.667 106 173
c0 42.667 -11.5 75.167 -34.5 97.5s-50.833 33.5 -83.5 33.5c-36 0 -69.167 -12 -99.5 -36s-48.5 -55.667 -54.5 -95l-1 -17c0 -22 5.33301 -38.667 16 -50s26.334 -17 47.001 -17h10c3.33301 0 6 -1 8 -3c0 -1.33301 0.333008 -2.33301 1 -3
c0 -5.33301 -9.66699 -12.5 -29 -21.5s-36.666 -13.5 -51.999 -13.5c-18.667 0 -34.5 7.33301 -47.5 22s-19.5 34.334 -19.5 59.001c0 4 0.666992 9.5 2 16.5z" />
    <glyph glyph-name="three" unicode="3" 
d="M302 273c58.667 0 100.169 -7.32812 124.502 -21.9951s36.5 -41.334 36.5 -80.001v-11c0 -56 -38.333 -107.667 -115 -155c-72 -44.667 -143.667 -67 -215 -67c-26.667 0 -49.667 4 -69 12s-33 20.333 -41 37c-2 3.33301 -4.16699 7.33301 -6.5 12s-3.5 7.66699 -3.5 9
c0 8.66699 5.33301 13 16 13c3.33301 0 8.66602 -1.16699 15.999 -3.5s13 -4.83301 17 -7.5c12 -9.33301 27.833 -16.5 47.5 -21.5s41.5 -7.5 65.5 -7.5c56.667 0 105.334 13.333 146.001 40c48.667 32 73 77 73 135c0 27.333 -9.66699 48.833 -29 64.5
s-48.666 23.5 -87.999 23.5c-36.667 0 -80.334 -6.33301 -131.001 -19c-12.667 5.33301 -19 15.666 -19 30.999l4 17c49.333 4.66699 98.666 9.66699 147.999 15c72 16.667 108 52.667 108 108v8c0 30 -8.83301 53.167 -26.5 69.5s-39.834 24.5 -66.501 24.5
c-30.667 0 -61.167 -9.83301 -91.5 -29.5s-56.833 -48.834 -79.5 -87.501c-2 -4 -5.33301 -7.33301 -10 -10s-9 -4 -13 -4c-8 0 -15.833 3.16699 -23.5 9.5s-11.5 14.166 -11.5 23.499c0 8 4 17 12 27c25.333 30.667 58.833 54.667 100.5 72s83.167 26 124.5 26
c42 0 78.167 -9.33301 108.5 -28s45.5 -43.334 45.5 -74.001v-4c0 -40.667 -12.5 -72.167 -37.5 -94.5s-63.833 -39.5 -116.5 -51.5z" />
    <glyph glyph-name="four" unicode="4" 
d="M356 140l-193.998 -6.99902c-30 0 -54 3.33301 -72 10s-27 19.334 -27 38.001c0 4.66699 1.33301 11.167 4 19.5s6 16.5 10 24.5l154 296c4 8 9.66699 12 17 12c8 0 16.667 -5.33301 26 -16s14 -21.334 14 -32.001l-1 -12l-156 -223
c-15.333 -18.667 -23 -33.334 -23 -44.001c0 -12.667 18 -19 54 -19l194 -8l7 202c0 8.66699 7.33301 13 22 13c9.33301 0 18.333 -4 27 -12s13 -18.667 13 -32v-15c-3.33301 -27.333 -5.5 -52.5 -6.5 -75.5s-1.5 -49.833 -1.5 -80.5c19.333 0 36.333 0.5 51 1.5
s32.334 2.5 53.001 4.5c11.333 0 17 -2 17 -6c-0.666992 -2 -1.33398 -3.66699 -2.00098 -5c-2.66699 -4.66699 -5.83398 -8.5 -9.50098 -11.5s-16.834 -6.16699 -39.501 -9.5s-46 -5 -70 -5v-146c0 -12.667 -7.66699 -19 -23 -19c-10 0 -20.167 3.5 -30.5 10.5
s-15.5 14.833 -15.5 23.5z" />
    <glyph glyph-name="five" unicode="5" 
d="M177 465l-14.9961 -176.995c61.333 22 115.666 33 162.999 33c48 0 85.667 -10.833 113 -32.5s41 -53.167 41 -94.5c0 -56.667 -38.5 -112.167 -115.5 -166.5s-153.167 -81.5 -228.5 -81.5c-38 0 -70.333 8.33301 -97 25c-7.33301 5.33301 -13.333 10.666 -18 15.999
s-7 9.66602 -7 12.999c0 5.33301 4.66699 8 14 8s21 -2 35 -6c13.333 -5.33301 28.166 -9.5 44.499 -12.5s33.5 -4.5 51.5 -4.5c59.333 0 113.333 15.667 162 47c51.333 33.333 81.333 74.666 90 123.999c0.666992 4.66699 1.16699 10.167 1.5 16.5s0.5 11.166 0.5 14.499
c0 34 -12.5 59.667 -37.5 77s-56.167 26 -93.5 26c-24.667 0 -48.334 -3.16699 -71.001 -9.5s-44.334 -16.833 -65.001 -31.5s-33.667 -22 -39 -22s-8 5 -8 15l2 16l15 248c52 -6.66699 102 -10 150 -10c50 0 94.167 2.33301 132.5 7s65.5 10.667 81.5 18
c5.33301 -2 8 -7 8 -15c0 -10.667 -6.83301 -21.334 -20.5 -32.001s-30.167 -16 -49.5 -16z" />
    <glyph glyph-name="six" unicode="6" 
d="M154 304c56 28 114.333 42.001 175 42.001c48 0 87.833 -10.167 119.5 -30.5s47.5 -49.166 47.5 -86.499v-19c-10.667 -67.333 -49.334 -123 -116.001 -167c-60 -40 -124.333 -60 -193 -60c-47.333 0 -85.666 10.667 -114.999 32c-32.667 24 -49 58 -49 102
c0 37.333 28 94.333 84 171c48 65.333 102.667 128.166 164 188.499s100 90.5 116 90.5c9.33301 0 18.666 -7.83301 27.999 -23.5s14 -28.834 14 -39.501c0 -2 -0.833008 -3.66699 -2.5 -5s-2.83398 -2.33301 -3.50098 -3l-6 2c-2.66699 1.33301 -7.66699 2 -15 2
c-15.333 0 -34.333 -7.66699 -57 -23c-18 -12 -35 -26 -51 -42c-45.333 -38 -76.666 -65.333 -93.999 -82s-32.666 -33 -45.999 -49zM92 148.001c0 -39.333 15.6689 -70.332 47.002 -92.999c27.333 -20 60.333 -30 99 -30c51.333 0 95.666 13 132.999 39
c41.333 29.333 62 67.666 62 114.999v11c0 39.333 -14.333 71.333 -43 96c-26 22 -55.333 33 -88 33c-60.667 0 -108.334 -11 -143.001 -33c-44.667 -28 -67 -74 -67 -138z" />
    <glyph glyph-name="seven" unicode="7" 
d="M456 465l-340.998 -22.999c-20 0 -38 7 -54 21s-24 27 -24 39c0 8.66699 5 13 15 13c7.33301 0 13 -0.666992 17 -2c19.333 -7.33301 47.666 -12.666 84.999 -15.999s76.333 -5 117 -5s72.834 0.5 96.501 1.5s50.5 2.5 80.5 4.5h19c13.333 0 23.5 -2.16699 30.5 -6.5
s10.5 -9.83301 10.5 -16.5c0 -8.66699 -4 -17 -12 -25c-61.333 -48 -119.333 -115.667 -174 -203c-58 -92.667 -98.667 -187.334 -122 -284.001c0 -4 -2.66699 -7.33301 -8 -10c-0.666992 0 -2.33398 -0.333008 -5.00098 -1c-9.33301 0 -19.833 8 -31.5 24
s-17.5 32.333 -17.5 49c0 32.667 37.667 100 113 202c73.333 99.333 141.666 178.666 204.999 237.999z" />
    <glyph glyph-name="eight" unicode="8" 
d="M192 281l-7 -2c-31.333 0 -56.5 9.5 -75.5 28.5s-28.5 42.167 -28.5 69.5c0 36.667 18 68.667 54 96c42.667 32 101 48 175 48h38c38.667 0 69 -11.333 91 -34c20 -20.667 30 -44.667 30 -72c0 -29.333 -11.667 -56.333 -35 -81s-54.666 -40 -93.999 -46
c48.667 0 87.667 -13 117 -39c27.333 -24 41 -53.667 41 -89c0 -45.333 -22 -84.333 -66 -117c-50 -37.333 -118.333 -56 -205 -56h-12c-62.667 0 -109.667 11.167 -141 33.5s-47 50.833 -47 85.5c0 36.667 15.667 72.5 47 107.5s70.666 57.5 117.999 67.5zM154 388
c0 -24 6.33301 -43 19 -57c17.333 -20 47.333 -31.667 90 -35c38.667 0 71.5 9.83301 98.5 29.5s40.5 43.167 40.5 70.5c0 30 -10.167 52.833 -30.5 68.5s-48.5 23.5 -84.5 23.5s-66 -7.66699 -90 -23c-28.667 -18 -43 -43.667 -43 -77zM100 133
c0 -38 18.999 -68 56.999 -90c30 -17.333 63 -26 99 -26c37.333 0 72 9.66699 104 29c36 22 57.667 51 65 87v21c0 30.667 -9.66699 55.334 -29 74.001c-26 24.667 -67.667 37 -125 37c-39.333 0 -73.666 -7.33301 -102.999 -22c-45.333 -22.667 -68 -59.334 -68 -110.001z
" />
    <glyph glyph-name="nine" unicode="9" 
d="M115 319c0 -31.333 8.16699 -56.8311 24.5 -76.498s41.5 -33.167 75.5 -40.5c7.33301 -2 14.5 -3.83301 21.5 -5.5s14.167 -2.5 21.5 -2.5c46.667 0 90 16.667 130 50s60 68.666 60 105.999c0 49.333 -14 85.666 -42 108.999c-23.333 19.333 -53 29 -89 29
c-54 0 -100.333 -14.667 -139 -44c-42 -32 -63 -73.667 -63 -125zM417 233.002c-26 -23.333 -57.1689 -41.665 -93.502 -54.998s-71.833 -20 -106.5 -20c-48.667 0 -88.667 12 -120 36c-34 26 -51 62.667 -51 110c0 57.333 33.333 109.166 100 155.499
s135.334 69.5 206.001 69.5c38 0 71.167 -8.33301 99.5 -25s48.5 -42.334 60.5 -77.001l3 -33c0 -50.667 -27 -115.334 -81 -194.001c-45.333 -65.333 -100.666 -128.333 -165.999 -189c-62 -57.333 -105.333 -86 -130 -86c-9.33301 0 -19.333 6.5 -30 19.5
s-16 23.833 -16 32.5c0 5.33301 2.66699 8 8 8l15 -6c22 0 63.667 23 125 69c72.667 54.667 131.667 116.334 177 185.001z" />
    <glyph glyph-name="colon" unicode=":" horiz-adv-x="278" 
d="M96 202v70.999c0 10 9 15 27 15c10 0 19.5 -2.66699 28.5 -8s13.5 -12.666 13.5 -21.999v-79c0 -8 -6.33301 -12 -19 -12c-10.667 0 -21.667 3.5 -33 10.5s-17 15.167 -17 24.5zM96 24.999v69.001c0 10.667 9 16 27 16c10 0 19.5 -2.66699 28.5 -8s13.5 -13 13.5 -23v-77
c0 -6.66699 -6.33301 -10 -19 -10c-10.667 0 -21.667 3.16699 -33 9.5s-17 14.166 -17 23.499z" />
    <glyph glyph-name="semicolon" unicode=";" horiz-adv-x="278" 
d="M96 202v70.999c0 10 9 15 27 15c10 0 19.5 -2.66699 28.5 -8s13.5 -12.666 13.5 -21.999v-79c0 -8 -6.33301 -12 -19 -12c-10.667 0 -21.667 3.5 -33 10.5s-17 15.167 -17 24.5zM-27 -113.001c34 37.333 62.666 82.667 85.999 136c19.333 44.667 29 78.667 29 102
c0 11.333 4.66699 17 14 17s21 -6 35 -18s21 -22 21 -30c0 -12.667 -17.333 -42.667 -52 -90c-37.333 -51.333 -74 -93 -110 -125c-5.33301 -5.33301 -10.166 -9 -14.499 -11s-7.83301 -3 -10.5 -3l-4 6c0 4.66699 2 10 6 16z" />
    <glyph glyph-name="less" unicode="&#x3c;" horiz-adv-x="605" 
d="M35 225v63l503 225v-63l-434 -192l434 -202v-62z" />
    <glyph glyph-name="equal" unicode="=" horiz-adv-x="605" 
d="M42 319v62h504v-62h-504zM42 125v62h504v-62h-504z" />
    <glyph glyph-name="greater" unicode="&#x3e;" horiz-adv-x="605" 
d="M467 258l-432 200v71l511 -241v-63l-511 -231v62z" />
    <glyph glyph-name="question" unicode="?" horiz-adv-x="451" 
d="M167 25v69.001c0 10.667 9 16 27 16c10.667 0 20.5 -2.66699 29.5 -8s13.5 -13 13.5 -23v-77c0 -6.66699 -6.66699 -10 -20 -10c-10.667 0 -21.667 3.16699 -33 9.5s-17 14.166 -17 23.499zM67 250.001c0 32 21.998 61 65.998 87l123 64c44.667 27.333 67 59 67 95v17
c-2.66699 22 -13.167 40 -31.5 54s-39.833 21 -64.5 21c-27.333 0 -53.666 -8.66699 -78.999 -26c-28.667 -20 -53 -49.667 -73 -89c-8.66699 -18 -17 -27 -25 -27c-6.66699 0 -13.167 5 -19.5 15s-9.5 19 -9.5 27c0 31.333 23.667 60 71 86s98.666 39 153.999 39
c52.667 0 91.334 -12.333 116.001 -37c20 -20 30 -46 30 -78v-8c0 -38 -22 -69 -66 -93l-124 -55c-44.667 -23.333 -67 -52.666 -67 -87.999l2 -4c0 -20.667 7.33301 -37 22 -49s32.334 -18 53.001 -18c23.333 0 43.833 6.66699 61.5 20s26.5 31.666 26.5 54.999
c0 7.33301 3.33301 11 10 11c8 0 17.333 -4.66699 28 -14s16 -19.333 16 -30c0 -18.667 -14.167 -34.5 -42.5 -47.5s-60.5 -19.5 -96.5 -19.5c-40 0 -73.667 7.33301 -101 22c-31.333 16.667 -47 40 -47 70z" />
    <glyph glyph-name="at" unicode="@" horiz-adv-x="816" 
d="M319 265l-2 -21c0 -25.333 5.16699 -44.5 15.5 -57.5s23.833 -19.5 40.5 -19.5l23 4c24 8.66699 45.833 31 65.5 67s31.834 81 36.501 135c0 18.667 -4 32.667 -12 42s-18.667 14 -32 14c-26 0 -52.333 -14.667 -79 -44c-30.667 -33.333 -49.334 -73.333 -56.001 -120z
M506 419l7.00195 38.9971h70l-62 -248l-4 -20c0 -11.333 3.16699 -20.166 9.5 -26.499s14.833 -9.5 25.5 -9.5c26.667 0 52.667 15.667 78 47c30 37.333 45 83 45 137v12c0 79.333 -30.667 142 -92 188c-53.333 40 -115.666 60 -186.999 60
c-63.333 0 -120.333 -26.333 -171 -79c-56.667 -58.667 -85 -133 -85 -223c0 -84 26.333 -153 79 -207s118 -81 196 -81c58 0 116.333 16 175 48l16 -23c-30 -18.667 -60.833 -32.334 -92.5 -41.001s-63.834 -13 -96.501 -13c-91.333 0 -171.333 30.667 -240 92
c-70.667 63.333 -106 138.333 -106 225s32 163.834 96 231.501s140.333 101.5 229 101.5c78 0 145.333 -18.667 202 -56c72 -47.333 108 -116.666 108 -207.999v-28c0 -60 -19.667 -110.667 -59 -152c-35.333 -37.333 -73.333 -56 -114 -56c-19.333 0 -36 5.66699 -50 17
s-22.333 27.333 -25 48c-16.667 -21.333 -34.834 -37.5 -54.501 -48.5s-38.834 -16.5 -57.501 -16.5c-23.333 0 -42.666 9.33301 -57.999 28c-17.333 20.667 -26 47.334 -26 80.001l3 36c11.333 60.667 35.666 109.667 72.999 147c32.667 32.667 66 49 100 49
c16.667 0 31.167 -4.16699 43.5 -12.5s20.5 -20.833 24.5 -37.5z" />
    <glyph glyph-name="A" unicode="A" horiz-adv-x="893" 
d="M515 498l-148 -258.001l210 10c19.333 0 33.5 -1.66699 42.5 -5s13.5 -6.66602 13.5 -9.99902c0 -4 -4.83301 -8 -14.5 -12s-20.834 -6 -33.501 -6l-241 -15c-28 -44.667 -56.333 -86.667 -85 -126c-38 -51.333 -72.333 -93 -103 -125
c-37.333 -38 -65.666 -57 -84.999 -57h-6c-15.333 2 -30 12 -44 30s-21 32.333 -21 43c0 5.33301 2 8 6 8c6 0 13 -4 21 -12c4.66699 -3.33301 10.334 -5 17.001 -5c28 0 69 26.667 123 80c49.333 48.667 93 103.334 131 164.001l-110 -8
c-22.667 0 -40.834 8.66699 -54.501 26s-20.5 33.666 -20.5 48.999c0 10.667 3.33301 16 10 16c7.33301 -2 11.333 -3.33301 12 -4c20 -16 42.333 -26.833 67 -32.5s67 -8.5 127 -8.5l169 281c-8 17.333 -19.667 31.666 -35 42.999c-18.667 14 -40.334 22.667 -65.001 26
c-5.33301 0 -9.83301 1 -13.5 3s-5.5 4.33301 -5.5 7c0 8.66699 11.333 13 34 13c26 0 49.5 -1.83301 70.5 -5.5s39.5 -9.5 55.5 -17.5s45 -54.333 87 -139l115 -239c44 -88.667 77 -140.667 99 -156c4.66699 -3.33301 9.33398 -7.66602 14.001 -12.999
c1.33301 -1.33301 3.33301 -4 6 -8c0 -5.33301 -16.667 -16.333 -50 -33c-2.66699 -1.33301 -8 -2 -16 -2c-16 0 -34.333 19 -55 57l-81 168c-45.333 94.667 -93 185.667 -143 273z" />
    <glyph glyph-name="B" unicode="B" horiz-adv-x="730" 
d="M158 567c-18 -4 -34.833 -8.8291 -50.5 -14.4961s-32.167 -13.5 -49.5 -23.5l-16.5 -6.5c-5.66699 -2.33301 -9.16699 -3.5 -10.5 -3.5c-8.66699 0 -16 3.33301 -22 10s-9 13.667 -9 21c-0 5.33301 1.83301 10.666 5.5 15.999s8.16699 8.33301 13.5 9
c13.333 4.66699 41 10.667 83 18c20.667 4 39.334 8.33301 56.001 13l-2 11c0 15.333 7.66699 23 23 23c10.667 0 22.667 -4 36 -12s20 -14.667 20 -20l2 -2c30.667 4.66699 69.667 7 117 7c69.333 0 127 -7 173 -21c60 -18 94.667 -46.667 104 -86v-8
c0 -36.667 -24.333 -71.334 -73 -104.001c-36 -24 -74 -41.333 -114 -52h37c57.333 0 104.666 -8.33301 141.999 -25c51.333 -22.667 77 -58.334 77 -107.001c0 -62.667 -51.333 -116 -154 -160c-93.333 -40 -196 -60 -308 -60c-44 0 -81 3.5 -111 10.5
s-51.333 15.667 -64 26s-19 20.166 -19 29.499c0 10 5.33301 15 16 15h5c12 -4 23.833 -7.5 35.5 -10.5s25.5 -4.5 41.5 -4.5c3.33301 42 6.83301 124.667 10.5 248s5.5 211 5.5 263zM237 575.004c-4 -27.333 -8.66992 -75.167 -14.0029 -143.5l-16 -203.5
c-5.33301 -67.333 -11.666 -127.333 -18.999 -180c62 -10 116.667 -15 164 -15c84 0 148.833 14.667 194.5 44s68.5 71 68.5 125v6c0 38 -20.333 66.667 -61 86c-35.333 16.667 -82.333 25 -141 25c-26 0 -50.167 -1.16699 -72.5 -3.5s-49.166 -6.16602 -80.499 -11.499
c-5.33301 0 -10.333 2.33301 -15 7s-7 10 -7 16c0 5.33301 2.66699 10.5 8 15.5s12.333 7.5 21 7.5c86.667 0 152.334 8 197.001 24c54.667 20 82 53 82 99c0 39.333 -21.333 68.666 -64 87.999c-35.333 16 -81.333 24 -138 24c-38 0 -73.667 -3.33301 -107 -10z" />
    <glyph glyph-name="C" unicode="C" horiz-adv-x="778" 
d="M8 152c0 86.667 51.0039 182.001 153.004 286.001s200.333 163.667 295 179c17.333 4 37.666 6 60.999 6c39.333 0 73.833 -5.83301 103.5 -17.5s44.5 -28.834 44.5 -51.501c0 -23.333 -4.33301 -35 -13 -35c-4 0 -11.833 5.5 -23.5 16.5s-19.834 17.167 -24.501 18.5
c-38 12.667 -76.667 19 -116 19c-94.667 0 -179.334 -38.333 -254.001 -115c-68 -69.333 -110 -150.333 -126 -243l-4 -25.5c-1.33301 -8.33301 -2 -13.166 -2 -14.499c0 -48.667 21.333 -85.334 64 -110.001c37.333 -21.333 88.333 -32 153 -32c68 0 140 10.333 216 31
s135.333 45 178 73c6.66699 3.33301 12.667 5 18 5c10 0 15 -5 15 -15s-5.66699 -17.667 -17 -23c-70 -36 -148.5 -65.5 -235.5 -88.5s-166.833 -34.5 -239.5 -34.5c-74.667 0 -133.334 12.333 -176.001 37c-48 28 -72 70 -72 126z" />
    <glyph glyph-name="D" unicode="D" horiz-adv-x="788" 
d="M171 560c-32 -7.33301 -59.668 -15.666 -83.001 -24.999l-48 -22c-8 2.66699 -15.667 8.33398 -23 17.001s-11 16 -11 22l4 8c9.33301 4.66699 31 11.667 65 21c40 11.333 69.333 17 88 17c5.33301 5.33301 8 10.5 8 15.5s2.66699 12.833 8 23.5h13
c12 0 24.333 -3.5 37 -10.5l36 -20.5h75c97.333 0 175.333 -9.33301 234 -28c74 -23.333 128.333 -63.333 163 -120c6 -8.66699 10.333 -19.334 13 -32.001s4 -25.667 4 -39c0 -34.667 -10 -74.334 -30 -119.001c-16 -36 -35 -68.333 -57 -97
c-34.667 -45.333 -103 -86.5 -205 -123.5s-193.667 -55.5 -275 -55.5c-42 0 -74.667 5.33301 -98 16c-27.333 12.667 -41 31 -41 55c4 2.66699 6.66699 4 8 4c8.66699 0 30.334 -5 65.001 -15c27.333 -8 41.333 -12 42 -12zM255.999 567l-45.999 -527l36 -2
c62 0 118.5 7.83301 169.5 23.5s93.833 36.834 128.5 63.501c37.333 26 66.666 58 87.999 96c19.333 34.667 31 72.667 35 114v11c0 65.333 -24.667 119.666 -74 162.999c-53.333 46.667 -126 70 -218 70c-37.333 0 -77 -4 -119 -12z" />
    <glyph glyph-name="E" unicode="E" horiz-adv-x="788" 
d="M737 117c10 -4.66699 14.998 -9.66504 14.998 -14.998c0 -9.33301 -18.667 -21.5 -56 -36.5s-81 -28.5 -131 -40.5c-40 -13.333 -83 -23.333 -129 -30s-91.333 -10 -136 -10c-82.667 0 -150.667 11 -204 33c-58.667 24 -88 57 -88 99
c0 4.66699 -0.666992 12.334 -2 23.001s-2 19 -2 25c0 32 8 64.667 24 98c22 46 61.333 100.667 118 164c73.333 67.333 145.333 116.666 216 147.999c58 25.333 113.667 38 167 38c19.333 0 36.333 -1.16699 51 -3.5s29.334 -6 44.001 -11s28.834 -16.333 42.501 -34
s20.5 -30.834 20.5 -39.501c-0.666992 -2 -1.33398 -3.83301 -2.00098 -5.5s-2 -2.5 -4 -2.5l-8 4c-63.333 26 -124.333 39 -183 39c-60 0 -115.5 -13 -166.5 -39s-94.833 -62.333 -131.5 -109c-32.667 -44.667 -56.334 -80.667 -71.001 -108c-24 -44 -36 -82.667 -36 -116
c0 -14.667 2.5 -29.334 7.5 -44.001s12.5 -28.667 22.5 -42c20 -26 49.5 -45 88.5 -57s82.833 -18 131.5 -18c34.667 0 65.834 1.66699 93.501 5s57.834 8.66602 90.501 15.999c20.667 2.66699 49.667 10.334 87 23.001zM153.998 273.002v23c78 0 152.167 4 222.5 12
l210.5 25c16.667 0 25 -2 25 -6l1 -10c0 -9.33301 -5 -20.333 -15 -33s-18.333 -19 -25 -19c-5.33301 0 -16.333 -0.5 -33 -1.5s-26.667 -1.5 -30 -1.5c-48 0 -106.667 1.33301 -176 4z" />
    <glyph glyph-name="F" unicode="F" horiz-adv-x="682" 
d="M131 537l-22.999 0.998047l-64 -3c-11.333 0 -20.5 2.16699 -27.5 6.5s-10.5 11.5 -10.5 21.5l2 12c0 4 13.333 6 40 6c28 0 55.667 -2 83 -6v38h11c12.667 0 24.667 -4.5 36 -13.5s18.666 -19.833 21.999 -32.5c22 3.33301 88.167 8 198.5 14s186.5 9 228.5 9h4
c7.33301 0 11 -5 11 -15c0 -12 -7.16699 -25.5 -21.5 -40.5s-30.833 -22.5 -49.5 -22.5l-6 1c-78 10 -137.667 17 -179 21c-68.667 6.66699 -135.667 10 -201 10c0 -17.333 -0.666992 -46.166 -2 -86.499s-2 -61.5 -2 -63.5c0 -37.333 2.33301 -109.666 7 -216.999
c2.66699 -61.333 4 -104.333 4 -129l4 -35c0 -10.667 -2.66699 -18.667 -8 -24s-11.666 -8 -18.999 -8c-12.667 0 -27.334 5.66699 -44.001 17s-25 20.333 -25 27c0 58 1.16699 109.667 3.5 155s6.5 107 12.5 185c4 50.667 9 108 15 172zM215.001 280.998
l-0.000976562 15.001c0 4 45.333 8.83301 136 14.5s162.334 8.5 215.001 8.5c10 0 15 -5 15 -15c0 -8.66699 -3 -17.334 -9 -26.001s-13.333 -13 -22 -13l-40 -2c-33.333 0 -87 3 -161 9s-118.667 9 -134 9z" />
    <glyph glyph-name="G" unicode="G" horiz-adv-x="788" 
d="M746 488c-28 14.667 -58.998 27.6621 -92.998 38.9951s-69.667 17 -107 17c-34 0 -70 -4.66699 -108 -14s-80 -25.666 -126 -48.999c-46.667 -26.667 -88.334 -58.667 -125.001 -96c-56.667 -58 -85 -114 -85 -168c0 -6 -0.666992 -13.333 -2 -22s-2 -14 -2 -16
c0 -45.333 18.167 -80.666 54.5 -105.999s82.166 -38 137.499 -38c62.667 0 126 14 190 42c69.333 30.667 126.666 72.334 171.999 125.001v10c0 8 -1.66699 19 -5 33c-8 33.333 -12 52.333 -12 57l2 10c8.66699 4.66699 19.334 7 32.001 7c18.667 0 31 -2.33301 37 -7
c10.667 -51.333 21 -110.666 31 -177.999s15 -119 15 -155c0 -25.333 -2 -40.666 -6 -45.999c-22.667 0 -41 29 -55 87l-31 151l-86 -67c-32.667 -24.667 -63 -43.334 -91 -56.001c-32 -16.667 -73.5 -31 -124.5 -43s-95.5 -18 -133.5 -18h-23c-35.333 0 -72 8 -110 24
c-54.667 23.333 -82 56.333 -82 99c0 62 10.667 115 32 159c25.333 52 71 107.333 137 166c34 34 75.667 64 125 90c54.667 28.667 114.334 50.334 179.001 65.001c37.333 9.33301 73 14 107 14c51.333 0 93.666 -12 126.999 -36c27.333 -20 41 -40 41 -60
c0 -11.333 -4 -18 -12 -20z" />
    <glyph glyph-name="H" unicode="H" horiz-adv-x="730" 
d="M138 296c0.666992 2 1.00098 10.3311 1.00098 24.998s0.333008 27 1 37c0 46.667 -1.5 91.5 -4.5 134.5s-7.16699 78.167 -12.5 105.5c3.33301 6.66699 10.333 10 21 10c13.333 0 28.5 -4.83301 45.5 -14.5s25.5 -18.5 25.5 -26.5l-23 -271l206 -2
c42 0 79 0.666992 111 2s56 4 72 8c2 0 4 -1 6 -3c4.66699 -4.66699 7 -9 7 -13s-2.66699 -7.5 -8 -10.5s-14.666 -4.5 -27.999 -4.5c-33.333 -4 -79 -8.66699 -137 -14c-11.333 -1.33301 -85 -7.66602 -221 -18.999c-2.66699 -19.333 -4.66699 -53.166 -6 -101.499
s-2 -111.833 -2 -190.5l-15 -2c-10.667 0 -20.334 2.66699 -29.001 8s-14.334 13.666 -17.001 24.999c4 28.667 8 85.334 12 170.001c2 39.333 3 67.333 3 84h-40c-27.333 0 -49.333 3.66699 -66 11c-24 10.667 -36 29.334 -36 56.001c2.66699 8.66699 4 15 4 19
c20.667 -6.66699 36 -11.334 46 -14.001c26 -7.33301 47 -11 63 -11zM619.001 1.99805c0 23.333 1.33398 68.667 4.00098 136s4 119.333 4 156c0 82 -0.666992 149.333 -2 202s-3.33301 86.667 -6 102c0 4 4.66699 6 14 6c11.333 0 24.666 -3.16699 39.999 -9.5
s23 -12.833 23 -19.5v-57c0 -188 -1 -318.5 -3 -391.5s-6 -119.5 -12 -139.5c0 -5.33301 -3.33301 -8 -10 -8c-4.66699 0 -12.5 2.83301 -23.5 8.5z" />
    <glyph glyph-name="I" unicode="I" horiz-adv-x="701" 
d="M513 529c-44 -7.33301 -89.5039 -13.001 -136.504 -17.001s-97.5 -6 -151.5 -6l-13 -2c-34 0 -62.333 11.667 -85 35c-18 18.667 -27 35.667 -27 51l2 8c2.66699 2.66699 7 4 13 4c43.333 -12 94.166 -22.333 152.499 -31s122.5 -13 192.5 -13l46 2
c2.66699 2.66699 4.5 9 5.5 19s1.5 19 1.5 27c5.33301 2.66699 11.333 4 18 4c14 0 27.333 -4.83301 40 -14.5s19 -21.5 19 -35.5c11.333 0 22 0.5 32 1.5l34 3.5c3.33301 0 5.83301 -0.666992 7.5 -2s2.83398 -2.33301 3.50098 -3c0 -6.66699 -9.66699 -13.5 -29 -20.5
s-35.333 -10.5 -48 -10.5v-52c0 -75.333 -6.66699 -143.333 -20 -204c-19.333 -88 -50.333 -157 -93 -207c-54 -63.333 -124.667 -95 -212 -95c-73.333 0 -125.666 4.66699 -156.999 14c-55.333 16.667 -88 50.667 -98 102l-4 21c0 20 5.83301 39 17.5 57
s21.834 27 30.501 27c2 0 3.83301 -0.666992 5.5 -2s2.83398 -2.33301 3.50098 -3c-2 -7.33301 -3.66699 -14.5 -5 -21.5s-2 -12.833 -2 -17.5c0 -35.333 14.667 -65.666 44 -90.999c36.667 -31.333 89.334 -47 158.001 -47l11 -2c78 0 138.833 33.5 182.5 100.5
s65.5 166.833 65.5 299.5z" />
    <glyph glyph-name="J" unicode="J" horiz-adv-x="720" 
d="M502 273c-32.667 -6.66699 -62.002 -12 -88.002 -16c-46 -7.33301 -82 -11 -108 -11c-27.333 0 -49.666 3.66699 -66.999 11s-26 18.333 -26 33l2 14c2 7.33301 8.66699 11 20 11c29.333 -6 61.333 -11.333 96 -16s68.667 -7 102 -7c6.66699 0 19.334 0.666992 38.001 2
s29 2 31 2c4 0 6 -2 6 -6zM30.998 56c8 -24.667 20.667 -49.833 38 -75.5s35.333 -44.167 54 -55.5c24 -12.667 50.667 -23.167 80 -31.5s59 -12.5 89 -12.5c46 0 85.667 11.333 119 34c39.333 26.667 67 68.334 83 125.001c20.667 66 34.667 158.667 42 278
c4 64.667 6 142.667 6 234c-54.667 -5.33301 -103.667 -9.83301 -147 -13.5s-80.666 -5.5 -111.999 -5.5c-30.667 0 -59.334 2.16699 -86.001 6.5s-48.667 11.166 -66 20.499c0 3.33301 -2 9.33301 -6 18s-6 16 -6 22l4 13c44 -10 122 -19.333 234 -28
c87.333 -6.66699 146.666 -10 177.999 -10l2 27l-2 -2v13l19 2c14.667 0 28 -3.33301 40 -10s18 -16.667 18 -30c5.33301 0 15.5 0.666992 30.5 2s23.167 2 24.5 2c15.333 0 23 -4 23 -12l-2 -7c-4 -2.66699 -9.66699 -4 -17 -4c-2 0 -9.33301 0.666992 -22 2s-25 2 -37 2
v-95c0 -110.667 -7 -201.667 -21 -273c-18.667 -96 -50.667 -172.667 -96 -230c-52.667 -66.667 -124.667 -109.667 -216 -129h-23c-45.333 0 -90.666 8.66699 -135.999 26c-52 20 -84.333 44.667 -97 74c-8.66699 16 -14.667 28 -18 36s-5 15.667 -5 23
c0 14 10.333 35.333 31 64z" />
    <glyph glyph-name="K" unicode="K" horiz-adv-x="643" 
d="M4 606c16 0 32.9971 -5.33105 50.9971 -15.998c10.667 -8 21.667 -15.667 33 -23l-23 -365c52 17.333 127.667 72.666 227 165.999c106 100 175.333 187 208 261c11.333 -2 20 -11.167 26 -27.5s9 -33.5 9 -51.5c0 -14 -1.33301 -23.667 -4 -29
c-22 -26.667 -66.5 -68 -133.5 -124s-118.167 -94.667 -153.5 -116c28.667 -31.333 72 -71.666 130 -120.999c49.333 -42 98.833 -81.333 148.5 -118s78.167 -55 85.5 -55c0.666992 -0.666992 1.16699 -1.83398 1.5 -3.50098s0.5 -3.83398 0.5 -6.50098
c0 -9.33301 -8.5 -18.166 -25.5 -26.499s-32.833 -12.5 -47.5 -12.5c-8 0 -12.667 0.666992 -14 2c-43.333 31.333 -86.666 67.333 -129.999 108l-107 104c-39.333 37.333 -73.666 66.666 -102.999 87.999c-1.33301 -0.666992 -21.666 -15 -60.999 -43
c-20 -14 -36.333 -22.667 -49 -26v-22v-21c0 -42.667 -0.5 -73.167 -1.5 -91.5s-3.16699 -34.833 -6.5 -49.5c-2 -4 -7 -6 -15 -6c-10 0 -20.167 2.83301 -30.5 8.5s-15.5 12.5 -15.5 20.5c5.33301 45.333 8 134.333 8 267c0 30 -1.33301 82 -4 156s-4 131.667 -4 173z" />
    <glyph glyph-name="L" unicode="L" horiz-adv-x="653" 
d="M119 48c0 40 1.33008 89.3301 3.99707 147.997s4 97.334 4 116.001c0 76 -2.66699 136.333 -8 181c-6.66699 31.333 -13 63 -19 95l4 10h13c37.333 0 62.333 -13.333 75 -40c8 -16.667 12 -45 12 -85c-3.33301 -30.667 -7.66602 -72.667 -12.999 -126
c-12 -125.333 -18 -225 -18 -299l125 -2c68 0 120.667 0.5 158 1.5s80.333 2.5 129 4.5c22.667 0 35.334 -1.33301 38.001 -4l2 -8c0 -5.33301 -18 -9.66602 -54 -12.999s-62.333 -6.66602 -79 -9.99902c-157.333 -19.333 -272.666 -29 -345.999 -29
c-54 0 -90.333 6.33301 -109 19c-14 18 -25 31.667 -33 41l-4 14c-0 6 3.33301 9 10 9c1.33301 0 21.333 -5 60 -15c20.667 -5.33301 37 -8 49 -8z" />
    <glyph glyph-name="M" unicode="M" horiz-adv-x="970" 
d="M244 498l-31.002 46c-3.33301 4.66699 -13.666 12.167 -30.999 22.5s-26 19.5 -26 27.5l4 12c2.66699 2.66699 9 4 19 4c16.667 0 37.334 -3.83301 62.001 -11.5s41.667 -15.5 51 -23.5l200 -473l6 -6c12 0 33 31.333 63 94c20.667 43.333 31.667 66 33 68l179 340
c24.667 0 41.167 -1.83301 49.5 -5.5s12.5 -9.5 12.5 -17.5c0 -110 11.333 -231.333 34 -364c18 -106 40 -168 66 -186l2 -6c0 -5.33301 -11.5 -12.333 -34.5 -21s-39.167 -13 -48.5 -13l-4 2h-4c-8.66699 0 -18.334 34.667 -29.001 104c-8 52 -18 128.833 -30 230.5
s-20 163.167 -24 184.5c-18.667 -31.333 -52.667 -94.833 -102 -190.5l-109 -207.5c-35.333 -66 -57.666 -101.333 -66.999 -106l-4 -2c-9.33301 -0 -27.333 28.333 -54 85c-14 30 -41.333 92.333 -82 187c-34.667 82 -63 144 -85 186l-93 -363
c-32 -120.667 -62.667 -187.667 -92 -201l-10 -2c-10 0 -23 8 -39 24s-24 29.333 -24 40l4 7l11 -1c28 0 60 41.333 96 124c26.667 62 54.667 143 84 243z" />
    <glyph glyph-name="N" unicode="N" horiz-adv-x="845" 
d="M48 -52l5.99707 -2.00098c18.667 0 45.834 35 81.501 105s66.5 146 92.5 228c28.667 90 43 159.667 43 209c0 28.667 -14.667 54.334 -44 77.001l-56 41l-2 2c0 3.33301 7.66699 5 23 5c20 0 43.333 -2.83301 70 -8.5s45.667 -12.834 57 -21.501
c15.333 -13.333 56 -67.333 122 -162c83.333 -119.333 142 -201.333 176 -246c64.667 -84.667 107 -127 127 -127c12 2 20.167 14 24.5 36s6.5 47.333 6.5 76v57c0 82 -5.33301 153.333 -16 214l-38 159c0 4 3.33301 6 10 6c14 0 31.5 -5.16699 52.5 -15.5
s31.5 -19.833 31.5 -28.5v-96c0 -81.333 -1.33301 -152.833 -4 -214.5s-8 -114.167 -16 -157.5c-10 -55.333 -24.333 -87.666 -43 -96.999l-19 -4c-21.333 0 -48.666 19.333 -81.999 58l-68 84l-164 202c-46 57.333 -74.333 92 -85 104c-18 20.667 -33.333 34.667 -46 42
c0 -39.333 -12.5 -105.5 -37.5 -198.5s-52.167 -179.667 -81.5 -260s-49 -120.5 -59 -120.5l-33 -2c-12 0 -24 3 -36 9s-22.333 16.667 -31 32c0.666992 4.66699 1.33398 8 2.00098 10c3.33301 7.33301 9 11 17 11z" />
    <glyph glyph-name="O" unicode="O" horiz-adv-x="855" 
d="M35 319c30 75.333 94.334 146.329 193.001 212.996c90 60.667 163.333 91 220 91c18 0 30.333 -3.33301 37 -10l2 -5c-33.333 -7.33301 -73.5 -18.666 -120.5 -33.999s-90.667 -38.333 -131 -69s-73.666 -74.667 -99.999 -132s-39.5 -111.666 -39.5 -162.999
c0 -27.333 3.83301 -51 11.5 -71s19.167 -35 34.5 -45c14 -17.333 39.667 -30.666 77 -39.999s78.333 -14 123 -14c47.333 0 92.833 4.33301 136.5 13s76.5 20 98.5 34c45.333 29.333 84.333 67 117 113c36 50.667 54 98 54 142v23c-10 66.667 -34.667 116.334 -74 149.001
c-33.333 28 -74.666 42 -123.999 42c-46 0 -91.333 -11.333 -136 -34s-73 -46.667 -85 -72c-2.66699 -6.66699 -7.33398 -12.167 -14.001 -16.5s-13 -6.5 -19 -6.5c-4.66699 0 -9 1.33301 -13 4s-6 6.33398 -6 11.001c0 2.66699 2 8 6 16c28 38 67.667 68 119 90
s104 33 158 33c71.333 0 130.666 -16.667 177.999 -50c52.667 -36.667 79 -86.667 79 -150c0 -108 -56.667 -202.333 -170 -283c-108 -76.667 -226.333 -115 -355 -115c-34.667 0 -69.334 3.66699 -104.001 11c-52 12 -94.333 35.333 -127 70
c-35.333 37.333 -53 82.666 -53 135.999c0 37.333 9 77 27 119z" />
    <glyph glyph-name="P" unicode="P" horiz-adv-x="768" 
d="M144 537c-8.66699 0 -26.666 -5.8291 -53.999 -17.4961s-44.666 -17.5 -51.999 -17.5l-9 4c-6 2.66699 -12 8.16699 -18 16.5s-9 15.5 -9 21.5l4 8c10 6.66699 31.667 12.167 65 16.5s60.333 6.5 81 6.5v54c28.667 0 45.667 -7.33301 51 -22s8.66602 -22.667 9.99902 -24
l115.5 11c40.333 4 77.5 6 111.5 6c58 0 114.667 -5.66699 170 -17c38 -10.667 68 -26.334 90 -47.001s33 -45 33 -73c0 -22.667 -7.66699 -47.667 -23 -75c-30 -52 -77 -98.333 -141 -139c-60.667 -38.667 -119.667 -62 -177 -70l-19 -2
c-30.667 0 -62.334 6.66699 -95.001 20s-49 29 -49 47l2 6c0 4 3.66699 6 11 6l88.5 -17c29 -5.33301 53.5 -8 73.5 -8c25.333 0 51 3.16699 77 9.5s51 17.166 75 32.499c19.333 12 37 33.5 53 64.5s24 62.167 24 93.5c0 10.667 -0.5 19.167 -1.5 25.5
s-3.16699 14.5 -6.5 24.5c-17.333 33.333 -47 57.666 -89 72.999c-35.333 12.667 -78.666 19 -129.999 19c-34.667 0 -73.334 -3 -116.001 -9l-84 -12c0 -30 -1 -77 -3 -141s-3 -112 -3 -144c0 -31.333 1 -79 3 -143s3 -112.333 3 -145c-20.667 2.66699 -36 5 -46 7
c-31.333 7.33301 -47 17.666 -47 30.999l-1 29c0 33.333 2.66699 78.333 8 135l16 172c5.33301 58 8 107 8 147v37z" />
    <glyph glyph-name="Q" unicode="Q" horiz-adv-x="855" 
d="M35 319c30 75.333 94.334 146.329 193.001 212.996c90 60.667 163.333 91 220 91c18 0 30.333 -3.33301 37 -10l2 -5c-33.333 -7.33301 -73.5 -18.666 -120.5 -33.999s-90.667 -38.333 -131 -69s-73.666 -74.667 -99.999 -132s-39.5 -111.666 -39.5 -162.999
c0 -27.333 3.83301 -51 11.5 -71s19.167 -35 34.5 -45c14 -17.333 39.667 -30.666 77 -39.999s78.333 -14 123 -14c47.333 0 92.833 4.33301 136.5 13s76.5 20 98.5 34c45.333 29.333 84.333 67 117 113c36 50.667 54 98 54 142v23c-10 66.667 -34.667 116.334 -74 149.001
c-33.333 28 -74.666 42 -123.999 42c-46 0 -91.333 -11.333 -136 -34s-73 -46.667 -85 -72c-2.66699 -6.66699 -7.33398 -12.167 -14.001 -16.5s-13 -6.5 -19 -6.5c-4.66699 0 -9 1.33301 -13 4s-6 6.33398 -6 11.001c0 2.66699 2 8 6 16c28 38 67.667 68 119 90
s104 33 158 33c71.333 0 130.666 -16.667 177.999 -50c52.667 -36.667 79 -86.667 79 -150c0 -108 -56.667 -202.333 -170 -283c-108 -76.667 -226.333 -115 -355 -115c-34.667 0 -69.334 3.66699 -104.001 11c-52 12 -94.333 35.333 -127 70
c-35.333 37.333 -53 82.666 -53 135.999c0 37.333 9 77 27 119zM437.001 -90.0039c-48.667 11.333 -91 17 -127 17c-20 0 -44 -1.66699 -72 -5s-44.667 -5 -50 -5l-5 12c0 12.667 18.667 21.5 56 26.5s72.333 7.5 105 7.5s70 -4 112 -12c117.333 -22.667 178 -34 182 -34h33
c30 0 56 4.66699 78 14l57 32c2 -1.33301 4.16699 -2.5 6.5 -3.5s3.83301 -2.16699 4.5 -3.5c0 -37.333 -16 -64.333 -48 -81c-24.667 -12.667 -58 -19 -100 -19c-14 0 -28.667 0.833008 -44 2.5s-31.333 3.16699 -48 4.5c-58 17.333 -104.667 33 -140 47z" />
    <glyph glyph-name="R" unicode="R" horiz-adv-x="778" 
d="M131 33l22.9971 510.996c-21.333 -7.33301 -37.333 -12.666 -48 -15.999c-31.333 -10.667 -51.333 -18 -60 -22l-8 -2c-6.66699 0 -13.667 3.33301 -21 10s-11 14.334 -11 23.001l2 7c9.33301 9.33301 28.833 16 58.5 20s58.834 7.66699 87.501 11c4 0 6 2 6 6l-2 21
c0 0.666992 0.666992 3.33398 2 8.00098s2 8.33398 2 11.001c4.66699 1.33301 8.33398 2 11.001 2c9.33301 0 19.5 -3.16699 30.5 -9.5s20.167 -16.5 27.5 -30.5c13.333 4.66699 36.833 8.33398 70.5 11.001s65.834 4 96.501 4c70 0 128.333 -2.66699 175 -8
c37.333 -3.33301 67.666 -12 90.999 -26c32 -19.333 48 -46.333 48 -81v-10c-10.667 -72 -56.667 -125.333 -138 -160c-62 -26.667 -134.667 -40 -218 -40c47.333 -49.333 108 -103 182 -161c94.667 -74.667 158.334 -112 191.001 -112l13 2l4 -6
c0 -7.33301 -9 -18.5 -27 -33.5s-32 -22.5 -42 -22.5h-4c-53.333 34 -124 85 -212 153c-103.333 80 -180 145 -230 195c8 8.66699 16.333 14.5 25 17.5s19.334 4.5 32.001 4.5c7.33301 0 21.333 -1 42 -3s37 -3 49 -3c49.333 0 92 6.33301 128 19
c50.667 18 88 47.667 112 89c4.66699 9.33301 8.16699 18 10.5 26s3.5 15.333 3.5 22c0 39.333 -31 69.666 -93 90.999c-46.667 16 -95.334 24 -146.001 24c-26 0 -47 -1 -63 -3s-52 -8.66699 -108 -20c0 -36 -1.33301 -79.667 -4 -131c-6 -116 -9 -185.667 -9 -209
c0 -34 0.833008 -76.667 2.5 -128s2.5 -78.666 2.5 -81.999c-2.66699 -5.33301 -9.66699 -8 -21 -8c-14 0 -28 4.16699 -42 12.5s-21 17.166 -21 26.499z" />
    <glyph glyph-name="S" unicode="S" horiz-adv-x="711" 
d="M87 427c32 65.333 85.3311 114.666 159.998 147.999c62.667 28 132.334 42 209.001 42c48 0 90.167 -5.66699 126.5 -17s56.833 -24.666 61.5 -39.999c2.66699 -2.66699 5.66699 -9.33398 9 -20.001s5 -20 5 -28c0 -4.66699 -1.16699 -8.83398 -3.5 -12.501
s-5.16602 -5.5 -8.49902 -5.5c-2.66699 0 -6.83398 2.5 -12.501 7.5s-9.83398 8.83301 -12.501 11.5c-25.333 19.333 -56 33.833 -92 43.5s-72.667 14.5 -110 14.5c-66 0 -125.667 -13.167 -179 -39.5s-80 -57.5 -80 -93.5c0 -6 1.33301 -12.333 4 -19s5 -11.667 7 -15
c16 -26.667 51 -44.334 105 -53.001c14.667 -2.66699 65 -6.33398 151 -11.001s148 -14 186 -28c21.333 -7.33301 37 -17.833 47 -31.5s15 -28.834 15 -45.501c0 -30 -12.833 -62.667 -38.5 -98s-53.834 -62.333 -84.501 -81c-50 -26 -103 -47.333 -159 -64
c-66.667 -20 -127.667 -30 -183 -30l-47 1c-38.667 0 -76 12.667 -112 38c-32.667 22.667 -49 43.334 -49 62.001c0 8 2.66699 13.333 8 16l7 4c7.33301 -6.66699 18.833 -14.667 34.5 -24s37.5 -18 65.5 -26c60 -10.667 110.667 -16 152 -16
c70.667 0 135.334 10 194.001 30c42.667 14.667 72.334 30.334 89.001 47.001c14 14 23.833 29.167 29.5 45.5s8.5 34.5 8.5 54.5c0 50.667 -126.667 87.334 -380 110.001c-33.333 4 -61.666 12.333 -84.999 25c-30.667 16.667 -46 38.334 -46 65.001
c0 4 0.333008 7.33301 1 10s3 10.334 7 23.001z" />
    <glyph glyph-name="T" unicode="T" horiz-adv-x="759" 
d="M321 521c-18 0 -52.8301 -0.668945 -104.497 -2.00195s-78.834 -2 -81.501 -2c-22.667 0 -38.667 0.333008 -48 1c-10.667 2 -18 3 -22 3c-19.333 5.33301 -35 15 -47 29s-18 26.333 -18 37l4 11h6c52.667 -8.66699 107 -16 163 -22s108 -9 156 -9
c0 16.667 0.666992 27.667 2 33s5.66602 9.66602 12.999 12.999h4c5.33301 0 11.166 -4.16699 17.499 -12.5s9.5 -16.833 9.5 -25.5v-8c12 0 26 -0.5 42 -1.5s33.333 -1.83301 52 -2.5c40 0 85.667 2 137 6s87.666 6 108.999 6c2 0 3.33301 -1.16699 4 -3.5
s1.33398 -3.83301 2.00098 -4.5c0 -7.33301 -41.5 -15.833 -124.5 -25.5s-148.5 -14.5 -196.5 -14.5l-25 2l-23 -304c0 -46 1 -78 3 -96c4.66699 -39.333 14 -71.333 28 -96c4 -12 14 -18 30 -18c22 0 54.667 11 98 33c12.667 6.66699 39.667 22 81 46
c5.33301 2.66699 11.333 4 18 4c5.33301 0 10.5 -1.5 15.5 -4.5s7.5 -6.5 7.5 -10.5c0 -4.66699 -3.33301 -8.66699 -10 -12c-26 -17.333 -66 -36.333 -120 -57c-61.333 -23.333 -109 -35 -143 -35c-31.333 0 -54 10.333 -68 31c-11.333 16.667 -17 41.667 -17 75
c0 20.667 1.33301 42.334 4 65.001c7.33301 62 11 95.333 11 100c0 18.667 5.16699 63.834 15.5 135.501s15.5 116.834 15.5 135.501z" />
    <glyph glyph-name="U" unicode="U" horiz-adv-x="711" 
d="M79 342c-2 -6.66699 -5.33301 -27.666 -10 -62.999c-8.66699 -62.667 -13 -98.667 -13 -108c3.33301 -31.333 15 -58 35 -80s44.667 -33 74 -33c8.66699 0 17.334 1 26.001 3s18 5.33301 28 10c32.667 16.667 64.667 43.334 96 80.001c24.667 29.333 50 67 76 113
c14.667 25.333 35 64.333 61 117c9.33301 18.667 17.666 52 24.999 100c4 31.333 8.33301 62.666 13 93.999h8c29.333 0 50.333 -12.667 63 -38c9.33301 -18.667 14 -45 14 -79l-2 -64l2 -21l24 -249c11.333 -66 37.333 -104 78 -114v-4c0 -6.66699 -13.667 -15.5 -41 -26.5
s-45 -16.5 -53 -16.5h-6c-16.667 0 -32 52.667 -46 158c-6 45.333 -11.5 88.833 -16.5 130.5s-9.5 74.167 -13.5 97.5s-10 39 -18 47c-20 -54 -39.333 -99.667 -58 -137c-27.333 -56 -56.333 -102.333 -87 -139c-38.667 -46.667 -80.667 -81 -126 -103
c-31.333 -14 -62.333 -21 -93 -21c-32.667 0 -59.667 8.66699 -81 26c-24 19.333 -36 46 -36 80l-2 54c0 60 4.66699 116.667 14 170l20.5 101.5c7.66699 37 11.5 69.5 11.5 97.5c0 19.333 -1.33301 35.333 -4 48c-4 13.333 -7.66699 26.666 -11 39.999
c0 6.66699 8.33301 12 25 16c29.333 -5.33301 49.833 -12.833 61.5 -22.5s17.5 -24.167 17.5 -43.5c0 -15.333 -8.66699 -52.333 -26 -111c-12.667 -44 -22.667 -80.667 -30 -110z" />
    <glyph glyph-name="V" unicode="V" horiz-adv-x="730" 
d="M4 613c4.66699 1.33301 10.6631 2.33398 17.9961 3.00098s12.333 1 15 1c8.66699 0 19.334 -0.833008 32.001 -2.5s27 -4.5 43 -8.5c18.667 -6.66699 36.667 -31.334 54 -74.001l38 -97c14.667 -27.333 33.334 -74.333 56.001 -141l52 -151
c17.333 -49.333 29.333 -74 36 -74l4 2c13.333 0 36 23.667 68 71c26 38.667 47 74.667 63 108c46.667 70.667 80.667 135.667 102 195c16.667 46 25 86.667 25 122c0 15.333 -1.5 29.833 -4.5 43.5l-9.5 41.5l4 8h4c15.333 0 33.833 -11.833 55.5 -35.5
s32.5 -42.834 32.5 -57.501c0 -27.333 -13 -67 -39 -119c-19.333 -38.667 -45.333 -83 -78 -133l-60 -90c-34.667 -50.667 -70.667 -98.667 -108 -144c-51.333 -62.667 -84.333 -94 -99 -94h-4c-7.33301 0 -26.666 39.667 -57.999 119l-94 241
c-38.667 99.333 -67.667 167.666 -87 204.999c-7.33301 14.667 -19.666 24.834 -36.999 30.501s-26 12.834 -26 21.501z" />
    <glyph glyph-name="W" unicode="W" horiz-adv-x="990" 
d="M219 -21l-4 0.000976562c-13.333 0 -34 60.333 -62 181c-22 94 -38.333 175.333 -49 244c-13.333 76 -30 127.667 -50 155c-2 2.66699 -18.667 15.667 -50 39c5.33301 9.33301 16.666 14 33.999 14c19.333 0 40.833 -4.66699 64.5 -14s36.834 -17 39.501 -23
c9.33301 -22 22.333 -77.333 39 -166c26.667 -144.667 40.334 -218.334 41.001 -221.001c14.667 -74 26.667 -111 36 -111l2 2c6.66699 1.33301 27 39 61 113c47.333 102.667 79.666 170.667 96.999 204c38.667 73.333 67.334 110 86.001 110h8c14 0 33.333 -38.333 58 -115
l66 -215c26 -77.333 47.333 -116 64 -116l8 3c59.333 51.333 103 120.333 131 207c22.667 70 34 146.667 34 230c0 50 -3.33301 95.667 -10 137c30 -4 52 -16.5 66 -37.5s21 -48.5 21 -82.5c0 -56.667 -18 -127.667 -54 -213c-33.333 -78 -73 -149.5 -119 -214.5
s-84.333 -101.833 -115 -110.5c-24 6.66699 -48 43 -72 109c-2.66699 8 -22.667 71.667 -60 191c-23.333 75.333 -44.333 122 -63 140c-40.667 -76 -83.334 -160.667 -128.001 -254c-35.333 -74 -57.333 -118 -66 -132c-16 -26 -34 -44 -54 -54z" />
    <glyph glyph-name="X" unicode="X" horiz-adv-x="788" 
d="M358 327l-194.997 225c-13.333 15.333 -29.333 27.833 -48 37.5l-52 27.5l8 12l50 4c63.333 0 118.666 -31.333 165.999 -94l117 -166l71 75l107 108c40.667 39.333 71.667 66.333 93 81l10 1c12 0 25.833 -8.5 41.5 -25.5s23.5 -30.167 23.5 -39.5c0 -4 -2 -6 -6 -6
c-2.66699 1.33301 -7.66699 2 -15 2c-30 0 -83 -30.333 -159 -91c-50 -40 -97.667 -82.667 -143 -128c39.333 -62 87.666 -126.667 144.999 -194c74.667 -87.333 127 -131 157 -131c4.66699 0 8 -1 10 -3c0 -1.33301 0.333008 -2.33301 1 -3
c0 -4.66699 -10.833 -11.5 -32.5 -20.5s-40.167 -13.5 -55.5 -13.5l-15 2c-9.33301 2 -30.333 22 -63 60c-19.333 22.667 -53 65 -101 127l-100 130c-70.667 -79.333 -134.334 -158 -191.001 -236l-101 -147c-22 -33.333 -35.667 -50 -41 -50
c-4.66699 0 -12.5 9.83301 -23.5 29.5s-16.5 34.167 -16.5 43.5l2 4z" />
    <glyph glyph-name="Y" unicode="Y" horiz-adv-x="740" 
d="M312 10c-4 7.33301 -28.335 64.6699 -73.002 172.003c-46.667 113.333 -86.667 202.666 -120 267.999c-48 94 -84.333 143.333 -109 148l-4 8c0 10 13.333 15 40 15c14.667 0 31.667 -1.66699 51 -5s31.333 -6.66602 36 -9.99902
c17.333 -8.66699 38.666 -42.667 63.999 -102c8.66699 -21.333 33.667 -88.333 75 -201c32.667 -90.667 63.667 -168 93 -232c72.667 86 133.5 178.333 182.5 277s73.5 180.667 73.5 246c0 14.667 -0.5 25.667 -1.5 33s-3.16699 15.666 -6.5 24.999l-1 4
c8.66699 1.33301 26.834 -12.834 54.501 -42.501s41.5 -52.834 41.5 -69.501l-2 -7c-76 -145.333 -152.667 -271 -230 -377c-36.667 -50 -87 -111 -151 -183c-36 -40 -54 -67.667 -54 -83c1.33301 -1.33301 4 -2 8 -2h13c20.667 0 69.834 5.5 147.501 16.5
s126.834 16.5 147.501 16.5c2.66699 0 4.66699 -0.5 6 -1.5s2.33301 -1.83301 3 -2.5c0 -4 -3.16699 -9 -9.5 -15s-15.166 -10 -26.499 -12l-358 -84l-17 -2c-8.66699 0 -16.334 2 -23.001 6s-10 10.333 -10 19l4 15l127 124c19.333 20 29 32.667 29 38z" />
    <glyph glyph-name="Z" unicode="Z" horiz-adv-x="759" 
d="M342 281c-10 6 -26.9971 14.667 -50.9971 26c-16.667 8 -27.667 14.667 -33 20c0 14.667 1.16699 24.667 3.5 30s6.16602 8 11.499 8h8c14 -7.33301 33.333 -18 58 -32c20 -11.333 34 -18.333 42 -21l94 84.5c25.333 23 43.333 40.833 54 53.5
c33.333 38 52.666 61.333 57.999 70c8.66699 13.333 13 24.666 13 33.999c0 19.333 -22.333 29 -67 29h-20c-40.667 0 -85.834 -3 -135.501 -9s-100.5 -13.333 -152.5 -22c-33.333 -9.33301 -63.166 -16.833 -89.499 -22.5s-50.5 -8.5 -72.5 -8.5
c-2 5.33301 -3.66699 11 -5 17c0 18 14.167 33.833 42.5 47.5s51.833 20.5 70.5 20.5c48 6 104.333 9 169 9c70 0 134.333 -2.66699 193 -8s95.667 -11 111 -17c13.333 -4 23.833 -10.5 31.5 -19.5s11.5 -18.5 11.5 -28.5c0 -25.333 -20.667 -58 -62 -98
c-26.667 -25.333 -56 -49 -88 -71c-11.333 -9.33301 -26.666 -20.666 -45.999 -33.999c-46.667 -32.667 -70.667 -49.667 -72 -51l62 -26c26.667 -12 40 -21.667 40 -29c0 -8 -5 -12 -15 -12c-8.66699 0 -22.334 3.33301 -41.001 10c-26 8.66699 -51.667 17.667 -77 27
c-24.667 -14 -88.334 -57.333 -191.001 -130c-43.333 -30.667 -72.333 -49.667 -87 -57l-4 -4c0 -6 34.5 -11.333 103.5 -16s148.5 -7 238.5 -7c49.333 0 97.5 1 144.5 3s84.833 5 113.5 9c14 0 21 -4.66699 21 -14c0 -3.33301 -1.66699 -7 -5 -11s-6.33301 -6 -9 -6
c-109.333 -13.333 -209.333 -23.666 -300 -30.999s-166 -11 -226 -11c-119.333 0 -179 14 -179 42c0 9.33301 5.66699 19.666 17 30.999l178 129c76 54 122.333 86 139 96z" />
    <glyph glyph-name="bracketleft" unicode="[" horiz-adv-x="201" 
d="M163 629v-31h-109v-704h102v-31h-148v766h155z" />
    <glyph glyph-name="backslash" unicode="\" horiz-adv-x="374" 
d="M50 629c4 0 22.999 -38 56.999 -114l111 -250c49.333 -110 89 -192.667 119 -248c0 -7.33301 -2.66699 -14 -8 -20s-11 -9 -17 -9c-5.33301 0 -10 2 -14 6c-35.333 66.667 -69.666 134.667 -102.999 204l-95 202l-96 206c8 15.333 23.333 23 46 23z" />
    <glyph glyph-name="bracketright" unicode="]" horiz-adv-x="182" 
d="M2 621h146v-758h-146v31h100v696h-100v31z" />
    <glyph glyph-name="asciicircum" unicode="^" horiz-adv-x="441" 
d="M227 506l179 -358h-56l-146 287l-148 -287h-54l186 358h39z" />
    <glyph glyph-name="underscore" unicode="_" horiz-adv-x="528" 
d="M4 -67h486v-54h-486v54z" />
    <glyph glyph-name="grave" unicode="`" horiz-adv-x="172" 
d="M138 613c2.66699 -4.66699 4 -7.66797 4 -9.00098l-54 -133c-17.333 -44 -26 -79.333 -26 -106c-2.66699 -8.66699 -8 -13 -16 -13c-7.33301 0 -15.5 4.83301 -24.5 14.5s-13.5 19.5 -13.5 29.5c0 26.667 18.333 69.834 55 129.501s60.667 89.5 72 89.5z" />
    <glyph glyph-name="a" unicode="a" horiz-adv-x="518" 
d="M363 117c1.33301 4 1.99609 12.3311 1.99609 24.998c0 9.33301 -0.666992 20.166 -2 32.499s-3.66602 29.166 -6.99902 50.499c-12 18 -26.667 31.167 -44 39.5s-35.333 12.5 -54 12.5c-24.667 0 -49 -5.33301 -73 -16s-42 -22.667 -54 -36
c-15.333 -15.333 -27.833 -33.666 -37.5 -54.999s-14.5 -42.666 -14.5 -63.999c0 -5.33301 0.833008 -11.666 2.5 -18.999s2.83398 -12.666 3.50098 -15.999c5.33301 -14.667 16 -26 32 -34s34.667 -12 56 -12c32.667 0 66.334 8 101.001 24
c38.667 18 68.334 40.667 89.001 68zM362.996 264.998c11.333 0 21.5 0.498047 30.5 1.49805s16.833 3.16699 23.5 6.5c3.33301 -50.667 7.33301 -96.334 12 -137.001c10 -80.667 26 -121 48 -121l4 2l4 -7c0 -6 -10.333 -13 -31 -21s-36 -12 -46 -12
c-2 0 -3.5 0.333008 -4.5 1s-2.33301 2.33398 -4 5.00098s-6.83398 27.334 -15.501 74.001c-4 20 -8.33301 32.333 -13 37c-15.333 -30 -51 -54.333 -107 -73c-49.333 -16.667 -99 -25 -149 -25c-25.333 0 -45.666 2 -60.999 6c-36 12.667 -54 36.334 -54 71.001
c0 48 30.5 99.5 91.5 154.5s120.167 82.5 177.5 82.5c19.333 0 37 -3.5 53 -10.5s29.667 -18.5 41 -34.5z" />
    <glyph glyph-name="b" unicode="b" horiz-adv-x="441" 
d="M56 171l-2 -17c0 -34 13.667 -64 41 -90s59 -39 95 -39c18.667 0 38.167 4.5 58.5 13.5s38.833 22.5 55.5 40.5c11.333 15.333 19.833 31.833 25.5 49.5s8.5 33.167 8.5 46.5c0 28.667 -8.5 52.167 -25.5 70.5s-37.833 27.5 -62.5 27.5c-28 0 -64.333 -12 -109 -36
s-73 -46 -85 -66zM10 202l14.998 419c2 18 12.333 27 31 27c10 0 19.167 -4.5 27.5 -13.5s12.5 -21.833 12.5 -38.5c0 -12.667 -0.666992 -22.334 -2 -29.001c0 -22 -8.33301 -96.333 -25 -223c-8.66699 -66 -13 -113.333 -13 -142
c6.66699 3.33301 28.334 16.666 65.001 39.999c30 18.667 60.333 34 91 46c9.33301 2.66699 21 5.33398 35 8.00098s27.333 4 40 4c34 0 62.333 -7 85 -21c27.333 -16.667 41 -41.667 41 -75l-1 -25c-10 -44.667 -47.167 -88.167 -111.5 -130.5
s-124.166 -63.5 -179.499 -63.5c-19.333 0 -36 3 -50 9c-26 10 -43.667 39.667 -53 89c-5.33301 28.667 -8 68.334 -8 119.001z" />
    <glyph glyph-name="c" unicode="c" horiz-adv-x="470" 
d="M12 133c12 41.333 47.998 82.0029 107.998 122.003c63.333 42.667 125.333 64 186 64c29.333 0 52 -6.66699 68 -20c13.333 -11.333 20 -23.333 20 -36c0 -3.33301 -1.33301 -7 -4 -11s-5.66699 -6 -9 -6l-6 4c-8.66699 6 -23.167 11.333 -43.5 16s-41.833 7 -64.5 7
c-49.333 0 -90.666 -11 -123.999 -33c-42.667 -28 -64 -69 -64 -123l2 -15c0 -26 16.5 -46.667 49.5 -62s70.833 -23 113.5 -23c22.667 0 45 2.66699 67 8s40.667 13 56 23c32 15.333 52 23 60 23c2 0 3.66699 -0.833008 5 -2.5s2.33301 -2.83398 3 -3.50098
c0 -4.66699 -4.66699 -11.334 -14 -20.001s-19.666 -15.334 -30.999 -20.001c-30.667 -11.333 -67.167 -21.5 -109.5 -30.5s-81.833 -13.5 -118.5 -13.5c-47.333 0 -84 7.33301 -110 22c-32 18 -48 46 -48 84c0 6.66699 0.5 12.5 1.5 17.5s3.16699 14.5 6.5 28.5z" />
    <glyph glyph-name="d" unicode="d" horiz-adv-x="480" 
d="M379 233c-16 12.667 -36.8311 23.499 -62.498 32.499s-52.167 13.5 -79.5 13.5c-40.667 0 -74.334 -11 -101.001 -33c-32.667 -26.667 -52.334 -67 -59.001 -121l-2 -15c0 -27.333 9.66699 -47.666 29 -60.999s45 -20 77 -20c30.667 0 64.667 6.16699 102 18.5
s69.333 27.833 96 46.5v139zM387.002 249.999c0 74 -1.33301 138.833 -4 194.5l-8 172.5c0 4 0.666992 9.33301 2 16s2 10.334 2 11.001h8c10 0 23 -3.66699 39 -11c5.33301 -2 12.666 -6 21.999 -12c0.666992 -4 1.16699 -10.5 1.5 -19.5s0.5 -17.833 0.5 -26.5
c0 -24 -2 -68 -6 -132c-7.33301 -115.333 -11 -174.333 -11 -177c-4 -74.667 -6 -136.334 -6 -185.001c0 -47.333 2 -89 6 -125c-10.667 0.666992 -18.667 1.33398 -24 2.00098c-16.667 4 -26.667 11 -30 21l-4 34c0 8 0.333008 16.833 1 26.5s1.66699 20.167 3 31.5
c-25.333 -20 -64.5 -38.167 -117.5 -54.5s-101.833 -24.5 -146.5 -24.5c-26 0 -47.333 3.16699 -64 9.5s-28.667 16.833 -36 31.5c-2 5.33301 -4.33301 12.666 -7 21.999s-4 17.333 -4 24c0 52.667 29.167 104.834 87.5 156.501s115.5 77.5 171.5 77.5l31 -1
c16.667 -4.66699 33.334 -12.334 50.001 -23.001s31 -23.667 43 -39z" />
    <glyph glyph-name="e" unicode="e" horiz-adv-x="490" 
d="M73 148l196 28c29.333 6 44 17.333 44 34v13c0 17.333 -6.33301 31.333 -19 42s-31.667 16 -57 16c-22 0 -47.333 -8.33301 -76 -25c-42 -24.667 -71.333 -60.667 -88 -108zM42 179c15.333 24 31.668 43.999 49.001 59.999s37 30 59 42c8 4.66699 25.5 10 52.5 16
s52.5 9 76.5 9c27.333 0 50.166 -4.33301 68.499 -13s27.5 -23 27.5 -43c0 -19.333 2.33301 -35.666 7 -48.999l8 -20c-0.666992 -1.33301 -1.33398 -2.83301 -2.00098 -4.5s-2.33398 -3.5 -5.00098 -5.5l-310 -54c8 -34 24.5 -60.333 49.5 -79s58.5 -28 100.5 -28
c20 0 44 2.66699 72 8s57.333 12.666 88 21.999c32 6.66699 51.667 10 59 10c4.66699 0 8.66699 -1.66699 12 -5c0.666992 -1.33301 1.33398 -2.33301 2.00098 -3c0 -3.33301 -4 -6.33301 -12 -9c-41.333 -15.333 -86 -27.833 -134 -37.5s-93 -14.5 -135 -14.5
c-49.333 0 -88.666 7.33301 -117.999 22c-32.667 16.667 -49 41.334 -49 74.001c0 27.333 11.333 61.333 34 102z" />
    <glyph glyph-name="f" unicode="f" horiz-adv-x="365" 
d="M96 288c-2 16 -3.33301 27.6631 -4 34.9961c-2.66699 22 -4 40 -4 54c0 98 24.667 172.333 74 223c34.667 35.333 75 55.333 121 60h7c11.333 0 20 -3.83301 26 -11.5s9 -16.167 9 -25.5c0 -5.33301 -1.5 -11.166 -4.5 -17.499s-5.5 -9.5 -7.5 -9.5
c-19.333 9.33301 -34.833 15.833 -46.5 19.5s-21.5 5.5 -29.5 5.5c-25.333 0 -44.333 -18.333 -57 -55c-16 -46 -24 -122.333 -24 -229l2 -49h15h13c22.667 0 39.5 0.5 50.5 1.5s23.833 3.16699 38.5 6.5c5.33301 0 10 -1.33301 14 -4
c1.33301 -0.666992 3 -2.33398 5 -5.00098c0 -4.66699 -4 -9.66699 -12 -15c-4.66699 -3.33301 -11 -6.16602 -19 -8.49902s-24.833 -5.16602 -50.5 -8.49902s-46.5 -5 -62.5 -5c-2 -7.33301 -3.83301 -49.166 -5.5 -125.499s-3.16699 -152.833 -4.5 -229.5s-3 -118 -5 -124
c-4 -14 -11.667 -21 -23 -21l-16 4c-4 2 -6 30 -6 84c0 60.667 0.5 118.334 1.5 173.001s2.5 119.667 4.5 195v34c-12 0 -22.5 0.5 -31.5 1.5s-17.833 3.33301 -26.5 7s-14.667 6.5 -18 8.5c-10.667 6.66699 -16 14 -16 22c0 3.33301 2.66699 9 8 17
c2 0.666992 4.5 1.16699 7.5 1.5s6.16699 0.5 9.5 0.5c12 0 24.667 -1 38 -3s23 -4.33301 29 -7z" />
    <glyph glyph-name="g" unicode="g" horiz-adv-x="480" 
d="M388 140l-0.00195312 61.9971c0 18.667 -15.167 33.834 -45.5 45.501s-65.166 17.5 -104.499 17.5c-26 0 -50.167 -2.83301 -72.5 -8.5s-38.5 -13.5 -48.5 -23.5c-32 -33.333 -48 -65.333 -48 -96c0 -27.333 12.167 -50.666 36.5 -69.999s53.833 -29 88.5 -29
c8.66699 0 18.834 1.33301 30.501 4s20.167 4.66699 25.5 6c26.667 4.66699 50.667 13.334 72 26.001c26.667 16 48.667 38 66 66zM387.998 249.997l37.001 23.998c14 9.33301 22.333 14 25 14v-113c0 -132 -13.333 -228.667 -40 -290
c-34.667 -78.667 -98.334 -127.667 -191.001 -147h-25c-40.667 0 -79.667 11.5 -117 34.5s-56 48.167 -56 75.5c0 10.667 4 21 12 31c2 2 7 8.66699 15 20c6 8.66699 11 13 15 13l8 -2l-2 -12c0 -37.333 15.667 -68.666 47 -93.999c29.333 -23.333 63.666 -35 102.999 -35
c33.333 0 63 8.66699 89 26c28.667 19.333 47.667 47.333 57 84c1.33301 4.66699 4.33301 20 9 46c9.33301 53.333 14 98.333 14 135v34c-32 -26.667 -73.667 -50.667 -125 -72s-98.666 -32 -141.999 -32c-32 0 -57.667 6.66699 -77 20c-22.667 15.333 -34 38.333 -34 69
l-2 6c0 52 25.5 101.5 76.5 148.5s106.833 70.5 167.5 70.5c25.333 0 49.333 -4.16699 72 -12.5s44 -22.166 64 -41.499z" />
    <glyph glyph-name="h" unicode="h" horiz-adv-x="480" 
d="M17 2l-2.00293 75.001c0 39.333 1.33301 101.333 4 186s4 145.667 4 183c0 38 -1 73.167 -3 105.5s-5.33301 60.833 -10 85.5c2.66699 6 10.334 9 23.001 9c14.667 0 28.5 -3.66699 41.5 -11s19.5 -17 19.5 -29c-15.333 -310.667 -23 -486.334 -23 -527.001
c34 66.667 55.333 106.667 64 120c29.333 44 65 76.333 107 97c20 6.66699 35.333 10 46 10c19.333 0 34.333 -8.83301 45 -26.5s19 -46.167 25 -85.5c0 -35.333 8 -77.666 24 -126.999c18.667 -58.667 38.667 -88 60 -88c2 0 3.33301 -0.666992 4 -2l2 -4
c0 -6.66699 -10.167 -16.667 -30.5 -30s-35.833 -20 -46.5 -20l-6 2c-13.333 10 -27.666 45.667 -42.999 107c-10.667 42 -19.334 85.667 -26.001 131c-3.33301 20.667 -10 41 -20 61c-12 24 -23.333 36 -34 36l-7 -2c-31.333 -14.667 -60 -42 -86 -82
c-7.33301 -12 -25.666 -47 -54.999 -105c-4.66699 -9.33301 -9.5 -23.5 -14.5 -42.5s-10.5 -32.833 -16.5 -41.5c-16.667 3.33301 -27.167 6.16602 -31.5 8.49902s-9.16602 4.5 -14.499 6.5z" />
    <glyph glyph-name="i" unicode="i" horiz-adv-x="115" 
d="M2 312l-2.00195 4.99805c0 6.66699 3.33301 10 10 10c8.66699 0 20.334 -3.66699 35.001 -11c6.66699 -3.33301 18 -10 34 -20c1.33301 -1.33301 2.33301 -7 3 -17s1 -19.667 1 -29c0 -16.667 -1 -49 -3 -97s-3 -81.667 -3 -101l2 -35l2 -15
c0 -7.33301 -3.33301 -12.333 -10 -15l-11 -2c-7.33301 0 -15 2 -23 6s-12 7.66699 -12 11c-1.33301 5.33301 -2.16602 20.5 -2.49902 45.5s-0.5 46.833 -0.5 65.5c0 64.667 -1 112.834 -3 144.501s-7.66699 49.834 -17 54.501zM16.998 528.998l10.002 -0.000976562
c9.33301 0 20.666 -3.66699 33.999 -11c4 -2 10 -6 18 -12v-94c-2.66699 -2.66699 -7.33398 -4 -14.001 -4c-9.33301 0 -18.333 2.33301 -27 7s-13 11.334 -13 20.001z" />
    <glyph glyph-name="j" unicode="j" horiz-adv-x="240" 
d="M104 319c0 5.33301 5.66602 8.00391 16.999 8.00391c14.667 0 32.167 -3.83301 52.5 -11.5s30.5 -14.167 30.5 -19.5c0.666992 -2.66699 1.16699 -7.83398 1.5 -15.501s0.5 -15.167 0.5 -22.5c0 -62 -9.33301 -144.333 -28 -247c-20.667 -114 -42.667 -188.667 -66 -224
c-7.33301 -12.667 -16.666 -23.334 -27.999 -32.001c-15.333 -12 -30.666 -18 -45.999 -18l-19 1c-12.667 0 -19 6.66699 -19 20c0 7.33301 4.66699 14.5 14 21.5s22.666 10.5 39.999 10.5l27 -3c16 10 28.333 30.333 37 61c6 22 9 42.667 9 62
c10 95.333 15 174.666 15 237.999c0 53.333 -4 93.666 -12 120.999zM203.999 506.004l0.00195312 -86.998c0 -8.66699 -4.66699 -13 -14 -13c-8 0 -17.333 3.33301 -28 10s-17.334 13 -20.001 19c0 11.333 -1.16699 26.666 -3.5 45.999s-3.5 32.666 -3.5 39.999
c2 6.66699 7 10 15 10c7.33301 0 16.666 -2.83301 27.999 -8.5s20 -11.167 26 -16.5z" />
    <glyph glyph-name="k" unicode="k" horiz-adv-x="461" 
d="M63 110c48.667 14.667 97.334 43.6641 146.001 86.9971l141 145c4.66699 0 9.33398 -6 14.001 -18s7 -23.333 7 -34c0 -9.33301 -2 -15 -6 -17c-10.667 -18 -30.334 -37.667 -59.001 -59c-23.333 -16.667 -54.666 -36 -93.999 -58
c9.33301 -13.333 29.333 -32.666 60 -57.999c21.333 -18 34.666 -29.667 39.999 -35c14.667 -14.667 31.167 -27.5 49.5 -38.5s35.5 -16.5 51.5 -16.5l14 2v-6c0 -10.667 -6.33301 -23 -19 -37s-24.334 -21 -35.001 -21l-8 2c-19.333 12.667 -56.333 39.667 -111 81
c-64 48.667 -99.333 78 -106 88l-85 -38c0 -11.333 1.33301 -27.666 4 -48.999s4 -35.666 4 -42.999c-2.66699 -1.33301 -7.66699 -2 -15 -2c-9.33301 0 -17.5 2 -24.5 6s-11.833 10.333 -14.5 19l4 294c0 84.667 -1.5 151.167 -4.5 199.5l-8.5 131.5l2 9l-2 2
c4 2.66699 7 4 9 4c12 0 26.667 -5.33301 44 -16s26 -22.667 26 -36v-8z" />
    <glyph glyph-name="l" unicode="l" horiz-adv-x="124" 
d="M17 187l0.000976562 216.999c0 56.667 -1.33301 103.667 -4 141c-3.33301 26 -6.33301 52 -9 78c0 4.66699 2 11.667 6 21c2.66699 2.66699 7 4 13 4c11.333 0 24.166 -3.66699 38.499 -11s22.833 -15.333 25.5 -24v-21c0 -33.333 -1.33301 -80.666 -4 -141.999
c-8 -183.333 -12 -296 -12 -338c0 -30 0.666992 -54 2 -72s3.33301 -33.333 6 -46c0 -6 -5.66699 -9 -17 -9c-8 0 -17.833 2 -29.5 6s-17.5 7 -17.5 9l2 2c-1.33301 12.667 -2.33301 22.5 -3 29.5s-1 16.5 -1 28.5c0 13.333 0.666992 37.333 2 72s2 53 2 55z" />
    <glyph glyph-name="m" unicode="m" horiz-adv-x="663" 
d="M4 10c4 44.667 6.5 84.167 7.5 118.5s1.5 58.166 1.5 71.499c0 25.333 -0.333008 43.833 -1 55.5s-1.33398 22.5 -2.00098 32.5l2 16c3.33301 0.666992 7.5 1.16699 12.5 1.5s8.5 0.5 10.5 0.5c15.333 0 26.166 -4.66699 32.499 -14s9.5 -22.666 9.5 -39.999
c0 -18.667 -3 -42.5 -9 -71.5l-18 -86.5c42 53.333 64.333 81.333 67 84c33.333 38.667 60.333 65.334 81 80.001c27.333 15.333 48 23 62 23c14.667 0 24.667 -8.33301 30 -25s8 -40.334 8 -71.001v-98c22 46 52.667 90.333 92 133c44.667 48 82 72 112 72
c14 0 26.333 -5.33301 37 -16s18.334 -27.667 23.001 -51c6 -43.333 11.667 -80.333 17 -111c10.667 -59.333 22.667 -89 36 -89c3.33301 -0.666992 6.33301 -3 9 -7l3 -6c0 -7.33301 -8.16699 -16 -24.5 -26s-29.833 -15 -40.5 -15c-8.66699 0 -14 2.66699 -16 8
c-6 18.667 -16 60 -30 124c-19.333 86.667 -37.333 130 -54 130c-34 0 -71.667 -32.667 -113 -98c-31.333 -48.667 -53.333 -93 -66 -133c-2 -1.33301 -4 -2.33301 -6 -3s-4 -1 -6 -1c-7.33301 0 -15.166 3 -23.499 9s-12.5 12.667 -12.5 20l2 6c10 65.333 15 110 15 134
c0 38.667 -10.333 58 -31 58h-6c-30 0 -63.667 -27.333 -101 -82c-26 -38.667 -50 -83 -72 -133c0 -4 -2.33301 -7 -7 -9s-10 -3 -16 -3c-11.333 0 -17 2.66699 -17 8z" />
    <glyph glyph-name="n" unicode="n" horiz-adv-x="441" 
d="M6 296l-5.99707 14.001c0 4.66699 4.33301 7 13 7c9.33301 0 20.166 -2.33301 32.499 -7s19.5 -9.33398 21.5 -14.001c4 0 6 -8.33301 6 -25c0 -15.333 -2 -37 -6 -65c-10 -70 -15 -109.667 -15 -119c40.667 84.667 84.667 144 132 178c28.667 20.667 57.667 31 87 31h16
c26 0 47 -42.333 63 -127s30 -130 42 -136c9.33301 -4 14 -9.33301 14 -16c0 -6 -8.16699 -12.833 -24.5 -20.5s-30.833 -11.5 -43.5 -11.5c-10 0 -15 3 -15 9c-12.667 60 -19.334 92.333 -20.001 97c-10.667 48 -19.334 82.333 -26.001 103
c-11.333 37.333 -28.666 56 -51.999 56c-26.667 0 -57.167 -24 -91.5 -72s-61.5 -101.667 -81.5 -161c-2.66699 -6 -9 -9 -19 -9c-6.66699 0 -12.834 1.66699 -18.501 5s-8.5 7.33301 -8.5 12l2 210v29v19c-1.33301 6.66699 -2 11 -2 13z" />
    <glyph glyph-name="o" unicode="o" horiz-adv-x="461" 
d="M352 179c-10.667 28.667 -27.667 49.832 -51 63.499s-48.666 20.5 -75.999 20.5s-53.833 -5 -79.5 -15s-42 -20.333 -49 -31s-12.667 -22 -17 -34s-6.5 -23 -6.5 -33c0 -33.333 14.167 -62.166 42.5 -86.499s62.166 -36.5 101.499 -36.5c4.66699 0 11 0.666992 19 2l24 4
c28 5.33301 51.333 18.333 70 39s28 44 28 70c0 12.667 -2 25 -6 37zM244 303.998c38.667 0 75 -7.33398 109 -22.001c49.333 -21.333 74 -52.666 74 -93.999c0 -24 -9.5 -51.833 -28.5 -83.5s-46.667 -58 -83 -79s-70.5 -31.5 -102.5 -31.5l-46 -2c-46 0 -82.667 7 -110 21
c-35.333 18 -53 47.667 -53 89c0 42.667 13.667 82 41 118c42.667 56 109 84 199 84z" />
    <glyph glyph-name="p" unicode="p" horiz-adv-x="480" 
d="M17 304c2 11.333 7.99609 16.9971 17.9961 16.9971c6.66699 0 14.5 -2.33301 23.5 -7s18.5 -10.667 28.5 -18c1.33301 -2 2.5 -4.83301 3.5 -8.5s1.5 -7.16699 1.5 -10.5l-5 -52c20.667 18 43.834 34.833 69.501 50.5s49.167 27.834 70.5 36.501
c17.333 4 33.166 6.83301 47.499 8.5s28.5 2.5 42.5 2.5c26.667 0 50.5 -3.66699 71.5 -11s37.167 -20.333 48.5 -39c6 -18 9 -34.667 9 -50c0 -46.667 -23.667 -95.667 -71 -147c-44.667 -48 -86.334 -75.333 -125.001 -82c-11.333 -2.66699 -21.666 -4.5 -30.999 -5.5
s-20 -1.5 -32 -1.5c-29.333 0 -52.666 6.33301 -69.999 19c-14 10 -21 20.667 -21 32c0 6.66699 2.66699 10 8 10h6c10.667 -5.33301 27.334 -10.5 50.001 -15.5s45 -7.5 67 -7.5c13.333 0 26.833 1.33301 40.5 4s25.834 6.33398 36.501 11.001
c17.333 12 31.5 30.333 42.5 55s16.5 50 16.5 76c0 30.667 -7.66699 55.667 -23 75c-17.333 22 -43 33 -77 33c-22.667 0 -47.667 -4.66699 -75 -14c-50.667 -19.333 -84.667 -68.666 -102 -147.999c-11.333 -51.333 -17 -127 -17 -227l-2 -13v-39v-14v-13v-49
c-2 -11.333 -3.33301 -19.333 -4 -24c-3.33301 -3.33301 -5.66602 -5 -6.99902 -5c-7.33301 0 -16.833 4.83301 -28.5 14.5s-17.5 17.5 -17.5 23.5c0 11.333 0.666992 26 2 44c4.66699 63.333 7 147.333 7 252z" />
    <glyph glyph-name="q" unicode="q" horiz-adv-x="470" 
d="M358 225c-36.667 37.333 -75.333 56 -116 56c-45.333 0 -83.833 -17.667 -115.5 -53s-47.5 -72.333 -47.5 -111c0 -30.667 10.333 -53.667 31 -69c16.667 -16.667 41 -25 73 -25c28 0 58.667 6.5 92 19.5s61 30.167 83 51.5v131zM404.001 -246l-17 0.00390625
c-10.667 0 -19.834 2.16699 -27.501 6.5s-11.5 9.16602 -11.5 14.499l2 4l-2 40c0 20 1 45 3 75c4.66699 70 7 113 7 129v40c-16.667 -20 -47.667 -37.333 -93 -52c-34.667 -11.333 -58.334 -17 -71.001 -17c-9.33301 -0.666992 -20.166 -1.16699 -32.499 -1.5
s-21.166 -0.5 -26.499 -0.5c-32.667 0 -58.334 4 -77.001 12c-24 10 -40 27.333 -48 52c-1.33301 5.33301 -2.66602 11.166 -3.99902 17.499s-2 10.166 -2 11.499c0 49.333 25.833 97.666 77.5 144.999s105.167 74.666 160.5 81.999h16c20.667 0 40.667 -6 60 -18
c15.333 -9.33301 31 -24 47 -44v38c2 5.33301 8 8 18 8c10.667 0 22 -3.16699 34 -9.5s18 -13.5 18 -21.5c0 -52 -2.66699 -110.333 -8 -175c0 -1.33301 -5.33301 -57.666 -16 -168.999c-6 -63.333 -9 -106.333 -9 -129z" />
    <glyph glyph-name="r" unicode="r" horiz-adv-x="355" 
d="M8 25l4.00293 104.001c0 20 -0.5 40.5 -1.5 61.5s-1.83301 43.5 -2.5 67.5c0 25.333 3.66699 38 11 38h18c26.667 0 40 -12.667 40 -38c0 -1.33301 -5 -30 -15 -86c-5.33301 -30 -8 -56 -8 -78c12 24.667 29 51 51 79l74 92l-2 6c0 12 5.66699 26.167 17 42.5
s22.333 24.5 33 24.5c5.33301 0 9.66602 -1 12.999 -3c5.33301 -50.667 15.666 -84.667 30.999 -102l46 -23c-2 -6.66699 -7 -12 -15 -16s-16.333 -6 -25 -6c-18 0 -36.333 5.16699 -55 15.5s-30.334 22.5 -35.001 36.5c-6.66699 -10.667 -24.667 -36.334 -54 -77.001
c-42 -58 -68.333 -111.667 -79 -161l-14 -2c-7.33301 0 -14.833 2.16699 -22.5 6.5s-11.5 8.5 -11.5 12.5z" />
    <glyph glyph-name="s" unicode="s" horiz-adv-x="393" 
d="M90 217c1.33301 -12.667 47.002 -23.335 137.002 -32.002s135 -30 135 -64v-11c-5.33301 -39.333 -31 -70.333 -77 -93c-39.333 -19.333 -85 -29 -137 -29c-38.667 0 -72 5.5 -100 16.5s-42 25.5 -42 43.5c0 15.333 3.66699 23 11 23c28.667 -13.333 58 -25.333 88 -36
s59.667 -16 89 -16c6.66699 0 13 0.333008 19 1c15.333 2.66699 26.333 4.33398 33 5.00098c12 2.66699 21.5 9.16699 28.5 19.5s10.5 21.833 10.5 34.5c0 15.333 -4.33301 28.666 -13 39.999c-10.667 14 -24.334 21 -41.001 21l-48 -2c-44.667 0 -80.667 3.66699 -108 11
c-40 10.667 -60 28.334 -60 53.001c0 16.667 9.66699 37.667 29 63c26 20.667 55 34.834 87 42.501s66 11.5 102 11.5c18.667 0 35.5 -0.833008 50.5 -2.5l39.5 -4.5c8 -2 14.5 -8.33301 19.5 -19s7.5 -20.667 7.5 -30c0 -10 -3.33301 -15 -10 -15l-2 2
c-17.333 12.667 -38.833 22.167 -64.5 28.5s-50.834 9.5 -75.501 9.5c-30.667 0 -57.167 -5.16699 -79.5 -15.5s-33.5 -22.833 -33.5 -37.5z" />
    <glyph glyph-name="t" unicode="t" horiz-adv-x="326" 
d="M156 281l7 -2.00293c12 0 22.667 0.333008 32 1c46 3.33301 69.333 5 70 5c6 0 10.667 -0.333008 14 -1s6.33301 -1.66699 9 -3c-3.33301 -12 -15 -20.167 -35 -24.5s-55 -6.5 -105 -6.5v-256c0 -4.66699 -7 -7 -21 -7c-9.33301 0 -18.333 1.5 -27 4.5s-13 6.5 -13 10.5
c0 9.33301 2.5 50.833 7.5 124.5s7.5 114.834 7.5 123.501h-25l-29 -2c-14.667 0 -25.667 2.33301 -33 7c-10 6.66699 -15 17.334 -15 32.001l2 9l6 2c2.66699 0 9 -1.33301 19 -4c22 -6 38.667 -9 50 -9l25 3l2 37c0 18.667 -1.16699 41.834 -3.5 69.501
s-4.5 56.5 -6.5 86.5c4 4 9.33301 6 16 6c6 0 13.167 -2.5 21.5 -7.5l24.5 -14.5c3.33301 -1.33301 6 -5 8 -11s3 -13 3 -21c0 -8.66699 -1.33301 -22.667 -4 -42c-6 -44 -9 -73.667 -9 -89z" />
    <glyph glyph-name="u" unicode="u" horiz-adv-x="441" 
d="M6 171c0.666992 4.66699 3.33496 28.335 8.00195 71.002c1.33301 12.667 3.66602 30.667 6.99902 54c2.66699 2.66699 6.66699 4 12 4c8.66699 0 19.667 -4.33301 33 -13s21.333 -16 24 -22c-6.66699 -19.333 -13.334 -42 -20.001 -68c-9.33301 -38 -14 -68.333 -14 -91
c0 -16 2.16699 -29.167 6.5 -39.5s11.166 -16.5 20.499 -18.5c7.33301 -2.66699 13 -4 17 -4c34 0 71 24.333 111 73c37.333 44.667 62 89 74 133c2 7.33301 8 13 18 17s21.667 6 35 6l-1 -33c0 -50.667 5.83301 -99.167 17.5 -145.5s21.834 -69.5 30.501 -69.5
c6.66699 -0.666992 12 -3 16 -7c1.33301 -1.33301 3 -3.33301 5 -6c0 -4.66699 -6.66699 -10.667 -20 -18s-31.666 -15 -54.999 -23c-6.66699 9.33301 -14.334 34.666 -23.001 75.999c-16.667 82.667 -27 124 -31 124c-20.667 -38.667 -50.667 -75.667 -90 -111
c-46 -41.333 -86 -62 -120 -62c-10.667 0 -20.5 2.16699 -29.5 6.5s-17.167 11.166 -24.5 20.499c-8.66699 14.667 -13 35.667 -13 63c0 10.667 1 26 3 46s3 32.333 3 37z" />
    <glyph glyph-name="v" unicode="v" horiz-adv-x="432" 
d="M158 -29l-89 201.998c-16 35.333 -28.333 60 -37 74c-4.66699 8 -14 19.333 -28 34l-4 7c0 2.66699 3 4.66699 9 6s14 2 24 2c14 0 25 -0.5 33 -1.5s15.333 -3.16699 22 -6.5c8.66699 -2.66699 28.5 -45.5 59.5 -128.5s49.833 -127.833 56.5 -134.5
c28 16.667 58.333 57.834 91 123.501s49 116.834 49 153.501v17c2 5.33301 5.33301 8 10 8c7.33301 0 16.833 -11 28.5 -33s17.5 -40.667 17.5 -56l-2 -13c-17.333 -39.333 -56.5 -91.5 -117.5 -156.5s-100.5 -97.5 -118.5 -97.5h-4z" />
    <glyph glyph-name="w" unicode="w" horiz-adv-x="682" 
d="M113 71c-18.667 66 -39 119.335 -61 160.002l-52 77l6 11h21c44.667 0 74 -18.333 88 -55l75 -208c18 8.66699 39.333 34 64 76c0.666992 0.666992 20 36.667 58 108c20 37.333 34 56 42 56c5.33301 0 26.833 -40.833 64.5 -122.5s60.5 -123.5 68.5 -125.5l7 -2
c16.667 0 35 17.667 55 53c17.333 30 30 61.667 38 95c3.33301 18 5 33.333 5 46c0 11.333 -1.5 24.666 -4.5 39.999s-5.83301 31 -8.5 47c0 7.33301 2.66699 12.333 8 15c22 -4 38.333 -13.5 49 -28.5s16 -32.167 16 -51.5c0 -22.667 -5.33301 -46.834 -16 -72.501
s-22 -44.5 -34 -56.5c-16 -28 -40 -58.333 -72 -91c-35.333 -36.667 -62 -55 -80 -55h-4c-6.66699 2 -26 37.667 -58 107s-53.667 105.333 -65 108l-101 -160c-28 -42 -48 -63 -60 -63c-6.66699 6 -14.5 18.5 -23.5 37.5z" />
    <glyph glyph-name="x" unicode="x" horiz-adv-x="451" 
d="M377 327l4.00488 0.000976562c5.33301 0 11.5 -4.5 18.5 -13.5s10.5 -16.833 10.5 -23.5c-0.666992 -5.33301 -1.33398 -8.33301 -2.00098 -9c-31.333 -10.667 -62 -23.5 -92 -38.5s-58.333 -36.167 -85 -63.5c41.333 -51.333 78.666 -91.666 111.999 -120.999l72 -56
c0 -6.66699 -8.33301 -13.5 -25 -20.5s-31.334 -10.5 -44.001 -10.5c-18 0 -49.333 30 -94 90c-26.667 36 -47.334 60 -62.001 72c-10.667 -8 -36 -45.5 -76 -112.5s-63.333 -103.833 -70 -110.5c-0.666992 -0.666992 -3.66699 -1.33398 -9 -2.00098c-6 0 -13 4 -21 12
s-12 14.667 -12 20l4 8c16 24 50.333 67.333 103 130l66 78c-36.667 43.333 -83.667 83.333 -141 120c-20 12.667 -30 22.667 -30 30l2 6c3.33301 4.66699 14 7 32 7c17.333 0 35.166 -2.16699 53.499 -6.5s30.833 -9.83301 37.5 -16.5
c20.667 -20.667 36.667 -38.334 48 -53.001c14 -20 26 -36.333 36 -49c22 26 46.667 51 74 75c36.667 32 66.667 51.333 90 58z" />
    <glyph glyph-name="y" unicode="y" horiz-adv-x="490" 
d="M202 2c-25.333 46.667 -43.5 81.002 -54.5 103.002s-21.167 44 -30.5 66c-20 38 -40.667 68.333 -62 91l-47 44l2 6c18 7.33301 33.333 11 46 11c42.667 0 81.334 -36 116.001 -108c50.667 -104.667 76.667 -157.667 78 -159c13.333 13.333 33.333 38.666 60 75.999
c30 42.667 48 73 54 91l18 52c4 15.333 6 30 6 44v23l6 2c10 0 23.167 -7.5 39.5 -22.5s24.5 -27.167 24.5 -36.5v-4c-12.667 -34.667 -41.167 -76.5 -85.5 -125.5l-130.5 -143.5c-51.333 -59.333 -87.666 -114 -108.999 -164c16 2.66699 56.167 7.5 120.5 14.5
s106.166 10.5 125.499 10.5l17 -2l4 -8c0 -4 -52.667 -16 -158 -36c-63.333 -12 -115 -28 -155 -48h-8c-5.33301 0 -10.5 3.5 -15.5 10.5s-7.5 13.833 -7.5 20.5c6 20 27.333 51.667 64 95c51.333 59.333 78.666 91.666 81.999 96.999z" />
    <glyph glyph-name="z" unicode="z" horiz-adv-x="490" 
d="M90 304c66 6 119.996 9 161.996 9c46.667 0 82.667 -2.5 108 -7.5s41.333 -10.833 48 -17.5c7.33301 -5.33301 11 -15.333 11 -30c0 -8.66699 -2.33301 -17 -7 -25s-13.667 -15.667 -27 -23c-27.333 -15.333 -88.333 -47 -183 -95c-61.333 -31.333 -93.333 -51 -96 -59
l-2 -4c0 -8 15.167 -13.167 45.5 -15.5s70.166 -3.5 119.499 -3.5c24 0 52 1.16699 84 3.5s53.333 3.5 64 3.5c24.667 0 37 -2.33301 37 -7c0 -9.33301 -59 -22.333 -177 -39c-17.333 0 -52.333 -1.66699 -105 -5c-21.333 -1.33301 -39.666 -2 -54.999 -2
c-23.333 0 -43.666 1 -60.999 3s-31.666 6 -42.999 12c-1.33301 0.666992 -2.33301 1.33398 -3 2.00098c-5.33301 4.66699 -8 9 -8 13c0 6.66699 3.66699 12 11 16l75 45l135 85c26.667 11.333 53.334 29 80.001 53c21.333 19.333 32 35.666 32 48.999l-4 16
c-4.66699 2.66699 -12 4.5 -22 5.5s-17 1.5 -21 1.5c-29.333 0 -75.666 -8.5 -138.999 -25.5s-98.333 -25.5 -105 -25.5c-2 0 -3.5 0.333008 -4.5 1s-1.83301 1.33398 -2.5 2.00098l-2 4c0 9.33301 7.33301 21.666 22 36.999s25.667 23 33 23z" />
    <glyph glyph-name="braceleft" unicode="{" horiz-adv-x="249" 
d="M10 240c29.333 6.66699 50 21.6699 62 45.0029c10 19.333 15 46 15 80c0 12 -1 31.667 -3 59s-3 47.666 -3 60.999c0 45.333 8.33301 79 25 101c21.333 28.667 59 43 113 43v-23c-34 0 -58.333 -12.667 -73 -38c-11.333 -20 -17 -49 -17 -87l2 -104
c0 -38 -4.33301 -67 -13 -87c-11.333 -26.667 -32 -43.334 -62 -50.001c28.667 -5.33301 48.667 -21 60 -47c8.66699 -20.667 13 -50.334 13 -89.001l-2 -92c0 -41.333 5.66699 -72.333 17 -93c14.667 -26.667 39.667 -40 75 -40v-23c-54 0 -91.667 14.333 -113 43
c-16.667 22 -25 55.667 -25 101c0 12.667 0.666992 35.5 2 68.5s2 49.833 2 50.5c0 36 -4.33301 62.667 -13 80c-11.333 23.333 -32 37 -62 41z" />
    <glyph glyph-name="bar" unicode="|" horiz-adv-x="95" 
d="M63 644v-665h-53v665h53z" />
    <glyph glyph-name="braceright" unicode="}" horiz-adv-x="249" 
d="M167 240c-25.333 0 -42.5 11.5 -51.5 34.5s-13.5 53.833 -13.5 92.5v87c0 47.333 -5.66699 82.666 -17 105.999c-14.667 30.667 -40.334 46 -77.001 46l-2 23h21c46.667 0 79.334 -15 98.001 -45c14 -22.667 21 -57.667 21 -105c0 -13.333 -0.666992 -36.666 -2 -69.999
s-2 -50.333 -2 -51c0 -32.667 5.5 -59.5 16.5 -80.5s29.167 -33.5 54.5 -37.5c-25.333 -3.33301 -42.833 -15.666 -52.5 -36.999s-14.5 -49.333 -14.5 -84l2 -100c0 -50.667 -7.66699 -88.334 -23 -113.001c-20.667 -33.333 -58 -50 -112 -50v23c34 0 58.333 12.333 73 37
c12 20 18 48 18 84c0 12 -1 32.333 -3 61s-3 50 -3 64c0 32.667 4.33301 57.667 13 75c11.333 22.667 30 36 56 40z" />
    <glyph glyph-name="asciitilde" unicode="~" horiz-adv-x="509" 
d="M435 312l40.002 -38.999c-22 -30 -44 -51.833 -66 -65.5s-43.667 -20.5 -65 -20.5s-47.333 7 -78 21c-66.667 30.667 -108 46 -124 46c-16.667 0 -32.834 -5.16699 -48.501 -15.5s-30.834 -27.5 -45.501 -51.5l-38 38c21.333 29.333 42.333 50.166 63 62.499
s42 18.5 64 18.5c25.333 0 61 -11.333 107 -34s78.667 -34 98 -34c17.333 0 33.833 5.66699 49.5 17s30.167 30.333 43.5 57z" />
    <glyph glyph-name="c128" horiz-adv-x="336" 
d="M71 388l-15.002 202.002c0 11.333 3 20.666 9 27.999s13.333 11 22 11s15.834 -4.33301 21.501 -13s8.5 -22.334 8.5 -41.001l-15 -187c0 -8 -1.66699 -14.333 -5 -19s-6.66602 -7 -9.99902 -7c-10.667 0 -16 8.66699 -16 26zM201.998 388.002l-15 202
c0 10.667 2.83301 19.167 8.5 25.5s12.167 9.5 19.5 9.5c9.33301 0 17.5 -4.16699 24.5 -12.5s10.5 -20.833 10.5 -37.5l-17 -187c0 -8.66699 -2.16699 -15.167 -6.5 -19.5s-7.5 -6.5 -9.5 -6.5c-8 0 -13 8.66699 -15 26z" />
    <glyph glyph-name="c129" horiz-adv-x="336" 
d="M71 388l-15.002 202.002c0 11.333 3 20.666 9 27.999s13.333 11 22 11s15.834 -4.33301 21.501 -13s8.5 -22.334 8.5 -41.001l-15 -187c0 -8 -1.66699 -14.333 -5 -19s-6.66602 -7 -9.99902 -7c-10.667 0 -16 8.66699 -16 26zM201.998 388.002l-15 202
c0 10.667 2.83301 19.167 8.5 25.5s12.167 9.5 19.5 9.5c9.33301 0 17.5 -4.16699 24.5 -12.5s10.5 -20.833 10.5 -37.5l-17 -187c0 -8.66699 -2.16699 -15.167 -6.5 -19.5s-7.5 -6.5 -9.5 -6.5c-8 0 -13 8.66699 -15 26z" />
    <glyph glyph-name="c157" horiz-adv-x="518" 
d="M365 125c1.33301 4 1.99707 12.333 1.99707 25c0 9.33301 -0.666992 20.166 -2 32.499s-3.66602 29.166 -6.99902 50.499c-12 18 -26.667 31.167 -44 39.5s-35.333 12.5 -54 12.5c-24.667 0 -49 -5.33301 -73 -16s-42 -22.667 -54 -36
c-15.333 -15.333 -27.833 -33.666 -37.5 -54.999s-14.5 -43 -14.5 -65c0 -4.66699 0.833008 -10.667 2.5 -18s2.83398 -12.666 3.50098 -15.999c5.33301 -14.667 16 -26 32 -34s34.667 -12 56 -12c33.333 0 67 7.66699 101 23c38.667 17.333 68.334 40.333 89.001 69z
M364.997 273c11.333 0 21.5029 0.500977 30.5029 1.50098s16.833 3.16699 23.5 6.5c3.33301 -50.667 7.33301 -96.334 12 -137.001c10 -80.667 26 -121 48 -121l4 2l4 -8c0 -6 -10 -12.833 -30 -20.5s-35.667 -11.5 -47 -11.5c-2 0 -3.5 0.333008 -4.5 1s-2.83301 3 -5.5 7
s-6.66699 22 -12 54s-10.333 50.333 -15 55c-16 -30 -51.667 -54.667 -107 -74c-49.333 -17.333 -99 -26 -149 -26c-12.667 0 -23.334 0.666992 -32.001 2s-18.334 3.33301 -29.001 6c-37.333 13.333 -56 37 -56 71c0 48 30.833 99.333 92.5 154s121.167 82 178.5 82
c18.667 0 36.167 -3.5 52.5 -10.5s30.166 -18.167 41.499 -33.5zM250 465.001c5.33301 5.33301 13.3311 21.335 23.998 48.002c8.66699 20.667 18.667 31 30 31c4.66699 0 10 -4.83301 16 -14.5s9 -18.834 9 -27.501l-2 -14c-28.667 -42.667 -56.667 -74.334 -84 -95.001
c-21.333 -16 -39.666 -24 -54.999 -24l-9 4l-6 6l42 39.5c14.667 13.667 26.334 29.167 35.001 46.5z" />
    <glyph glyph-name="nonbreakingspace" unicode="&#xa0;" horiz-adv-x="500" 
 />
    <glyph glyph-name="exclamdown" unicode="&#xa1;" horiz-adv-x="740" 
d="M312 10c-4 7.33301 -28.335 64.6699 -73.002 172.003c-46.667 113.333 -86.667 202.666 -120 267.999c-48 94 -84.333 143.333 -109 148l-4 8c0 10 13.333 15 40 15c14.667 0 31.667 -1.66699 51 -5s31.333 -6.66602 36 -9.99902
c17.333 -8.66699 38.666 -42.667 63.999 -102c8.66699 -21.333 33.667 -88.333 75 -201c32.667 -90.667 63.667 -168 93 -232c72.667 86 133.5 178.333 182.5 277s73.5 180.667 73.5 246c0 14.667 -0.5 25.667 -1.5 33s-3.16699 15.666 -6.5 24.999l-1 4
c8.66699 1.33301 26.834 -12.834 54.501 -42.501s41.5 -52.834 41.5 -69.501l-2 -7c-76 -145.333 -152.667 -271 -230 -377c-36.667 -50 -87 -111 -151 -183c-36 -40 -54 -67.667 -54 -83c1.33301 -1.33301 4 -2 8 -2h13c20.667 0 69.834 5.5 147.501 16.5
s126.834 16.5 147.501 16.5c2.66699 0 4.66699 -0.5 6 -1.5s2.33301 -1.83301 3 -2.5c0 -4 -3.16699 -9 -9.5 -15s-15.166 -10 -26.499 -12l-358 -84l-17 -2c-8.66699 0 -16.334 2 -23.001 6s-10 10.333 -10 19l4 15l127 124c19.333 20 29 32.667 29 38zM518.998 671.004
c-48 -7.33301 -93.999 -13 -137.999 -17s-94 -6 -150 -6l-14 -2c-34.667 0 -63 11.667 -85 35c-17.333 18.667 -26 36 -26 52l2 7c2.66699 2.66699 7 4 13 4c45.333 -12 97.833 -22.333 157.5 -31s124.5 -13 194.5 -13l46 2c9.33301 0 21.666 1 36.999 3s25 3 29 3
c7.33301 0 11 -2 11 -6c0 -6.66699 -9.5 -13.5 -28.5 -20.5s-35.167 -10.5 -48.5 -10.5z" />
    <glyph glyph-name="cent" unicode="&#xa2;" horiz-adv-x="490" 
d="M202 2c-25.333 46.667 -43.5 81.002 -54.5 103.002s-21.167 44 -30.5 66c-20 38 -40.667 68.333 -62 91l-47 44l2 6c18 7.33301 33.333 11 46 11c42.667 0 81.334 -36 116.001 -108c50.667 -104.667 76.667 -157.667 78 -159c13.333 13.333 33.333 38.666 60 75.999
c30 42.667 48 73 54 91l18 52c4 15.333 6 30 6 44v23l6 2c10 0 23.167 -7.5 39.5 -22.5s24.5 -27.167 24.5 -36.5v-4c-12.667 -34.667 -41.167 -76.5 -85.5 -125.5l-130.5 -143.5c-51.333 -59.333 -87.666 -114 -108.999 -164c16 2.66699 56.167 7.5 120.5 14.5
s106.166 10.5 125.499 10.5l17 -2l4 -8c0 -4 -52.667 -16 -158 -36c-63.333 -12 -115 -28 -155 -48h-8c-5.33301 0 -10.5 3.5 -15.5 10.5s-7.5 13.833 -7.5 20.5c6 20 27.333 51.667 64 95c51.333 59.333 78.666 91.666 81.999 96.999zM346 408.002
c-26.667 -5.33301 -59.834 -9.66699 -99.501 -13s-73.167 -6 -100.5 -8l-9 -2c-24 0 -44 10.667 -60 32c-12.667 16.667 -19 32 -19 46l2 6c2.66699 2.66699 5.66699 4 9 4c32 -9.33301 68.833 -18 110.5 -26s85.167 -12 130.5 -12l36 2l44 3
c2.66699 0 4.66699 -0.333008 6 -1l4 -2c0 -6.66699 -6.66699 -13.167 -20 -19.5s-24.666 -9.5 -33.999 -9.5z" />
    <glyph glyph-name="sterling" unicode="&#xa3;" horiz-adv-x="240" 
d="M104 -87l83 66l1 -19l-67 -64l89 -90h-29l-73 71l-73 -79l-33 27l79 67l-79 75l35 20z" />
    <glyph glyph-name="yen" unicode="&#xa5;" horiz-adv-x="691" 
d="M506 556c-44 -7.33301 -89.5029 -13.0039 -136.503 -17.0039s-97.833 -6 -152.5 -6l-13 -2c-34 0 -62.333 11.667 -85 35c-18 18.667 -27 35.667 -27 51l2 8c2.66699 2.66699 7.33398 4 14.001 4c42.667 -12 93.167 -22.333 151.5 -31s122.5 -13 192.5 -13l46 2
c3.33301 3.33301 5.5 9.5 6.5 18.5s1.5 18.167 1.5 27.5c5.33301 2.66699 11 4 17 4c13.333 0 26.666 -5 39.999 -15s20 -21.667 20 -35c12 0 22.667 0.5 32 1.5l33 3.5c3.33301 0 6.66602 -1 9.99902 -3c0.666992 0 1.33398 -0.666992 2.00098 -2
c0 -6.66699 -9.66699 -13.5 -29 -20.5s-35.333 -10.5 -48 -10.5v-52c0 -73.333 -7 -141.666 -21 -204.999c-19.333 -88 -50.333 -157 -93 -207c-53.333 -62.667 -123.666 -94 -210.999 -94c-73.333 0 -125.666 4.66699 -156.999 14c-56 16.667 -89 50.334 -99 101.001l-2 22
c0 20.667 5.5 39.834 16.5 57.501s20.833 26.5 29.5 26.5c6.66699 0 10 -2 10 -6c-5.33301 -12 -8 -24.667 -8 -38c0 -35.333 14.667 -65.666 44 -90.999c36.667 -31.333 89.334 -47 158.001 -47l12 -2c78 0 138.833 33.333 182.5 100s65.5 166.667 65.5 300z
M349.997 757.996h10.001c9.33301 0 20.666 -3.66699 33.999 -11c4 -2 10 -6 18 -12v-95c-2 -2 -6.66699 -3 -14 -3c-9.33301 0 -18.333 2.33301 -27 7s-13 11 -13 19zM247.998 757.996h10.001c9.33301 0 20.666 -3.66699 33.999 -11c4 -2 10 -6 18 -12v-95
c-2 -2 -6.66699 -3 -14 -3c-9.33301 0 -18.333 2.33301 -27 7s-13 11 -13 19z" />
    <glyph glyph-name="section" unicode="&#xa7;" horiz-adv-x="432" 
d="M325 281c0 16 -12.667 32.833 -38 50.5s-51 26.5 -77 26.5c-44.667 0 -81.667 -13 -111 -39c-26 -23.333 -39 -50.333 -39 -81c0 -26.667 10.333 -49 31 -67c23.333 -20.667 55.333 -31 96 -31l13 -2c32.667 0 61 10 85 30c26.667 22 40 51.333 40 88v25zM348 567
c4 -17.333 6.00195 -34.0049 6.00195 -50.0049s-2.5 -28.667 -7.5 -38s-10.833 -14 -17.5 -14c-5.33301 0 -9.33301 2.66699 -12 8c0 32.667 -8.83301 59.5 -26.5 80.5s-40.167 31.5 -67.5 31.5c-14.667 0 -29.834 -3.16699 -45.501 -9.5s-31.167 -16.833 -46.5 -31.5
c-6 -8.66699 -10.5 -16.667 -13.5 -24s-4.5 -14 -4.5 -20c0 -19.333 11 -37.666 33 -54.999s56 -33.666 102 -48.999l95 -45c35.333 -20 53 -44.667 53 -74c0 -16 -5.66699 -36 -17 -60c-6 -14 -16.333 -27.333 -31 -40c-18.667 -16 -47 -33.333 -85 -52
c33.333 -6 59.666 -15.333 78.999 -28c24.667 -16 37 -36 37 -60c0 -18.667 -7.66699 -40.667 -23 -66c-18 -28 -46.833 -50 -86.5 -66s-80.834 -24 -123.501 -24c-40 0 -73.667 8.33301 -101 25s-41 40.334 -41 71.001c0 8.66699 1.5 18 4.5 28s7.83301 21.667 14.5 35
c8.66699 5.33301 15.667 8 21 8c4.66699 0 8.16699 -10.667 10.5 -32s7.5 -39.166 15.5 -53.499s23.333 -26.166 46 -35.499s46.334 -14 71.001 -14c16.667 0 32.667 2.33301 48 7s27.333 11.334 36 20.001c12 10.667 20.833 22 26.5 34s8.5 24.667 8.5 38
c0 24 -9 45 -27 63s-38.667 27 -62 27c-64 0 -111.333 5.33301 -142 16c-50 17.333 -75 50.333 -75 99c0 8 1 16.667 3 26s3.66699 16.666 5 21.999c6.66699 26.667 25 49.667 55 69c6.66699 4.66699 37 20.334 91 47.001c-33.333 10 -58.666 23.167 -75.999 39.5
s-26 33.166 -26 50.499c0 33.333 21.667 65.333 65 96s87.666 46 132.999 46c21.333 0 40.5 -3.66699 57.5 -11s30.5 -19 40.5 -35z" />
    <glyph glyph-name="dieresis" unicode="&#xa8;" horiz-adv-x="788" 
d="M737 117c10 -4.66699 14.998 -9.66504 14.998 -14.998c0 -9.33301 -18.667 -21.5 -56 -36.5s-81 -28.5 -131 -40.5c-40 -13.333 -83 -23.333 -129 -30s-91.333 -10 -136 -10c-82.667 0 -150.667 11 -204 33c-58.667 24 -88 57 -88 99
c0 4.66699 -0.666992 12.334 -2 23.001s-2 19 -2 25c0 32 8 64.667 24 98c22 46 61.333 100.667 118 164c73.333 67.333 145.333 116.666 216 147.999c58 25.333 113.667 38 167 38c19.333 0 36.333 -1.16699 51 -3.5s29.334 -6 44.001 -11s28.834 -16.333 42.501 -34
s20.5 -30.834 20.5 -39.501c-0.666992 -2 -1.33398 -3.83301 -2.00098 -5.5s-2 -2.5 -4 -2.5l-8 4c-63.333 26 -124.333 39 -183 39c-60 0 -115.5 -13 -166.5 -39s-94.833 -62.333 -131.5 -109c-32.667 -44.667 -56.334 -80.667 -71.001 -108c-24 -44 -36 -82.667 -36 -116
c0 -14.667 2.5 -29.334 7.5 -44.001s12.5 -28.667 22.5 -42c20 -26 49.5 -45 88.5 -57s82.833 -18 131.5 -18c34.667 0 65.834 1.66699 93.501 5s57.834 8.66602 90.501 15.999c20.667 2.66699 49.667 10.334 87 23.001zM153.998 273.002v23c78 0 152.167 4 222.5 12
l210.5 25c16.667 0 25 -2 25 -6l1 -10c0 -9.33301 -5 -20.333 -15 -33s-18.333 -19 -25 -19c-5.33301 0 -16.333 -0.5 -33 -1.5s-26.667 -1.5 -30 -1.5c-48 0 -106.667 1.33301 -176 4zM332.998 785.002c0.666992 1.33301 1.33398 1.99902 2.00098 1.99902
c4.66699 3.33301 9 5 13 5c8.66699 0 18 -2.16699 28 -6.5s16 -9.83301 18 -16.5v-94c0 -6.66699 -4.33301 -10 -13 -10s-18.834 3.83301 -30.501 11.5s-17.5 14.834 -17.5 21.501v87zM472.998 785.001c1.33301 1.33301 2.33301 1.99805 3 1.99805c4 2 7 3 9 3
c10 0 20.833 -2.16699 32.5 -6.5s17.5 -9.16602 17.5 -14.499v-94c0 -8 -6 -12 -18 -12c-8.66699 0 -17.667 2.83301 -27 8.5s-15 11.834 -17 18.501v95z" />
    <glyph glyph-name="copyright" unicode="&#xa9;" horiz-adv-x="672" 
d="M25 412c7.33301 14 16.334 29.001 27.001 45.001l35 49c34 32.667 72.167 58.167 114.5 76.5s86.166 27.5 131.499 27.5c53.333 0 102.666 -13 147.999 -39c50.667 -28.667 92.334 -71.667 125.001 -129c22.667 -45.333 34 -92.666 34 -141.999
c0 -84 -32.167 -158.167 -96.5 -222.5s-139.833 -96.5 -226.5 -96.5c-26 0 -50.5 2.66699 -73.5 8s-47.167 14.666 -72.5 27.999c-45.333 24 -83.833 64 -115.5 120s-47.5 114.333 -47.5 175c0 31.333 5.66699 64.666 17 99.999zM475.001 163.001
c-8 -12 -22.667 -21.665 -44 -28.998s-45.666 -11 -72.999 -11c-55.333 0 -102.333 13.333 -141 40c-46 31.333 -69 75.666 -69 132.999c0 65.333 23 114.666 69 147.999c37.333 27.333 83.666 41 138.999 41c26 0 49.5 -3.33301 70.5 -10s34.5 -15 40.5 -25v-62h-17
c0 22.667 -11 40.334 -33 53.001s-48.333 19 -79 19c-28.667 0 -53 -6 -73 -18c-16.667 -9.33301 -31 -29 -43 -59s-18 -60.333 -18 -91c0 -28 5 -52.833 15 -74.5s25.333 -37.167 46 -46.5c12.667 -6 26.667 -11.333 42 -16s31.666 -7 48.999 -7
c25.333 0 46.333 5.33301 63 16c20.667 13.333 34.334 33.666 41.001 60.999h15v-62zM48.001 281.003c10 -47.333 23.6641 -86.332 40.9971 -116.999c8.66699 -14.667 20.667 -30.334 36 -47.001c21.333 -28 50.5 -51 87.5 -69s75.833 -27 116.5 -27
c34.667 0 68.834 7.33301 102.501 22s63.834 37.167 90.501 67.5s46 60.833 58 91.5s18 60.667 18 90c0 24.667 -3.66699 49 -11 73s-16.333 47.333 -27 70c-26.667 46 -60.667 80.5 -102 103.5s-85 34.5 -131 34.5c-73.333 0 -137.666 -26 -192.999 -78
c-58.667 -54.667 -88 -123.667 -88 -207z" />
    <glyph glyph-name="guillemotleft" unicode="&#xab;" horiz-adv-x="384" 
d="M348 296l-148 -125l140 -138l-30 -23l-164 169l179 140zM208 296l-146 -125l138 -138l-31 -23l-161 169l177 140z" />
    <glyph glyph-name="minus" unicode="&#xad;" horiz-adv-x="393" 
d="M46 194c8.66699 0 24.666 -0.666992 47.999 -2s36.333 -2 39 -2c20 0 54.667 0.666992 104 2s76 2 80 2c8 0 14.5 -3.5 19.5 -10.5s7.5 -13.833 7.5 -20.5c0 -10 -3.66699 -15 -11 -15c-29.333 -4.66699 -75.666 -7.16699 -138.999 -7.5s-107.333 -0.5 -132 -0.5
c-6.66699 0 -14.167 4.5 -22.5 13.5s-12.5 17.5 -12.5 25.5c0 10 6.33301 15 19 15z" />
    <glyph glyph-name="registered" unicode="&#xae;" horiz-adv-x="663" 
d="M8 373c6.66699 34.667 20.998 71 42.998 109c18.667 32 35 52.667 49 62c28.667 26.667 61.667 47.167 99 61.5s75 21.5 113 21.5c58 0 113 -15 165 -45s91.667 -71.333 119 -124c10.667 -22 18.834 -46 24.501 -72s8.5 -50.667 8.5 -74
c0 -87.333 -31.667 -163.333 -95 -228s-138 -97 -224 -97c-22.667 0 -45 2.33301 -67 7s-44 12.334 -66 23.001c-55.333 24 -98.666 62 -129.999 114s-47 108.333 -47 169c0 12.667 0.5 23.167 1.5 31.5s3.16699 22.166 6.5 41.499zM161.998 156l13 -1.99609
c16 0 27 5.33301 33 16s9 24 9 40v217c-4.66699 15.333 -8.66699 24.666 -12 27.999c-6.66699 6.66699 -21 10 -43 10v16l28 -2l100 2c39.333 0 69 -4 89 -12c26.667 -10.667 42 -29.667 46 -57l2 -22c0 -20.667 -4.66699 -39.334 -14 -56.001
c-12.667 -22.667 -31.667 -35.334 -57 -38.001c17.333 -30.667 36.666 -59.334 57.999 -86.001c24.667 -30 47 -50.667 67 -62v-15h-56c-7.33301 0 -20.666 13.333 -39.999 40l-75 108h-47l-1 -71c0 -19.333 2 -33.833 6 -43.5s12 -14.5 24 -14.5c1.33301 0 4 0.666992 8 2
s7.33301 2 10 2v-16h-148v16zM37.998 327.004l-1.00293 -27c0 -66 25 -125.667 75 -179c44 -46.667 94.333 -76 151 -88l30.5 -6.5c11 -2.33301 19.5 -3.5 25.5 -3.5c60.667 0 116.334 22.667 167.001 68s82.334 101 95.001 167c0.666992 7.33301 1.5 14.333 2.5 21
s1.5 15 1.5 25c0 73.333 -28.333 139 -85 197s-122 87 -196 87c-19.333 0 -36.666 -1.5 -51.999 -4.5s-32 -8.5 -50 -16.5c-44.667 -19.333 -83.167 -52.5 -115.5 -99.5s-48.5 -93.833 -48.5 -140.5zM262.995 304.004c43.333 0 71.333 3 84 9c21.333 10 32 32.667 32 68
c0 26 -5.66699 44.667 -17 56c-13.333 14 -37.333 21 -72 21h-27v-154z" />
    <glyph glyph-name="degree" unicode="&#xb0;" horiz-adv-x="316" 
d="M148 529l22.999 -0.000976562c43.333 0 73 -7.33301 89 -22c14 -12.667 21 -31.667 21 -57v-23c-4 -27.333 -24 -50.666 -60 -69.999c-32.667 -17.333 -68.667 -26 -108 -26c-27.333 0 -50.666 5.5 -69.999 16.5s-30.333 27.167 -33 48.5l-2 10
c0 27.333 11.667 53.333 35 78c28 30 63 45 105 45zM226.999 464.999c-8 13.333 -19.5 23.5 -34.5 30.5s-30.5 10.5 -46.5 10.5c-23.333 0 -44.166 -6.66699 -62.499 -20s-27.5 -30.333 -27.5 -51c3.33301 -20.667 13.166 -38 29.499 -52s35.833 -21 58.5 -21
c8 0 16.167 1 24.5 3s16.833 4.66699 25.5 8c10 2 19.667 9 29 21s14 25 14 39c0 5.33301 -0.833008 11 -2.5 17s-4.16699 11 -7.5 15z" />
    <glyph glyph-name="plusminus" unicode="&#xb1;" horiz-adv-x="499" 
d="M27 223l435 15v-36l-452 -4zM202 387c0.666992 0 1.33301 0.331055 2 0.998047c4 2.66699 7 4 9 4c10.667 0 21.667 -2.16699 33 -6.5s17 -9.16602 17 -14.499v-94c0 -8 -5.66699 -12 -17 -12c-8.66699 0 -17.667 2.83301 -27 8.5s-15 11.834 -17 18.501v95z
M199.999 149.998c0 4 4 5.99902 12 5.99902c9.33301 0 20 -2.5 32 -7.5s18 -9.5 18 -13.5v-95c0 -7.33301 -6 -11 -18 -11c-8 0 -16.833 2.83301 -26.5 8.5s-15.5 11.834 -17.5 18.501v94z" />
    <glyph glyph-name="twosuperior" unicode="&#xb2;" horiz-adv-x="153" 
d="M44 785c2 1.33301 3.66699 2.33203 5 2.99902c4.66699 2.66699 8.33398 4 11.001 4c8.66699 0 18 -2.16699 28 -6.5s16 -9.83301 18 -16.5v-94c0 -6.66699 -4.66699 -10 -14 -10c-8.66699 0 -18.834 3.83301 -30.501 11.5s-17.5 14.834 -17.5 21.501v87zM10 584.999
l-2 8.99902c0 12.667 4.33301 19 13 19c10 0 25 -7 45 -21c14.667 -10 29.334 -22 44.001 -36c3.33301 -8.66699 5 -37.667 5 -87c0 -22.667 -1.16699 -81.167 -3.5 -175.5s-3.5 -160.833 -3.5 -199.5l2 -63l2 -29c0 -4 -0.5 -8.66699 -1.5 -14s-4.5 -9.66602 -10.5 -12.999
c-2 -0.666992 -3.66699 -1 -5 -1s-4 -0.333008 -8 -1c-9.33301 0 -19.5 3.66699 -30.5 11s-16.5 13.333 -16.5 18c-2 17.333 -3 58.333 -3 123v98c0 78 -0.5 139.5 -1.5 184.5s-3.33301 84.5 -7 118.5s-9.83398 53.667 -18.501 59z" />
    <glyph glyph-name="threesuperior" unicode="&#xb3;" horiz-adv-x="115" 
d="M2 312l-2.00195 4.99805c0 6.66699 3.33301 10 10 10c8.66699 0 20.334 -3.66699 35.001 -11c6.66699 -3.33301 18 -10 34 -20c1.33301 -1.33301 2.33301 -7 3 -17s1 -19.667 1 -29c0 -16.667 -1 -49 -3 -97s-3 -81.667 -3 -101l2 -35l2 -15
c0 -7.33301 -3.33301 -12.333 -10 -15l-11 -2c-7.33301 0 -15 2 -23 6s-12 7.66699 -12 11c-1.33301 5.33301 -2.16602 20.5 -2.49902 45.5s-0.5 46.833 -0.5 65.5c0 64.667 -1 112.834 -3 144.501s-7.66699 49.834 -17 54.501zM16.998 528.998l10.002 -0.000976562
c9.33301 0 20.666 -3.66699 33.999 -11c4 -2 10 -6 18 -12v-94c-2.66699 -2.66699 -7.33398 -4 -14.001 -4c-9.33301 0 -18.333 2.33301 -27 7s-13 11.334 -13 20.001z" />
    <glyph glyph-name="paragraph" unicode="&#xb6;" horiz-adv-x="499" 
d="M215 202c-58.667 0 -108.168 18.167 -148.501 54.5s-60.5 82.833 -60.5 139.5l-2 14c0 54 9 96 27 126c30.667 51.333 86.334 77 167.001 77h265v-23c-26.667 0 -45.667 -2.33301 -57 -7c-20.667 -8.66699 -31 -25.334 -31 -50.001l2 -12v-550
c0 -20 10.333 -33.333 31 -40c12 -4 30.333 -6 55 -6v-31h-140v689h-54v-689h-140v31c25.333 0 43.333 1.66699 54 5c21.333 6.66699 32 20.334 32 41.001v231zM214.999 583c-51.333 0 -87 -15.999 -107 -47.999c-16.667 -26.667 -25 -70.334 -25 -131.001
c0 -37.333 6.33301 -68 19 -92c21.333 -40 59 -64 113 -72v343z" />
    <glyph glyph-name="cedilla" unicode="&#xb8;" horiz-adv-x="490" 
d="M73 148l196 28c29.333 6 44 17.333 44 34v13c0 17.333 -6.33301 31.333 -19 42s-31.667 16 -57 16c-22 0 -47.333 -8.33301 -76 -25c-42 -24.667 -71.333 -60.667 -88 -108zM42 179c15.333 24 31.668 43.999 49.001 59.999s37 30 59 42c8 4.66699 25.5 10 52.5 16
s52.5 9 76.5 9c27.333 0 50.166 -4.33301 68.499 -13s27.5 -23 27.5 -43c0 -19.333 2.33301 -35.666 7 -48.999l8 -20c-0.666992 -1.33301 -1.33398 -2.83301 -2.00098 -4.5s-2.33398 -3.5 -5.00098 -5.5l-310 -54c8 -34 24.5 -60.333 49.5 -79s58.5 -28 100.5 -28
c20 0 44 2.66699 72 8s57.333 12.666 88 21.999c32 6.66699 51.667 10 59 10c4.66699 0 8.66699 -1.66699 12 -5c0.666992 -1.33301 1.33398 -2.33301 2.00098 -3c0 -3.33301 -4 -6.33301 -12 -9c-41.333 -15.333 -86 -27.833 -134 -37.5s-93 -14.5 -135 -14.5
c-49.333 0 -88.666 7.33301 -117.999 22c-32.667 16.667 -49 41.334 -49 74.001c0 27.333 11.333 61.333 34 102zM112.002 512.999c0 5.33301 5.00098 7.99902 15.001 7.99902c8.66699 0 18 -2.16699 28 -6.5s16 -9.83301 18 -16.5v-94c0 -6.66699 -4.33301 -10 -13 -10
s-18.834 3.83301 -30.501 11.5s-17.5 14.834 -17.5 21.501v86zM252.003 512.998c0 4 3.66699 5.99805 11 5.99805c10.667 0 21.667 -2.16699 33 -6.5s17 -9.16602 17 -14.499v-94c0 -8 -5.66699 -12 -17 -12c-8.66699 0 -17.667 2.83301 -27 8.5s-15 11.834 -17 18.501v94z
" />
    <glyph glyph-name="ordmasculine" unicode="&#xba;" horiz-adv-x="413" 
d="M371 75c2 -0.666992 4.33203 -3 6.99902 -7l3 -6c0 -8.66699 -8.83301 -19 -26.5 -31s-30.834 -19 -39.501 -21c-25.333 -8 -54.666 -12 -87.999 -12c-54 0 -103.667 9 -149 27s-68 40.333 -68 67l-2 25c0 16.667 4.16699 34.667 12.5 54s24.5 41.666 48.5 66.999
c30.667 32.667 64.667 56.334 102 71.001c30 12 60.667 18 92 18c15.333 0 28.166 -0.833008 38.499 -2.5s21.5 -4.16699 33.5 -7.5c4 -2 9.5 -8.16699 16.5 -18.5s10.5 -17.5 10.5 -21.5l-4 -4l-2 2c-31.333 14 -60.333 21 -87 21c-28 0 -53.833 -6.83301 -77.5 -20.5
s-43.5 -32.334 -59.5 -56.001s-27.667 -44.167 -35 -61.5c-10.667 -24 -16 -45.333 -16 -64c0 -13.333 4.16699 -26.5 12.5 -39.5s20.833 -22.5 37.5 -28.5s34.667 -9 54 -9c16.667 0 34.667 1.66699 54 5c5.33301 0.666992 21.333 4.33398 48 11.001
c10.667 2.66699 27.334 13.334 50.001 32.001c10 8 17.667 12 23 12c6.66699 -0.666992 10.334 -1.33398 11.001 -2.00098zM111.999 144l-0.00195312 12c35.333 0 69.833 2 103.5 6s66.834 8.33301 99.501 13c4 0 6.83301 -0.166992 8.5 -0.5
s2.83398 -0.833008 3.50098 -1.5v-6c0 -5.33301 -2.5 -12 -7.5 -20s-8.83301 -12 -11.5 -12l-18 -2c-17.333 0 -42.333 1.16699 -75 3.5z" />
    <glyph glyph-name="guillemotright" unicode="&#xbb;" horiz-adv-x="384" 
d="M158 296l23 23l171 -163l-179 -139l-31 23l156 116zM19 296l23 23l171 -163l-178 -139l-31 23l154 116z" />
    <glyph glyph-name="questiondown" unicode="&#xbf;" horiz-adv-x="201" 
d="M50 312l-2.00195 4.99805c0 6.66699 3.33301 10 10 10c8.66699 0 20.334 -3.66699 35.001 -11c10 -5.33301 21.333 -12 34 -20c1.33301 -1.33301 2.33301 -7 3 -17s1 -19.667 1 -29c0 -16.667 -1 -49 -3 -97s-3 -81.667 -3 -101l2 -35l2 -15
c0 -7.33301 -3.33301 -12.333 -10 -15l-11 -2c-7.33301 0 -15 2 -23 6s-12 7.66699 -12 11c-1.33301 5.33301 -2.16602 20.5 -2.49902 45.5s-0.5 46.833 -0.5 65.5c0 64.667 -1 112.834 -3 144.501s-7.66699 49.834 -17 54.501zM103.998 528.998l8.99902 -0.000976562
c10.667 0 22.334 -3.66699 35.001 -11c4 -2 9.66699 -6 17 -12v-94c-2.66699 -2.66699 -7 -4 -13 -4c-9.33301 0 -18.333 2.33301 -27 7s-13 11.334 -13 20.001zM1.99707 528.997l10 -0.000976562c10 0 21.333 -3.66699 34 -11c4 -2 9.66699 -6 17 -12v-94
c-2.66699 -1.33301 -5 -2.33301 -7 -3s-4 -1 -6 -1c-9.33301 0 -18.333 2.33301 -27 7s-13 11.334 -13 20.001z" />
    <glyph glyph-name="Agrave" unicode="&#xc0;" horiz-adv-x="893" 
d="M515 498l-148 -258.001l210 10c19.333 0 33.5 -1.66699 42.5 -5s13.5 -6.66602 13.5 -9.99902c0 -4 -4.83301 -8 -14.5 -12s-20.834 -6 -33.501 -6l-241 -15c-28 -44.667 -56.333 -86.667 -85 -126c-38 -51.333 -72.333 -93 -103 -125
c-37.333 -38 -65.666 -57 -84.999 -57h-6c-15.333 2 -30 12 -44 30s-21 32.333 -21 43c0 5.33301 2 8 6 8c6 0 13 -4 21 -12c4.66699 -3.33301 10.334 -5 17.001 -5c28 0 69 26.667 123 80c49.333 48.667 93 103.334 131 164.001l-110 -8
c-22.667 0 -40.834 8.66699 -54.501 26s-20.5 33.666 -20.5 48.999c0 10.667 3.33301 16 10 16c7.33301 -2 11.333 -3.33301 12 -4c20 -16 42.333 -26.833 67 -32.5s67 -8.5 127 -8.5l169 281c-8 17.333 -19.667 31.666 -35 42.999c-18.667 14 -40.334 22.667 -65.001 26
c-5.33301 0 -9.83301 1 -13.5 3s-5.5 4.33301 -5.5 7c0 8.66699 11.333 13 34 13c26 0 49.5 -1.83301 70.5 -5.5s39.5 -9.5 55.5 -17.5s45 -54.333 87 -139l115 -239c44 -88.667 77 -140.667 99 -156c4.66699 -3.33301 9.33398 -7.66602 14.001 -12.999
c1.33301 -1.33301 3.33301 -4 6 -8c0 -5.33301 -16.667 -16.333 -50 -33c-2.66699 -1.33301 -8 -2 -16 -2c-16 0 -34.333 19 -55 57l-81 168c-45.333 94.667 -93 185.667 -143 273z" />
    <glyph glyph-name="Agrave" unicode="&#x410;" horiz-adv-x="893" 
d="M515 498l-148 -258.001l210 10c19.333 0 33.5 -1.66699 42.5 -5s13.5 -6.66602 13.5 -9.99902c0 -4 -4.83301 -8 -14.5 -12s-20.834 -6 -33.501 -6l-241 -15c-28 -44.667 -56.333 -86.667 -85 -126c-38 -51.333 -72.333 -93 -103 -125
c-37.333 -38 -65.666 -57 -84.999 -57h-6c-15.333 2 -30 12 -44 30s-21 32.333 -21 43c0 5.33301 2 8 6 8c6 0 13 -4 21 -12c4.66699 -3.33301 10.334 -5 17.001 -5c28 0 69 26.667 123 80c49.333 48.667 93 103.334 131 164.001l-110 -8
c-22.667 0 -40.834 8.66699 -54.501 26s-20.5 33.666 -20.5 48.999c0 10.667 3.33301 16 10 16c7.33301 -2 11.333 -3.33301 12 -4c20 -16 42.333 -26.833 67 -32.5s67 -8.5 127 -8.5l169 281c-8 17.333 -19.667 31.666 -35 42.999c-18.667 14 -40.334 22.667 -65.001 26
c-5.33301 0 -9.83301 1 -13.5 3s-5.5 4.33301 -5.5 7c0 8.66699 11.333 13 34 13c26 0 49.5 -1.83301 70.5 -5.5s39.5 -9.5 55.5 -17.5s45 -54.333 87 -139l115 -239c44 -88.667 77 -140.667 99 -156c4.66699 -3.33301 9.33398 -7.66602 14.001 -12.999
c1.33301 -1.33301 3.33301 -4 6 -8c0 -5.33301 -16.667 -16.333 -50 -33c-2.66699 -1.33301 -8 -2 -16 -2c-16 0 -34.333 19 -55 57l-81 168c-45.333 94.667 -93 185.667 -143 273z" />
    <glyph glyph-name="Aacute" unicode="&#xc1;" horiz-adv-x="691" 
d="M115 562l-19 1.00488c-4.66699 0 -18.334 -1.66699 -41.001 -5c-9.33301 -1.33301 -17.333 -2 -24 -2c-16.667 0 -25 8.33301 -25 25l2 13c0 4 13.333 6 40 6l67 -4l-4.5 16c-1.66699 6 -2.5 9.66699 -2.5 11c0 15.333 8.33301 23 25 23c14.667 0 29.5 -5.66699 44.5 -17
s22.5 -25.333 22.5 -42c24.667 3.33301 90.5 8 197.5 14s183.5 9 229.5 9h4c7.33301 0 11 -5.33301 11 -16c0 -12 -7.16699 -25.5 -21.5 -40.5s-30.833 -22.5 -49.5 -22.5l-6 2c-78.667 9.33301 -136.667 15.666 -174 18.999c-61.333 5.33301 -127 8 -197 8
c-4.66699 -33.333 -9.16699 -81.5 -13.5 -144.5l-13.5 -195c-4.66699 -67 -10.334 -124.5 -17.001 -172.5c62 -10 116.333 -15 163 -15c84.667 0 149.834 14.5 195.501 43.5s68.5 70.833 68.5 125.5v6c0 38 -20.333 66.667 -61 86c-35.333 16.667 -82.333 25 -141 25
c-23.333 0 -45.333 -0.833008 -66 -2.5s-50 -5.83398 -88 -12.501c-4 0 -7.66699 1.33301 -11 4c-6.66699 4.66699 -10 11 -10 19c0 5.33301 2.66699 10.5 8 15.5s12.333 7.5 21 7.5c5.33301 -2 11.333 -3.5 18 -4.5s11.667 -1.5 15 -1.5c15.333 0 42 2 80 6s61.333 6 70 6
h26c55.333 0 103.666 -10.333 144.999 -31c52.667 -26.667 79 -65 79 -115c0 -62.667 -51.333 -116 -154 -160c-93.333 -40 -196 -60 -308 -60c-45.333 0 -82.666 3.5 -111.999 10.5s-50.333 15.667 -63 26s-19 20.166 -19 29.499c0 3.33301 1.33301 6.66602 4 9.99902
s6.33398 5 11.001 5h6c14 -4.66699 26.167 -8.33398 36.5 -11.001s23.833 -4 40.5 -4c2.66699 30 5.16699 95.833 7.5 197.5s3.5 204.5 3.5 308.5z" />
    <glyph glyph-name="Aacute" unicode="&#x411;" horiz-adv-x="691" 
d="M115 562l-19 1.00488c-4.66699 0 -18.334 -1.66699 -41.001 -5c-9.33301 -1.33301 -17.333 -2 -24 -2c-16.667 0 -25 8.33301 -25 25l2 13c0 4 13.333 6 40 6l67 -4l-4.5 16c-1.66699 6 -2.5 9.66699 -2.5 11c0 15.333 8.33301 23 25 23c14.667 0 29.5 -5.66699 44.5 -17
s22.5 -25.333 22.5 -42c24.667 3.33301 90.5 8 197.5 14s183.5 9 229.5 9h4c7.33301 0 11 -5.33301 11 -16c0 -12 -7.16699 -25.5 -21.5 -40.5s-30.833 -22.5 -49.5 -22.5l-6 2c-78.667 9.33301 -136.667 15.666 -174 18.999c-61.333 5.33301 -127 8 -197 8
c-4.66699 -33.333 -9.16699 -81.5 -13.5 -144.5l-13.5 -195c-4.66699 -67 -10.334 -124.5 -17.001 -172.5c62 -10 116.333 -15 163 -15c84.667 0 149.834 14.5 195.501 43.5s68.5 70.833 68.5 125.5v6c0 38 -20.333 66.667 -61 86c-35.333 16.667 -82.333 25 -141 25
c-23.333 0 -45.333 -0.833008 -66 -2.5s-50 -5.83398 -88 -12.501c-4 0 -7.66699 1.33301 -11 4c-6.66699 4.66699 -10 11 -10 19c0 5.33301 2.66699 10.5 8 15.5s12.333 7.5 21 7.5c5.33301 -2 11.333 -3.5 18 -4.5s11.667 -1.5 15 -1.5c15.333 0 42 2 80 6s61.333 6 70 6
h26c55.333 0 103.666 -10.333 144.999 -31c52.667 -26.667 79 -65 79 -115c0 -62.667 -51.333 -116 -154 -160c-93.333 -40 -196 -60 -308 -60c-45.333 0 -82.666 3.5 -111.999 10.5s-50.333 15.667 -63 26s-19 20.166 -19 29.499c0 3.33301 1.33301 6.66602 4 9.99902
s6.33398 5 11.001 5h6c14 -4.66699 26.167 -8.33398 36.5 -11.001s23.833 -4 40.5 -4c2.66699 30 5.16699 95.833 7.5 197.5s3.5 204.5 3.5 308.5z" />
    <glyph glyph-name="Acircumflex" unicode="&#xc2;" horiz-adv-x="730" 
d="M158 567c-18 -4 -34.833 -8.8291 -50.5 -14.4961s-32.167 -13.5 -49.5 -23.5l-16.5 -6.5c-5.66699 -2.33301 -9.16699 -3.5 -10.5 -3.5c-8.66699 0 -16 3.33301 -22 10s-9 13.667 -9 21c-0 5.33301 1.83301 10.666 5.5 15.999s8.16699 8.33301 13.5 9
c13.333 4.66699 41 10.667 83 18c20.667 4 39.334 8.33301 56.001 13l-2 11c0 15.333 7.66699 23 23 23c10.667 0 22.667 -4 36 -12s20 -14.667 20 -20l2 -2c30.667 4.66699 69.667 7 117 7c69.333 0 127 -7 173 -21c60 -18 94.667 -46.667 104 -86v-8
c0 -36.667 -24.333 -71.334 -73 -104.001c-36 -24 -74 -41.333 -114 -52h37c57.333 0 104.666 -8.33301 141.999 -25c51.333 -22.667 77 -58.334 77 -107.001c0 -62.667 -51.333 -116 -154 -160c-93.333 -40 -196 -60 -308 -60c-44 0 -81 3.5 -111 10.5
s-51.333 15.667 -64 26s-19 20.166 -19 29.499c0 10 5.33301 15 16 15h5c12 -4 23.833 -7.5 35.5 -10.5s25.5 -4.5 41.5 -4.5c3.33301 42 6.83301 124.667 10.5 248s5.5 211 5.5 263zM237 575.004c-4 -27.333 -8.66992 -75.167 -14.0029 -143.5l-16 -203.5
c-5.33301 -67.333 -11.666 -127.333 -18.999 -180c62 -10 116.667 -15 164 -15c84 0 148.833 14.667 194.5 44s68.5 71 68.5 125v6c0 38 -20.333 66.667 -61 86c-35.333 16.667 -82.333 25 -141 25c-26 0 -50.167 -1.16699 -72.5 -3.5s-49.166 -6.16602 -80.499 -11.499
c-5.33301 0 -10.333 2.33301 -15 7s-7 10 -7 16c0 5.33301 2.66699 10.5 8 15.5s12.333 7.5 21 7.5c86.667 0 152.334 8 197.001 24c54.667 20 82 53 82 99c0 39.333 -21.333 68.666 -64 87.999c-35.333 16 -81.333 24 -138 24c-38 0 -73.667 -3.33301 -107 -10z" />
    <glyph glyph-name="Acircumflex" unicode="&#x412;" horiz-adv-x="730" 
d="M158 567c-18 -4 -34.833 -8.8291 -50.5 -14.4961s-32.167 -13.5 -49.5 -23.5l-16.5 -6.5c-5.66699 -2.33301 -9.16699 -3.5 -10.5 -3.5c-8.66699 0 -16 3.33301 -22 10s-9 13.667 -9 21c-0 5.33301 1.83301 10.666 5.5 15.999s8.16699 8.33301 13.5 9
c13.333 4.66699 41 10.667 83 18c20.667 4 39.334 8.33301 56.001 13l-2 11c0 15.333 7.66699 23 23 23c10.667 0 22.667 -4 36 -12s20 -14.667 20 -20l2 -2c30.667 4.66699 69.667 7 117 7c69.333 0 127 -7 173 -21c60 -18 94.667 -46.667 104 -86v-8
c0 -36.667 -24.333 -71.334 -73 -104.001c-36 -24 -74 -41.333 -114 -52h37c57.333 0 104.666 -8.33301 141.999 -25c51.333 -22.667 77 -58.334 77 -107.001c0 -62.667 -51.333 -116 -154 -160c-93.333 -40 -196 -60 -308 -60c-44 0 -81 3.5 -111 10.5
s-51.333 15.667 -64 26s-19 20.166 -19 29.499c0 10 5.33301 15 16 15h5c12 -4 23.833 -7.5 35.5 -10.5s25.5 -4.5 41.5 -4.5c3.33301 42 6.83301 124.667 10.5 248s5.5 211 5.5 263zM237 575.004c-4 -27.333 -8.66992 -75.167 -14.0029 -143.5l-16 -203.5
c-5.33301 -67.333 -11.666 -127.333 -18.999 -180c62 -10 116.667 -15 164 -15c84 0 148.833 14.667 194.5 44s68.5 71 68.5 125v6c0 38 -20.333 66.667 -61 86c-35.333 16.667 -82.333 25 -141 25c-26 0 -50.167 -1.16699 -72.5 -3.5s-49.166 -6.16602 -80.499 -11.499
c-5.33301 0 -10.333 2.33301 -15 7s-7 10 -7 16c0 5.33301 2.66699 10.5 8 15.5s12.333 7.5 21 7.5c86.667 0 152.334 8 197.001 24c54.667 20 82 53 82 99c0 39.333 -21.333 68.666 -64 87.999c-35.333 16 -81.333 24 -138 24c-38 0 -73.667 -3.33301 -107 -10z" />
    <glyph glyph-name="Atilde" unicode="&#xc3;" horiz-adv-x="586" 
d="M188 596c36.667 0 81.998 1.66504 135.998 4.99805c130.667 8 201 12 211 12c10 -1.33301 15 -7 15 -17c0 -13.333 -6.5 -26.833 -19.5 -40.5s-29.5 -20.5 -49.5 -20.5l-8 2c-64 8 -111.333 13.667 -142 17c-54 6 -104 9 -150 9
c-0.666992 -8.66699 -1.16699 -16.167 -1.5 -22.5s-0.5 -11.833 -0.5 -16.5v-14c0 -14.667 -0.666992 -40.167 -2 -76.5s-2 -55.833 -2 -58.5c0 -42 1 -84 3 -126c6 -126 9 -193.667 9 -203l3 -33c0 -12 -2.66699 -20.667 -8 -26s-12 -8 -20 -8
c-13.333 0 -28.666 5.83301 -45.999 17.5s-26 20.5 -26 26.5c0 53.333 1.83301 110.333 5.5 171s8.33398 121.334 14.001 182.001l17.5 180c-2.66699 0.666992 -5.5 1.16699 -8.5 1.5s-7.16699 0.5 -12.5 0.5l-68 -4c-12 0 -21 1.83301 -27 5.5s-9 10.834 -9 21.501l2 13
c0 4 13.333 6 40 6c28 0 55.667 -2 83 -6v39h8c10 0 19.833 -3.5 29.5 -10.5s17.5 -15.833 23.5 -26.5z" />
    <glyph glyph-name="Atilde" unicode="&#x413;" horiz-adv-x="586" 
d="M188 596c36.667 0 81.998 1.66504 135.998 4.99805c130.667 8 201 12 211 12c10 -1.33301 15 -7 15 -17c0 -13.333 -6.5 -26.833 -19.5 -40.5s-29.5 -20.5 -49.5 -20.5l-8 2c-64 8 -111.333 13.667 -142 17c-54 6 -104 9 -150 9
c-0.666992 -8.66699 -1.16699 -16.167 -1.5 -22.5s-0.5 -11.833 -0.5 -16.5v-14c0 -14.667 -0.666992 -40.167 -2 -76.5s-2 -55.833 -2 -58.5c0 -42 1 -84 3 -126c6 -126 9 -193.667 9 -203l3 -33c0 -12 -2.66699 -20.667 -8 -26s-12 -8 -20 -8
c-13.333 0 -28.666 5.83301 -45.999 17.5s-26 20.5 -26 26.5c0 53.333 1.83301 110.333 5.5 171s8.33398 121.334 14.001 182.001l17.5 180c-2.66699 0.666992 -5.5 1.16699 -8.5 1.5s-7.16699 0.5 -12.5 0.5l-68 -4c-12 0 -21 1.83301 -27 5.5s-9 10.834 -9 21.501l2 13
c0 4 13.333 6 40 6c28 0 55.667 -2 83 -6v39h8c10 0 19.833 -3.5 29.5 -10.5s17.5 -15.833 23.5 -26.5z" />
    <glyph glyph-name="Adieresis" unicode="&#xc4;" horiz-adv-x="788" 
d="M171 560c-32 -7.33301 -59.668 -15.666 -83.001 -24.999l-48 -22c-8 2.66699 -15.667 8.33398 -23 17.001s-11 16 -11 22l4 8c9.33301 4.66699 31 11.667 65 21c40 11.333 69.333 17 88 17c5.33301 5.33301 8 10.5 8 15.5s2.66699 12.833 8 23.5h13
c12 0 24.333 -3.5 37 -10.5l36 -20.5h75c97.333 0 175.333 -9.33301 234 -28c74 -23.333 128.333 -63.333 163 -120c6 -8.66699 10.333 -19.334 13 -32.001s4 -25.667 4 -39c0 -34.667 -10 -74.334 -30 -119.001c-16 -36 -35 -68.333 -57 -97
c-34.667 -45.333 -103 -86.5 -205 -123.5s-193.667 -55.5 -275 -55.5c-42 0 -74.667 5.33301 -98 16c-27.333 12.667 -41 31 -41 55c4 2.66699 6.66699 4 8 4c8.66699 0 30.334 -5 65.001 -15c27.333 -8 41.333 -12 42 -12zM255.999 567l-45.999 -527l36 -2
c62 0 118.5 7.83301 169.5 23.5s93.833 36.834 128.5 63.501c37.333 26 66.666 58 87.999 96c19.333 34.667 31 72.667 35 114v11c0 65.333 -24.667 119.666 -74 162.999c-53.333 46.667 -126 70 -218 70c-37.333 0 -77 -4 -119 -12z" />
    <glyph glyph-name="Adieresis" unicode="&#x414;" horiz-adv-x="788" 
d="M171 560c-32 -7.33301 -59.668 -15.666 -83.001 -24.999l-48 -22c-8 2.66699 -15.667 8.33398 -23 17.001s-11 16 -11 22l4 8c9.33301 4.66699 31 11.667 65 21c40 11.333 69.333 17 88 17c5.33301 5.33301 8 10.5 8 15.5s2.66699 12.833 8 23.5h13
c12 0 24.333 -3.5 37 -10.5l36 -20.5h75c97.333 0 175.333 -9.33301 234 -28c74 -23.333 128.333 -63.333 163 -120c6 -8.66699 10.333 -19.334 13 -32.001s4 -25.667 4 -39c0 -34.667 -10 -74.334 -30 -119.001c-16 -36 -35 -68.333 -57 -97
c-34.667 -45.333 -103 -86.5 -205 -123.5s-193.667 -55.5 -275 -55.5c-42 0 -74.667 5.33301 -98 16c-27.333 12.667 -41 31 -41 55c4 2.66699 6.66699 4 8 4c8.66699 0 30.334 -5 65.001 -15c27.333 -8 41.333 -12 42 -12zM255.999 567l-45.999 -527l36 -2
c62 0 118.5 7.83301 169.5 23.5s93.833 36.834 128.5 63.501c37.333 26 66.666 58 87.999 96c19.333 34.667 31 72.667 35 114v11c0 65.333 -24.667 119.666 -74 162.999c-53.333 46.667 -126 70 -218 70c-37.333 0 -77 -4 -119 -12z" />
    <glyph glyph-name="Aring" unicode="&#xc5;" horiz-adv-x="788" 
d="M737 117c10 -4.66699 14.998 -9.66504 14.998 -14.998c0 -9.33301 -18.667 -21.5 -56 -36.5s-81 -28.5 -131 -40.5c-40 -13.333 -83 -23.333 -129 -30s-91.333 -10 -136 -10c-82.667 0 -150.667 11 -204 33c-58.667 24 -88 57 -88 99
c0 4.66699 -0.666992 12.334 -2 23.001s-2 19 -2 25c0 32 8 64.667 24 98c22 46 61.333 100.667 118 164c73.333 67.333 145.333 116.666 216 147.999c58 25.333 113.667 38 167 38c19.333 0 36.333 -1.16699 51 -3.5s29.334 -6 44.001 -11s28.834 -16.333 42.501 -34
s20.5 -30.834 20.5 -39.501c-0.666992 -2 -1.33398 -3.83301 -2.00098 -5.5s-2 -2.5 -4 -2.5l-8 4c-63.333 26 -124.333 39 -183 39c-60 0 -115.5 -13 -166.5 -39s-94.833 -62.333 -131.5 -109c-32.667 -44.667 -56.334 -80.667 -71.001 -108c-24 -44 -36 -82.667 -36 -116
c0 -14.667 2.5 -29.334 7.5 -44.001s12.5 -28.667 22.5 -42c20 -26 49.5 -45 88.5 -57s82.833 -18 131.5 -18c34.667 0 65.834 1.66699 93.501 5s57.834 8.66602 90.501 15.999c20.667 2.66699 49.667 10.334 87 23.001zM153.998 273.002v23c78 0 152.167 4 222.5 12
l210.5 25c16.667 0 25 -2 25 -6l1 -10c0 -9.33301 -5 -20.333 -15 -33s-18.333 -19 -25 -19c-5.33301 0 -16.333 -0.5 -33 -1.5s-26.667 -1.5 -30 -1.5c-48 0 -106.667 1.33301 -176 4z" />
    <glyph glyph-name="Aring" unicode="&#x415;" horiz-adv-x="788" 
d="M737 117c10 -4.66699 14.998 -9.66504 14.998 -14.998c0 -9.33301 -18.667 -21.5 -56 -36.5s-81 -28.5 -131 -40.5c-40 -13.333 -83 -23.333 -129 -30s-91.333 -10 -136 -10c-82.667 0 -150.667 11 -204 33c-58.667 24 -88 57 -88 99
c0 4.66699 -0.666992 12.334 -2 23.001s-2 19 -2 25c0 32 8 64.667 24 98c22 46 61.333 100.667 118 164c73.333 67.333 145.333 116.666 216 147.999c58 25.333 113.667 38 167 38c19.333 0 36.333 -1.16699 51 -3.5s29.334 -6 44.001 -11s28.834 -16.333 42.501 -34
s20.5 -30.834 20.5 -39.501c-0.666992 -2 -1.33398 -3.83301 -2.00098 -5.5s-2 -2.5 -4 -2.5l-8 4c-63.333 26 -124.333 39 -183 39c-60 0 -115.5 -13 -166.5 -39s-94.833 -62.333 -131.5 -109c-32.667 -44.667 -56.334 -80.667 -71.001 -108c-24 -44 -36 -82.667 -36 -116
c0 -14.667 2.5 -29.334 7.5 -44.001s12.5 -28.667 22.5 -42c20 -26 49.5 -45 88.5 -57s82.833 -18 131.5 -18c34.667 0 65.834 1.66699 93.501 5s57.834 8.66602 90.501 15.999c20.667 2.66699 49.667 10.334 87 23.001zM153.998 273.002v23c78 0 152.167 4 222.5 12
l210.5 25c16.667 0 25 -2 25 -6l1 -10c0 -9.33301 -5 -20.333 -15 -33s-18.333 -19 -25 -19c-5.33301 0 -16.333 -0.5 -33 -1.5s-26.667 -1.5 -30 -1.5c-48 0 -106.667 1.33301 -176 4z" />
    <glyph glyph-name="AE" unicode="&#xc6;" horiz-adv-x="1065" 
d="M548 237c64.667 42.667 134.332 101.671 208.999 177.004c82.667 83.333 137.334 155 164.001 215c11.333 -2 20 -11.167 26 -27.5s9 -33.5 9 -51.5c0 -14 -1.33301 -23.667 -4 -29c-22 -26.667 -66.5 -68 -133.5 -124s-118.167 -94.667 -153.5 -116
c28.667 -31.333 72 -71.666 130 -120.999c49.333 -42 98.833 -81.333 148.5 -118s78.167 -55 85.5 -55c0.666992 -0.666992 1.16699 -1.83398 1.5 -3.50098s0.5 -3.83398 0.5 -6.50098c0 -9.33301 -8.5 -18.166 -25.5 -26.499s-32.833 -12.5 -47.5 -12.5
c-8 0 -12.667 0.666992 -14 2c-42 30.667 -84 68 -126 112l-99 110c-36.667 40 -70 70.667 -100 92c-3.33301 -2 -19.333 -11 -48 -27c-10.667 -6 -19 -11 -25 -15c0 -43.333 1.16699 -80.833 3.5 -112.5s5.16602 -57.834 8.49902 -78.501
c0 -6.66699 -5.5 -13.167 -16.5 -19.5s-21.5 -9.5 -31.5 -9.5c-7.33301 0 -12 2 -14 6c-3.33301 16.667 -5.5 44.834 -6.5 84.501s-1.5 83.167 -1.5 130.5c-5.33301 5.33301 -18.666 14.666 -39.999 27.999l-46 30c-28.667 -20 -60.334 -50.667 -95.001 -92l-93 -110
c-41.333 -46.667 -82 -84.334 -122 -113.001c-2.66699 -2.66699 -7.66699 -4 -15 -4c-13.333 0 -28.833 4.16699 -46.5 12.5s-26.5 17.5 -26.5 27.5l4 10c12.667 0 64.334 36 155.001 108c94.667 75.333 164 137.333 208 186c-38 22.667 -89.167 61.167 -153.5 115.5
s-108.5 96.166 -132.5 125.499c-4 6 -6 15.333 -6 28c0 18.667 3 36 9 52s15 25 27 27c27.333 -62.667 82.333 -136 165 -220c76 -77.333 146.667 -136.666 212 -177.999l-19 333c12.667 9.33301 23.667 16.666 33 21.999c18 10.667 35.333 16 52 16
c0 -40.667 -1 -80.667 -3 -120c-6 -118.667 -9 -180.334 -9 -185.001z" />
    <glyph glyph-name="AE" unicode="&#x416;" horiz-adv-x="1065" 
d="M548 237c64.667 42.667 134.332 101.671 208.999 177.004c82.667 83.333 137.334 155 164.001 215c11.333 -2 20 -11.167 26 -27.5s9 -33.5 9 -51.5c0 -14 -1.33301 -23.667 -4 -29c-22 -26.667 -66.5 -68 -133.5 -124s-118.167 -94.667 -153.5 -116
c28.667 -31.333 72 -71.666 130 -120.999c49.333 -42 98.833 -81.333 148.5 -118s78.167 -55 85.5 -55c0.666992 -0.666992 1.16699 -1.83398 1.5 -3.50098s0.5 -3.83398 0.5 -6.50098c0 -9.33301 -8.5 -18.166 -25.5 -26.499s-32.833 -12.5 -47.5 -12.5
c-8 0 -12.667 0.666992 -14 2c-42 30.667 -84 68 -126 112l-99 110c-36.667 40 -70 70.667 -100 92c-3.33301 -2 -19.333 -11 -48 -27c-10.667 -6 -19 -11 -25 -15c0 -43.333 1.16699 -80.833 3.5 -112.5s5.16602 -57.834 8.49902 -78.501
c0 -6.66699 -5.5 -13.167 -16.5 -19.5s-21.5 -9.5 -31.5 -9.5c-7.33301 0 -12 2 -14 6c-3.33301 16.667 -5.5 44.834 -6.5 84.501s-1.5 83.167 -1.5 130.5c-5.33301 5.33301 -18.666 14.666 -39.999 27.999l-46 30c-28.667 -20 -60.334 -50.667 -95.001 -92l-93 -110
c-41.333 -46.667 -82 -84.334 -122 -113.001c-2.66699 -2.66699 -7.66699 -4 -15 -4c-13.333 0 -28.833 4.16699 -46.5 12.5s-26.5 17.5 -26.5 27.5l4 10c12.667 0 64.334 36 155.001 108c94.667 75.333 164 137.333 208 186c-38 22.667 -89.167 61.167 -153.5 115.5
s-108.5 96.166 -132.5 125.499c-4 6 -6 15.333 -6 28c0 18.667 3 36 9 52s15 25 27 27c27.333 -62.667 82.333 -136 165 -220c76 -77.333 146.667 -136.666 212 -177.999l-19 333c12.667 9.33301 23.667 16.666 33 21.999c18 10.667 35.333 16 52 16
c0 -40.667 -1 -80.667 -3 -120c-6 -118.667 -9 -180.334 -9 -185.001z" />
    <glyph glyph-name="Ccedilla" unicode="&#xc7;" horiz-adv-x="768" 
d="M275 575c-46 -8.66699 -83.832 -16.4961 -113.499 -23.4961s-51.5 -14.5 -65.5 -22.5l-15.5 -6.5c-5.66699 -2.33301 -9.5 -3.5 -11.5 -3.5c-8.66699 0 -16 3.33301 -22 10s-9 13.667 -9 21c0 5.33301 1.83301 10.666 5.5 15.999s8.5 8.33301 14.5 9
c16 5.33301 36.333 9.83301 61 13.5s76.667 9.5 156 17.5c2.66699 0 15 0.666992 37 2s41.667 2 59 2c74 0 135 -6.33301 183 -19c67.333 -17.333 105.666 -45.666 114.999 -84.999v-8c0 -36.667 -24 -71.334 -72 -104.001c-35.333 -24 -73.333 -41.333 -114 -52h25
c56 0 105.333 -10.333 148 -31c54.667 -26.667 82 -65 82 -115v-4c0 -67.333 -50 -119.666 -150 -156.999c-84.667 -31.333 -186.334 -47 -305.001 -47c-74.667 0 -142 6.66699 -202 20c-26.667 6 -46.834 17 -60.501 33s-20.5 31.333 -20.5 46
c0 5.33301 1.33301 10.166 4 14.499s5.66699 6.5 9 6.5h4c38 -13.333 71 -24.333 99 -33c57.333 -18 94.333 -27 111 -27c32.667 -4.66699 64.5 -8.66699 95.5 -12s57.5 -5 79.5 -5c81.333 0 143 14.167 185 42.5s63 71.166 63 128.499v6c0 38 -20.333 66.667 -61 86
c-35.333 16.667 -81.666 25 -138.999 25c-22 0 -43.5 -0.833008 -64.5 -2.5s-50.167 -5.83398 -87.5 -12.501c-4 0 -7.66699 1.33301 -11 4c-6.66699 4.66699 -10 11 -10 19c0 5.33301 2.66699 10.5 8 15.5s12.333 7.5 21 7.5c86.667 0 152.334 8 197.001 24
c54.667 20 82 53 82 99c0 39.333 -21.333 68.666 -64 87.999c-35.333 16 -81.333 24 -138 24c-37.333 0 -73.333 -3.33301 -108 -10z" />
    <glyph glyph-name="Ccedilla" unicode="&#x417;" horiz-adv-x="768" 
d="M275 575c-46 -8.66699 -83.832 -16.4961 -113.499 -23.4961s-51.5 -14.5 -65.5 -22.5l-15.5 -6.5c-5.66699 -2.33301 -9.5 -3.5 -11.5 -3.5c-8.66699 0 -16 3.33301 -22 10s-9 13.667 -9 21c0 5.33301 1.83301 10.666 5.5 15.999s8.5 8.33301 14.5 9
c16 5.33301 36.333 9.83301 61 13.5s76.667 9.5 156 17.5c2.66699 0 15 0.666992 37 2s41.667 2 59 2c74 0 135 -6.33301 183 -19c67.333 -17.333 105.666 -45.666 114.999 -84.999v-8c0 -36.667 -24 -71.334 -72 -104.001c-35.333 -24 -73.333 -41.333 -114 -52h25
c56 0 105.333 -10.333 148 -31c54.667 -26.667 82 -65 82 -115v-4c0 -67.333 -50 -119.666 -150 -156.999c-84.667 -31.333 -186.334 -47 -305.001 -47c-74.667 0 -142 6.66699 -202 20c-26.667 6 -46.834 17 -60.501 33s-20.5 31.333 -20.5 46
c0 5.33301 1.33301 10.166 4 14.499s5.66699 6.5 9 6.5h4c38 -13.333 71 -24.333 99 -33c57.333 -18 94.333 -27 111 -27c32.667 -4.66699 64.5 -8.66699 95.5 -12s57.5 -5 79.5 -5c81.333 0 143 14.167 185 42.5s63 71.166 63 128.499v6c0 38 -20.333 66.667 -61 86
c-35.333 16.667 -81.666 25 -138.999 25c-22 0 -43.5 -0.833008 -64.5 -2.5s-50.167 -5.83398 -87.5 -12.501c-4 0 -7.66699 1.33301 -11 4c-6.66699 4.66699 -10 11 -10 19c0 5.33301 2.66699 10.5 8 15.5s12.333 7.5 21 7.5c86.667 0 152.334 8 197.001 24
c54.667 20 82 53 82 99c0 39.333 -21.333 68.666 -64 87.999c-35.333 16 -81.333 24 -138 24c-37.333 0 -73.333 -3.33301 -108 -10z" />
    <glyph glyph-name="Egrave" unicode="&#xc8;" horiz-adv-x="845" 
d="M769 -52l17.999 6c6.66699 0 11.334 -1.66699 14.001 -5s5 -8.66602 7 -15.999c-7.33301 -12.667 -18.833 -21.667 -34.5 -27s-32.5 -8 -50.5 -8c-9.33301 0 -19.333 0.5 -30 1.5s-21.667 1.83301 -33 2.5c-10 0 -29.667 40.833 -59 122.5s-56 168.834 -80 261.501
c-26.667 101.333 -40 170.666 -40 207.999c-9.33301 -5.33301 -20.333 -21 -33 -47c-22.667 -46.667 -43 -84.667 -61 -114c-38.667 -62.667 -89.334 -132 -152.001 -208l-69 -83c-34 -39.333 -61.667 -59 -83 -59c-6.66699 0 -12.667 1.33301 -18 4
c-17.333 9.33301 -31.333 41.666 -42 96.999c-8 42 -13.833 99.167 -17.5 171.5s-5.5 139.166 -5.5 200.499l2 96c0 8 10.667 17.333 32 28s38.333 16 51 16c7.33301 0 11 -2 11 -6c-5.33301 -44.667 -10.166 -98.167 -14.499 -160.5s-6.5 -131.833 -6.5 -208.5
c0 -52 4.16699 -93.833 12.5 -125.5s19.5 -48.834 33.5 -51.501c20 0 58 42.333 114 127c24.667 37.333 75.667 120 153 248c57.333 95.333 94 150 110 164c11.333 8.66699 29.833 15.834 55.5 21.501s48.167 8.5 67.5 8.5c16.667 0 25 -1.66699 25 -5
c-30.667 -20 -55 -39 -73 -57s-27 -39 -27 -63c0 -50 13.667 -118.167 41 -204.5s58.5 -164.166 93.5 -233.499s62.167 -104 81.5 -104z" />
    <glyph glyph-name="Egrave" unicode="&#x418;" horiz-adv-x="845" 
d="M769 -52l17.999 6c6.66699 0 11.334 -1.66699 14.001 -5s5 -8.66602 7 -15.999c-7.33301 -12.667 -18.833 -21.667 -34.5 -27s-32.5 -8 -50.5 -8c-9.33301 0 -19.333 0.5 -30 1.5s-21.667 1.83301 -33 2.5c-10 0 -29.667 40.833 -59 122.5s-56 168.834 -80 261.501
c-26.667 101.333 -40 170.666 -40 207.999c-9.33301 -5.33301 -20.333 -21 -33 -47c-22.667 -46.667 -43 -84.667 -61 -114c-38.667 -62.667 -89.334 -132 -152.001 -208l-69 -83c-34 -39.333 -61.667 -59 -83 -59c-6.66699 0 -12.667 1.33301 -18 4
c-17.333 9.33301 -31.333 41.666 -42 96.999c-8 42 -13.833 99.167 -17.5 171.5s-5.5 139.166 -5.5 200.499l2 96c0 8 10.667 17.333 32 28s38.333 16 51 16c7.33301 0 11 -2 11 -6c-5.33301 -44.667 -10.166 -98.167 -14.499 -160.5s-6.5 -131.833 -6.5 -208.5
c0 -52 4.16699 -93.833 12.5 -125.5s19.5 -48.834 33.5 -51.501c20 0 58 42.333 114 127c24.667 37.333 75.667 120 153 248c57.333 95.333 94 150 110 164c11.333 8.66699 29.833 15.834 55.5 21.501s48.167 8.5 67.5 8.5c16.667 0 25 -1.66699 25 -5
c-30.667 -20 -55 -39 -73 -57s-27 -39 -27 -63c0 -50 13.667 -118.167 41 -204.5s58.5 -164.166 93.5 -233.499s62.167 -104 81.5 -104z" />
    <glyph glyph-name="Eacute" unicode="&#xc9;" horiz-adv-x="845" 
d="M510 671c-48.667 -7.33301 -95.002 -13 -139.002 -17s-94 -6 -150 -6l-13 -2c-34.667 0 -63 11.667 -85 35c-18 18.667 -27 36 -27 52l2 7c2.66699 2.66699 7.33398 4 14.001 4c44 -12 95.833 -22.333 155.5 -31s124.834 -13 195.501 -13l47 2
c12.667 0 23.5 0.5 32.5 1.5s19.833 2.5 32.5 4.5c8 0 12 -2 12 -6c0 -6.66699 -9.5 -13.5 -28.5 -20.5s-35.167 -10.5 -48.5 -10.5zM768.998 -52l17.999 6c6.66699 0 11.334 -1.66699 14.001 -5s5 -8.66602 7 -15.999c-7.33301 -12.667 -18.833 -21.667 -34.5 -27
s-32.5 -8 -50.5 -8c-9.33301 0 -19.333 0.5 -30 1.5s-21.667 1.83301 -33 2.5c-10 0 -29.667 40.833 -59 122.5s-56 168.834 -80 261.501c-26.667 101.333 -40 170.666 -40 207.999c-9.33301 -5.33301 -20.333 -21 -33 -47c-22.667 -46.667 -43 -84.667 -61 -114
c-38.667 -62.667 -89.334 -132 -152.001 -208l-69 -83c-34 -39.333 -61.667 -59 -83 -59c-6.66699 0 -12.667 1.33301 -18 4c-17.333 9.33301 -31.333 41.666 -42 96.999c-8 42 -13.833 99.167 -17.5 171.5s-5.5 139.166 -5.5 200.499l2 96c0 8 10.667 17.333 32 28
s38.333 16 51 16c7.33301 0 11 -2 11 -6c-5.33301 -44.667 -10.166 -98.167 -14.499 -160.5s-6.5 -131.833 -6.5 -208.5c0 -52 4.16699 -93.833 12.5 -125.5s19.5 -48.834 33.5 -51.501c20 0 58 42.333 114 127c24.667 37.333 75.667 120 153 248
c57.333 95.333 94 150 110 164c11.333 8.66699 29.833 15.834 55.5 21.501s48.167 8.5 67.5 8.5c16.667 0 25 -1.66699 25 -5c-30.667 -20 -55 -39 -73 -57s-27 -39 -27 -63c0 -50 13.667 -118.167 41 -204.5s58.5 -164.166 93.5 -233.499s62.167 -104 81.5 -104z" />
    <glyph glyph-name="Eacute" unicode="&#x419;" horiz-adv-x="845" 
d="M510 671c-48.667 -7.33301 -95.002 -13 -139.002 -17s-94 -6 -150 -6l-13 -2c-34.667 0 -63 11.667 -85 35c-18 18.667 -27 36 -27 52l2 7c2.66699 2.66699 7.33398 4 14.001 4c44 -12 95.833 -22.333 155.5 -31s124.834 -13 195.501 -13l47 2
c12.667 0 23.5 0.5 32.5 1.5s19.833 2.5 32.5 4.5c8 0 12 -2 12 -6c0 -6.66699 -9.5 -13.5 -28.5 -20.5s-35.167 -10.5 -48.5 -10.5zM768.998 -52l17.999 6c6.66699 0 11.334 -1.66699 14.001 -5s5 -8.66602 7 -15.999c-7.33301 -12.667 -18.833 -21.667 -34.5 -27
s-32.5 -8 -50.5 -8c-9.33301 0 -19.333 0.5 -30 1.5s-21.667 1.83301 -33 2.5c-10 0 -29.667 40.833 -59 122.5s-56 168.834 -80 261.501c-26.667 101.333 -40 170.666 -40 207.999c-9.33301 -5.33301 -20.333 -21 -33 -47c-22.667 -46.667 -43 -84.667 -61 -114
c-38.667 -62.667 -89.334 -132 -152.001 -208l-69 -83c-34 -39.333 -61.667 -59 -83 -59c-6.66699 0 -12.667 1.33301 -18 4c-17.333 9.33301 -31.333 41.666 -42 96.999c-8 42 -13.833 99.167 -17.5 171.5s-5.5 139.166 -5.5 200.499l2 96c0 8 10.667 17.333 32 28
s38.333 16 51 16c7.33301 0 11 -2 11 -6c-5.33301 -44.667 -10.166 -98.167 -14.499 -160.5s-6.5 -131.833 -6.5 -208.5c0 -52 4.16699 -93.833 12.5 -125.5s19.5 -48.834 33.5 -51.501c20 0 58 42.333 114 127c24.667 37.333 75.667 120 153 248
c57.333 95.333 94 150 110 164c11.333 8.66699 29.833 15.834 55.5 21.501s48.167 8.5 67.5 8.5c16.667 0 25 -1.66699 25 -5c-30.667 -20 -55 -39 -73 -57s-27 -39 -27 -63c0 -50 13.667 -118.167 41 -204.5s58.5 -164.166 93.5 -233.499s62.167 -104 81.5 -104z" />
    <glyph glyph-name="Ecircumflex" unicode="&#xca;" horiz-adv-x="643" 
d="M4 606c16 0 32.9971 -5.33105 50.9971 -15.998c10.667 -8 21.667 -15.667 33 -23l-23 -365c52 17.333 127.667 72.666 227 165.999c106 100 175.333 187 208 261c11.333 -2 20 -11.167 26 -27.5s9 -33.5 9 -51.5c0 -14 -1.33301 -23.667 -4 -29
c-22 -26.667 -66.5 -68 -133.5 -124s-118.167 -94.667 -153.5 -116c28.667 -31.333 72 -71.666 130 -120.999c49.333 -42 98.833 -81.333 148.5 -118s78.167 -55 85.5 -55c0.666992 -0.666992 1.16699 -1.83398 1.5 -3.50098s0.5 -3.83398 0.5 -6.50098
c0 -9.33301 -8.5 -18.166 -25.5 -26.499s-32.833 -12.5 -47.5 -12.5c-8 0 -12.667 0.666992 -14 2c-43.333 31.333 -86.666 67.333 -129.999 108l-107 104c-39.333 37.333 -73.666 66.666 -102.999 87.999c-1.33301 -0.666992 -21.666 -15 -60.999 -43
c-20 -14 -36.333 -22.667 -49 -26v-22v-21c0 -42.667 -0.5 -73.167 -1.5 -91.5s-3.16699 -34.833 -6.5 -49.5c-2 -4 -7 -6 -15 -6c-10 0 -20.167 2.83301 -30.5 8.5s-15.5 12.5 -15.5 20.5c5.33301 45.333 8 134.333 8 267c0 30 -1.33301 82 -4 156s-4 131.667 -4 173z" />
    <glyph glyph-name="Ecircumflex" unicode="&#x41a;" horiz-adv-x="643" 
d="M4 606c16 0 32.9971 -5.33105 50.9971 -15.998c10.667 -8 21.667 -15.667 33 -23l-23 -365c52 17.333 127.667 72.666 227 165.999c106 100 175.333 187 208 261c11.333 -2 20 -11.167 26 -27.5s9 -33.5 9 -51.5c0 -14 -1.33301 -23.667 -4 -29
c-22 -26.667 -66.5 -68 -133.5 -124s-118.167 -94.667 -153.5 -116c28.667 -31.333 72 -71.666 130 -120.999c49.333 -42 98.833 -81.333 148.5 -118s78.167 -55 85.5 -55c0.666992 -0.666992 1.16699 -1.83398 1.5 -3.50098s0.5 -3.83398 0.5 -6.50098
c0 -9.33301 -8.5 -18.166 -25.5 -26.499s-32.833 -12.5 -47.5 -12.5c-8 0 -12.667 0.666992 -14 2c-43.333 31.333 -86.666 67.333 -129.999 108l-107 104c-39.333 37.333 -73.666 66.666 -102.999 87.999c-1.33301 -0.666992 -21.666 -15 -60.999 -43
c-20 -14 -36.333 -22.667 -49 -26v-22v-21c0 -42.667 -0.5 -73.167 -1.5 -91.5s-3.16699 -34.833 -6.5 -49.5c-2 -4 -7 -6 -15 -6c-10 0 -20.167 2.83301 -30.5 8.5s-15.5 12.5 -15.5 20.5c5.33301 45.333 8 134.333 8 267c0 30 -1.33301 82 -4 156s-4 131.667 -4 173z" />
    <glyph glyph-name="Edieresis" unicode="&#xcb;" horiz-adv-x="893" 
d="M515 498l-150.002 -258c-26.667 -42 -57 -87 -91 -135c-44 -62 -81.667 -110 -113 -144c-41.333 -44.667 -72 -67 -92 -67h-4c-15.333 2 -30 12 -44 30s-21 32.333 -21 43c0 5.33301 2 8 6 8c6 0 13 -4 21 -12l13 -3c28.667 0 75.334 32.667 140.001 98
c60.667 61.333 110.334 122 149.001 182l169 281c-8 17.333 -19.667 31.666 -35 42.999c-18.667 14 -40.334 22.667 -65.001 26c-5.33301 0 -9.83301 1 -13.5 3s-5.5 4.33301 -5.5 7c0 8.66699 11.333 13 34 13c26 0 49.5 -1.83301 70.5 -5.5s39.5 -9.5 55.5 -17.5
s45 -54.333 87 -139l115 -239c44 -88.667 77 -140.667 99 -156c4.66699 -3.33301 9.33398 -7.66602 14.001 -12.999c1.33301 -1.33301 3.33301 -4 6 -8c0 -5.33301 -16.667 -16.333 -50 -33c-2.66699 -1.33301 -8 -2 -16 -2c-16 0 -34.333 19 -55 57l-81 168
c-45.333 94.667 -93 185.667 -143 273z" />
    <glyph glyph-name="Edieresis" unicode="&#x41b;" horiz-adv-x="893" 
d="M515 498l-150.002 -258c-26.667 -42 -57 -87 -91 -135c-44 -62 -81.667 -110 -113 -144c-41.333 -44.667 -72 -67 -92 -67h-4c-15.333 2 -30 12 -44 30s-21 32.333 -21 43c0 5.33301 2 8 6 8c6 0 13 -4 21 -12l13 -3c28.667 0 75.334 32.667 140.001 98
c60.667 61.333 110.334 122 149.001 182l169 281c-8 17.333 -19.667 31.666 -35 42.999c-18.667 14 -40.334 22.667 -65.001 26c-5.33301 0 -9.83301 1 -13.5 3s-5.5 4.33301 -5.5 7c0 8.66699 11.333 13 34 13c26 0 49.5 -1.83301 70.5 -5.5s39.5 -9.5 55.5 -17.5
s45 -54.333 87 -139l115 -239c44 -88.667 77 -140.667 99 -156c4.66699 -3.33301 9.33398 -7.66602 14.001 -12.999c1.33301 -1.33301 3.33301 -4 6 -8c0 -5.33301 -16.667 -16.333 -50 -33c-2.66699 -1.33301 -8 -2 -16 -2c-16 0 -34.333 19 -55 57l-81 168
c-45.333 94.667 -93 185.667 -143 273z" />
    <glyph glyph-name="Igrave" unicode="&#xcc;" horiz-adv-x="970" 
d="M244 498l-31.002 46c-3.33301 4.66699 -13.666 12.167 -30.999 22.5s-26 19.5 -26 27.5l4 12c2.66699 2.66699 9 4 19 4c16.667 0 37.334 -3.83301 62.001 -11.5s41.667 -15.5 51 -23.5l200 -473l6 -6c12 0 33 31.333 63 94c20.667 43.333 31.667 66 33 68l179 340
c24.667 0 41.167 -1.83301 49.5 -5.5s12.5 -9.5 12.5 -17.5c0 -110 11.333 -231.333 34 -364c18 -106 40 -168 66 -186l2 -6c0 -5.33301 -11.5 -12.333 -34.5 -21s-39.167 -13 -48.5 -13l-4 2h-4c-8.66699 0 -18.334 34.667 -29.001 104c-8 52 -18 128.833 -30 230.5
s-20 163.167 -24 184.5c-18.667 -31.333 -52.667 -94.833 -102 -190.5l-109 -207.5c-35.333 -66 -57.666 -101.333 -66.999 -106l-4 -2c-9.33301 -0 -27.333 28.333 -54 85c-14 30 -41.333 92.333 -82 187c-34.667 82 -63 144 -85 186l-93 -363
c-32 -120.667 -62.667 -187.667 -92 -201l-10 -2c-10 0 -23 8 -39 24s-24 29.333 -24 40l4 7l11 -1c28 0 60 41.333 96 124c26.667 62 54.667 143 84 243z" />
    <glyph glyph-name="Igrave" unicode="&#x41c;" horiz-adv-x="970" 
d="M244 498l-31.002 46c-3.33301 4.66699 -13.666 12.167 -30.999 22.5s-26 19.5 -26 27.5l4 12c2.66699 2.66699 9 4 19 4c16.667 0 37.334 -3.83301 62.001 -11.5s41.667 -15.5 51 -23.5l200 -473l6 -6c12 0 33 31.333 63 94c20.667 43.333 31.667 66 33 68l179 340
c24.667 0 41.167 -1.83301 49.5 -5.5s12.5 -9.5 12.5 -17.5c0 -110 11.333 -231.333 34 -364c18 -106 40 -168 66 -186l2 -6c0 -5.33301 -11.5 -12.333 -34.5 -21s-39.167 -13 -48.5 -13l-4 2h-4c-8.66699 0 -18.334 34.667 -29.001 104c-8 52 -18 128.833 -30 230.5
s-20 163.167 -24 184.5c-18.667 -31.333 -52.667 -94.833 -102 -190.5l-109 -207.5c-35.333 -66 -57.666 -101.333 -66.999 -106l-4 -2c-9.33301 -0 -27.333 28.333 -54 85c-14 30 -41.333 92.333 -82 187c-34.667 82 -63 144 -85 186l-93 -363
c-32 -120.667 -62.667 -187.667 -92 -201l-10 -2c-10 0 -23 8 -39 24s-24 29.333 -24 40l4 7l11 -1c28 0 60 41.333 96 124c26.667 62 54.667 143 84 243z" />
    <glyph glyph-name="Iacute" unicode="&#xcd;" horiz-adv-x="730" 
d="M138 296c0.666992 2 1.00098 10.3311 1.00098 24.998s0.333008 27 1 37c0 46.667 -1.5 91.5 -4.5 134.5s-7.16699 78.167 -12.5 105.5c3.33301 6.66699 10.333 10 21 10c13.333 0 28.5 -4.83301 45.5 -14.5s25.5 -18.5 25.5 -26.5l-23 -271l206 -2
c42 0 79 0.666992 111 2s56 4 72 8c2 0 4 -1 6 -3c4.66699 -4.66699 7 -9 7 -13s-2.66699 -7.5 -8 -10.5s-14.666 -4.5 -27.999 -4.5c-33.333 -4 -79 -8.66699 -137 -14c-11.333 -1.33301 -85 -7.66602 -221 -18.999c-2.66699 -19.333 -4.66699 -53.166 -6 -101.499
s-2 -111.833 -2 -190.5l-15 -2c-10.667 0 -20.334 2.66699 -29.001 8s-14.334 13.666 -17.001 24.999c4 28.667 8 85.334 12 170.001c2 39.333 3 67.333 3 84h-40c-27.333 0 -49.333 3.66699 -66 11c-24 10.667 -36 29.334 -36 56.001c2.66699 8.66699 4 15 4 19
c20.667 -6.66699 36 -11.334 46 -14.001c26 -7.33301 47 -11 63 -11zM619.001 1.99805c0 23.333 1.33398 68.667 4.00098 136s4 119.333 4 156c0 82 -0.666992 149.333 -2 202s-3.33301 86.667 -6 102c0 4 4.66699 6 14 6c11.333 0 24.666 -3.16699 39.999 -9.5
s23 -12.833 23 -19.5v-57c0 -188 -1 -318.5 -3 -391.5s-6 -119.5 -12 -139.5c0 -5.33301 -3.33301 -8 -10 -8c-4.66699 0 -12.5 2.83301 -23.5 8.5z" />
    <glyph glyph-name="Iacute" unicode="&#x41d;" horiz-adv-x="730" 
d="M138 296c0.666992 2 1.00098 10.3311 1.00098 24.998s0.333008 27 1 37c0 46.667 -1.5 91.5 -4.5 134.5s-7.16699 78.167 -12.5 105.5c3.33301 6.66699 10.333 10 21 10c13.333 0 28.5 -4.83301 45.5 -14.5s25.5 -18.5 25.5 -26.5l-23 -271l206 -2
c42 0 79 0.666992 111 2s56 4 72 8c2 0 4 -1 6 -3c4.66699 -4.66699 7 -9 7 -13s-2.66699 -7.5 -8 -10.5s-14.666 -4.5 -27.999 -4.5c-33.333 -4 -79 -8.66699 -137 -14c-11.333 -1.33301 -85 -7.66602 -221 -18.999c-2.66699 -19.333 -4.66699 -53.166 -6 -101.499
s-2 -111.833 -2 -190.5l-15 -2c-10.667 0 -20.334 2.66699 -29.001 8s-14.334 13.666 -17.001 24.999c4 28.667 8 85.334 12 170.001c2 39.333 3 67.333 3 84h-40c-27.333 0 -49.333 3.66699 -66 11c-24 10.667 -36 29.334 -36 56.001c2.66699 8.66699 4 15 4 19
c20.667 -6.66699 36 -11.334 46 -14.001c26 -7.33301 47 -11 63 -11zM619.001 1.99805c0 23.333 1.33398 68.667 4.00098 136s4 119.333 4 156c0 82 -0.666992 149.333 -2 202s-3.33301 86.667 -6 102c0 4 4.66699 6 14 6c11.333 0 24.666 -3.16699 39.999 -9.5
s23 -12.833 23 -19.5v-57c0 -188 -1 -318.5 -3 -391.5s-6 -119.5 -12 -139.5c0 -5.33301 -3.33301 -8 -10 -8c-4.66699 0 -12.5 2.83301 -23.5 8.5z" />
    <glyph glyph-name="Icircumflex" unicode="&#xce;" horiz-adv-x="855" 
d="M35 319c30 75.333 94.334 146.329 193.001 212.996c90 60.667 163.333 91 220 91c18 0 30.333 -3.33301 37 -10l2 -5c-33.333 -7.33301 -73.5 -18.666 -120.5 -33.999s-90.667 -38.333 -131 -69s-73.666 -74.667 -99.999 -132s-39.5 -111.666 -39.5 -162.999
c0 -27.333 3.83301 -51 11.5 -71s19.167 -35 34.5 -45c14 -17.333 39.667 -30.666 77 -39.999s78.333 -14 123 -14c47.333 0 92.833 4.33301 136.5 13s76.5 20 98.5 34c45.333 29.333 84.333 67 117 113c36 50.667 54 98 54 142v23c-10 66.667 -34.667 116.334 -74 149.001
c-33.333 28 -74.666 42 -123.999 42c-46 0 -91.333 -11.333 -136 -34s-73 -46.667 -85 -72c-2.66699 -6.66699 -7.33398 -12.167 -14.001 -16.5s-13 -6.5 -19 -6.5c-4.66699 0 -9 1.33301 -13 4s-6 6.33398 -6 11.001c0 2.66699 2 8 6 16c28 38 67.667 68 119 90
s104 33 158 33c71.333 0 130.666 -16.667 177.999 -50c52.667 -36.667 79 -86.667 79 -150c0 -108 -56.667 -202.333 -170 -283c-108 -76.667 -226.333 -115 -355 -115c-34.667 0 -69.334 3.66699 -104.001 11c-52 12 -94.333 35.333 -127 70
c-35.333 37.333 -53 82.666 -53 135.999c0 37.333 9 77 27 119z" />
    <glyph glyph-name="Icircumflex" unicode="&#x41e;" horiz-adv-x="855" 
d="M35 319c30 75.333 94.334 146.329 193.001 212.996c90 60.667 163.333 91 220 91c18 0 30.333 -3.33301 37 -10l2 -5c-33.333 -7.33301 -73.5 -18.666 -120.5 -33.999s-90.667 -38.333 -131 -69s-73.666 -74.667 -99.999 -132s-39.5 -111.666 -39.5 -162.999
c0 -27.333 3.83301 -51 11.5 -71s19.167 -35 34.5 -45c14 -17.333 39.667 -30.666 77 -39.999s78.333 -14 123 -14c47.333 0 92.833 4.33301 136.5 13s76.5 20 98.5 34c45.333 29.333 84.333 67 117 113c36 50.667 54 98 54 142v23c-10 66.667 -34.667 116.334 -74 149.001
c-33.333 28 -74.666 42 -123.999 42c-46 0 -91.333 -11.333 -136 -34s-73 -46.667 -85 -72c-2.66699 -6.66699 -7.33398 -12.167 -14.001 -16.5s-13 -6.5 -19 -6.5c-4.66699 0 -9 1.33301 -13 4s-6 6.33398 -6 11.001c0 2.66699 2 8 6 16c28 38 67.667 68 119 90
s104 33 158 33c71.333 0 130.666 -16.667 177.999 -50c52.667 -36.667 79 -86.667 79 -150c0 -108 -56.667 -202.333 -170 -283c-108 -76.667 -226.333 -115 -355 -115c-34.667 0 -69.334 3.66699 -104.001 11c-52 12 -94.333 35.333 -127 70
c-35.333 37.333 -53 82.666 -53 135.999c0 37.333 9 77 27 119z" />
    <glyph glyph-name="Idieresis" unicode="&#xcf;" horiz-adv-x="797" 
d="M738 610l12 0.000976562c4.66699 0 8.33398 -1 11.001 -3c0.666992 -1.33301 1.33398 -2.33301 2.00098 -3c0 -4 -4 -8.66699 -12 -14s-16.667 -8.33301 -26 -9c-10.667 -2.66699 -19 -4 -25 -4c0 -104.667 -1.83301 -223.5 -5.5 -356.5s-8.16699 -210.833 -13.5 -233.5
c0 -5.33301 -3.33301 -8 -10 -8c-4.66699 0 -12.5 2.83301 -23.5 8.5l-28.5 14.5c0 38 2 111.667 6 221s6 187.666 6 234.999v111l-157 -18c-123.333 -14.667 -210.333 -22 -261 -22l-13 -289c-2.66699 -19.333 -4.66699 -53.166 -6 -101.499s-2 -111.833 -2 -190.5l-15 -2
c-10.667 0 -20.334 2.66699 -29.001 8s-14.334 13.666 -17.001 24.999c4 28.667 8 85.334 12 170.001c2 39.333 3 67.333 3 84l2 40c0 26 -1.5 63.667 -4.5 113s-6.5 95 -10.5 137l-10 -2h-17c-29.333 0 -52 3.33301 -68 10c-24 10 -36 28 -36 54c0 1.33301 0.666992 5 2 11
s2 10.667 2 14c20.667 -6.66699 36 -11.334 46 -14.001c26 -7.33301 47 -11 63 -11l22 2c36.667 0 82.5 0.833008 137.5 2.5s119 3.5 192 5.5s127.833 3 164.5 3c0 9.33301 6 17.833 18 25.5s24 11.5 36 11.5c12.667 0 19 -3.33301 19 -10v-21z" />
    <glyph glyph-name="Idieresis" unicode="&#x41f;" horiz-adv-x="797" 
d="M738 610l12 0.000976562c4.66699 0 8.33398 -1 11.001 -3c0.666992 -1.33301 1.33398 -2.33301 2.00098 -3c0 -4 -4 -8.66699 -12 -14s-16.667 -8.33301 -26 -9c-10.667 -2.66699 -19 -4 -25 -4c0 -104.667 -1.83301 -223.5 -5.5 -356.5s-8.16699 -210.833 -13.5 -233.5
c0 -5.33301 -3.33301 -8 -10 -8c-4.66699 0 -12.5 2.83301 -23.5 8.5l-28.5 14.5c0 38 2 111.667 6 221s6 187.666 6 234.999v111l-157 -18c-123.333 -14.667 -210.333 -22 -261 -22l-13 -289c-2.66699 -19.333 -4.66699 -53.166 -6 -101.499s-2 -111.833 -2 -190.5l-15 -2
c-10.667 0 -20.334 2.66699 -29.001 8s-14.334 13.666 -17.001 24.999c4 28.667 8 85.334 12 170.001c2 39.333 3 67.333 3 84l2 40c0 26 -1.5 63.667 -4.5 113s-6.5 95 -10.5 137l-10 -2h-17c-29.333 0 -52 3.33301 -68 10c-24 10 -36 28 -36 54c0 1.33301 0.666992 5 2 11
s2 10.667 2 14c20.667 -6.66699 36 -11.334 46 -14.001c26 -7.33301 47 -11 63 -11l22 2c36.667 0 82.5 0.833008 137.5 2.5s119 3.5 192 5.5s127.833 3 164.5 3c0 9.33301 6 17.833 18 25.5s24 11.5 36 11.5c12.667 0 19 -3.33301 19 -10v-21z" />
    <glyph glyph-name="Eth" unicode="&#xd0;" horiz-adv-x="768" 
d="M144 537c-8.66699 0 -26.666 -5.8291 -53.999 -17.4961s-44.666 -17.5 -51.999 -17.5l-9 4c-6 2.66699 -12 8.16699 -18 16.5s-9 15.5 -9 21.5l4 8c10 6.66699 31.667 12.167 65 16.5s60.333 6.5 81 6.5v54c28.667 0 45.667 -7.33301 51 -22s8.66602 -22.667 9.99902 -24
l115.5 11c40.333 4 77.5 6 111.5 6c58 0 114.667 -5.66699 170 -17c38 -10.667 68 -26.334 90 -47.001s33 -45 33 -73c0 -22.667 -7.66699 -47.667 -23 -75c-30 -52 -77 -98.333 -141 -139c-60.667 -38.667 -119.667 -62 -177 -70l-19 -2
c-30.667 0 -62.334 6.66699 -95.001 20s-49 29 -49 47l2 6c0 4 3.66699 6 11 6l88.5 -17c29 -5.33301 53.5 -8 73.5 -8c25.333 0 51 3.16699 77 9.5s51 17.166 75 32.499c19.333 12 37 33.5 53 64.5s24 62.167 24 93.5c0 10.667 -0.5 19.167 -1.5 25.5
s-3.16699 14.5 -6.5 24.5c-17.333 33.333 -47 57.666 -89 72.999c-35.333 12.667 -78.666 19 -129.999 19c-34.667 0 -73.334 -3 -116.001 -9l-84 -12c0 -30 -1 -77 -3 -141s-3 -112 -3 -144c0 -31.333 1 -79 3 -143s3 -112.333 3 -145c-20.667 2.66699 -36 5 -46 7
c-31.333 7.33301 -47 17.666 -47 30.999l-1 29c0 33.333 2.66699 78.333 8 135l16 172c5.33301 58 8 107 8 147v37z" />
    <glyph glyph-name="Eth" unicode="&#x420;" horiz-adv-x="768" 
d="M144 537c-8.66699 0 -26.666 -5.8291 -53.999 -17.4961s-44.666 -17.5 -51.999 -17.5l-9 4c-6 2.66699 -12 8.16699 -18 16.5s-9 15.5 -9 21.5l4 8c10 6.66699 31.667 12.167 65 16.5s60.333 6.5 81 6.5v54c28.667 0 45.667 -7.33301 51 -22s8.66602 -22.667 9.99902 -24
l115.5 11c40.333 4 77.5 6 111.5 6c58 0 114.667 -5.66699 170 -17c38 -10.667 68 -26.334 90 -47.001s33 -45 33 -73c0 -22.667 -7.66699 -47.667 -23 -75c-30 -52 -77 -98.333 -141 -139c-60.667 -38.667 -119.667 -62 -177 -70l-19 -2
c-30.667 0 -62.334 6.66699 -95.001 20s-49 29 -49 47l2 6c0 4 3.66699 6 11 6l88.5 -17c29 -5.33301 53.5 -8 73.5 -8c25.333 0 51 3.16699 77 9.5s51 17.166 75 32.499c19.333 12 37 33.5 53 64.5s24 62.167 24 93.5c0 10.667 -0.5 19.167 -1.5 25.5
s-3.16699 14.5 -6.5 24.5c-17.333 33.333 -47 57.666 -89 72.999c-35.333 12.667 -78.666 19 -129.999 19c-34.667 0 -73.334 -3 -116.001 -9l-84 -12c0 -30 -1 -77 -3 -141s-3 -112 -3 -144c0 -31.333 1 -79 3 -143s3 -112.333 3 -145c-20.667 2.66699 -36 5 -46 7
c-31.333 7.33301 -47 17.666 -47 30.999l-1 29c0 33.333 2.66699 78.333 8 135l16 172c5.33301 58 8 107 8 147v37z" />
    <glyph glyph-name="Ntilde" unicode="&#xd1;" horiz-adv-x="778" 
d="M8 152c0 86.667 51.0039 182.001 153.004 286.001s200.333 163.667 295 179c17.333 4 37.666 6 60.999 6c39.333 0 73.833 -5.83301 103.5 -17.5s44.5 -28.834 44.5 -51.501c0 -23.333 -4.33301 -35 -13 -35c-4 0 -11.833 5.5 -23.5 16.5s-19.834 17.167 -24.501 18.5
c-38 12.667 -76.667 19 -116 19c-94.667 0 -179.334 -38.333 -254.001 -115c-68 -69.333 -110 -150.333 -126 -243l-4 -25.5c-1.33301 -8.33301 -2 -13.166 -2 -14.499c0 -48.667 21.333 -85.334 64 -110.001c37.333 -21.333 88.333 -32 153 -32c68 0 140 10.333 216 31
s135.333 45 178 73c6.66699 3.33301 12.667 5 18 5c10 0 15 -5 15 -15s-5.66699 -17.667 -17 -23c-70 -36 -148.5 -65.5 -235.5 -88.5s-166.833 -34.5 -239.5 -34.5c-74.667 0 -133.334 12.333 -176.001 37c-48 28 -72 70 -72 126z" />
    <glyph glyph-name="Ntilde" unicode="&#x421;" horiz-adv-x="778" 
d="M8 152c0 86.667 51.0039 182.001 153.004 286.001s200.333 163.667 295 179c17.333 4 37.666 6 60.999 6c39.333 0 73.833 -5.83301 103.5 -17.5s44.5 -28.834 44.5 -51.501c0 -23.333 -4.33301 -35 -13 -35c-4 0 -11.833 5.5 -23.5 16.5s-19.834 17.167 -24.501 18.5
c-38 12.667 -76.667 19 -116 19c-94.667 0 -179.334 -38.333 -254.001 -115c-68 -69.333 -110 -150.333 -126 -243l-4 -25.5c-1.33301 -8.33301 -2 -13.166 -2 -14.499c0 -48.667 21.333 -85.334 64 -110.001c37.333 -21.333 88.333 -32 153 -32c68 0 140 10.333 216 31
s135.333 45 178 73c6.66699 3.33301 12.667 5 18 5c10 0 15 -5 15 -15s-5.66699 -17.667 -17 -23c-70 -36 -148.5 -65.5 -235.5 -88.5s-166.833 -34.5 -239.5 -34.5c-74.667 0 -133.334 12.333 -176.001 37c-48 28 -72 70 -72 126z" />
    <glyph glyph-name="Ograve" unicode="&#xd2;" horiz-adv-x="759" 
d="M321 521c-18 0 -52.8301 -0.668945 -104.497 -2.00195s-78.834 -2 -81.501 -2c-22.667 0 -38.667 0.333008 -48 1c-10.667 2 -18 3 -22 3c-19.333 5.33301 -35 15 -47 29s-18 26.333 -18 37l4 11h6c52.667 -8.66699 107 -16 163 -22s108 -9 156 -9
c0 16.667 0.666992 27.667 2 33s5.66602 9.66602 12.999 12.999h4c5.33301 0 11.166 -4.16699 17.499 -12.5s9.5 -16.833 9.5 -25.5v-8c12 0 26 -0.5 42 -1.5s33.333 -1.83301 52 -2.5c40 0 85.667 2 137 6s87.666 6 108.999 6c2 0 3.33301 -1.16699 4 -3.5
s1.33398 -3.83301 2.00098 -4.5c0 -7.33301 -41.5 -15.833 -124.5 -25.5s-148.5 -14.5 -196.5 -14.5l-25 2l-23 -304c0 -46 1 -78 3 -96c4.66699 -39.333 14 -71.333 28 -96c4 -12 14 -18 30 -18c22 0 54.667 11 98 33c12.667 6.66699 39.667 22 81 46
c5.33301 2.66699 11.333 4 18 4c5.33301 0 10.5 -1.5 15.5 -4.5s7.5 -6.5 7.5 -10.5c0 -4.66699 -3.33301 -8.66699 -10 -12c-26 -17.333 -66 -36.333 -120 -57c-61.333 -23.333 -109 -35 -143 -35c-31.333 0 -54 10.333 -68 31c-11.333 16.667 -17 41.667 -17 75
c0 20.667 1.33301 42.334 4 65.001c7.33301 62 11 95.333 11 100c0 18.667 5.16699 63.834 15.5 135.501s15.5 116.834 15.5 135.501z" />
    <glyph glyph-name="Ograve" unicode="&#x422;" horiz-adv-x="759" 
d="M321 521c-18 0 -52.8301 -0.668945 -104.497 -2.00195s-78.834 -2 -81.501 -2c-22.667 0 -38.667 0.333008 -48 1c-10.667 2 -18 3 -22 3c-19.333 5.33301 -35 15 -47 29s-18 26.333 -18 37l4 11h6c52.667 -8.66699 107 -16 163 -22s108 -9 156 -9
c0 16.667 0.666992 27.667 2 33s5.66602 9.66602 12.999 12.999h4c5.33301 0 11.166 -4.16699 17.499 -12.5s9.5 -16.833 9.5 -25.5v-8c12 0 26 -0.5 42 -1.5s33.333 -1.83301 52 -2.5c40 0 85.667 2 137 6s87.666 6 108.999 6c2 0 3.33301 -1.16699 4 -3.5
s1.33398 -3.83301 2.00098 -4.5c0 -7.33301 -41.5 -15.833 -124.5 -25.5s-148.5 -14.5 -196.5 -14.5l-25 2l-23 -304c0 -46 1 -78 3 -96c4.66699 -39.333 14 -71.333 28 -96c4 -12 14 -18 30 -18c22 0 54.667 11 98 33c12.667 6.66699 39.667 22 81 46
c5.33301 2.66699 11.333 4 18 4c5.33301 0 10.5 -1.5 15.5 -4.5s7.5 -6.5 7.5 -10.5c0 -4.66699 -3.33301 -8.66699 -10 -12c-26 -17.333 -66 -36.333 -120 -57c-61.333 -23.333 -109 -35 -143 -35c-31.333 0 -54 10.333 -68 31c-11.333 16.667 -17 41.667 -17 75
c0 20.667 1.33301 42.334 4 65.001c7.33301 62 11 95.333 11 100c0 18.667 5.16699 63.834 15.5 135.501s15.5 116.834 15.5 135.501z" />
    <glyph glyph-name="Oacute" unicode="&#xd3;" horiz-adv-x="740" 
d="M312 10c-4 7.33301 -28.335 64.6699 -73.002 172.003c-46.667 113.333 -86.667 202.666 -120 267.999c-48 94 -84.333 143.333 -109 148l-4 8c0 10 13.333 15 40 15c14.667 0 31.667 -1.66699 51 -5s31.333 -6.66602 36 -9.99902
c17.333 -8.66699 38.666 -42.667 63.999 -102c8.66699 -21.333 33.667 -88.333 75 -201c32.667 -90.667 63.667 -168 93 -232c72.667 86 133.5 178.333 182.5 277s73.5 180.667 73.5 246c0 14.667 -0.5 25.667 -1.5 33s-3.16699 15.666 -6.5 24.999l-1 4
c8.66699 1.33301 26.834 -12.834 54.501 -42.501s41.5 -52.834 41.5 -69.501l-2 -7c-76 -145.333 -152.667 -271 -230 -377c-36.667 -50 -87 -111 -151 -183c-36 -40 -54 -67.667 -54 -83c1.33301 -1.33301 4 -2 8 -2h13c20.667 0 69.834 5.5 147.501 16.5
s126.834 16.5 147.501 16.5c2.66699 0 4.66699 -0.5 6 -1.5s2.33301 -1.83301 3 -2.5c0 -4 -3.16699 -9 -9.5 -15s-15.166 -10 -26.499 -12l-358 -84l-17 -2c-8.66699 0 -16.334 2 -23.001 6s-10 10.333 -10 19l4 15l127 124c19.333 20 29 32.667 29 38z" />
    <glyph glyph-name="Oacute" unicode="&#x423;" horiz-adv-x="740" 
d="M312 10c-4 7.33301 -28.335 64.6699 -73.002 172.003c-46.667 113.333 -86.667 202.666 -120 267.999c-48 94 -84.333 143.333 -109 148l-4 8c0 10 13.333 15 40 15c14.667 0 31.667 -1.66699 51 -5s31.333 -6.66602 36 -9.99902
c17.333 -8.66699 38.666 -42.667 63.999 -102c8.66699 -21.333 33.667 -88.333 75 -201c32.667 -90.667 63.667 -168 93 -232c72.667 86 133.5 178.333 182.5 277s73.5 180.667 73.5 246c0 14.667 -0.5 25.667 -1.5 33s-3.16699 15.666 -6.5 24.999l-1 4
c8.66699 1.33301 26.834 -12.834 54.501 -42.501s41.5 -52.834 41.5 -69.501l-2 -7c-76 -145.333 -152.667 -271 -230 -377c-36.667 -50 -87 -111 -151 -183c-36 -40 -54 -67.667 -54 -83c1.33301 -1.33301 4 -2 8 -2h13c20.667 0 69.834 5.5 147.501 16.5
s126.834 16.5 147.501 16.5c2.66699 0 4.66699 -0.5 6 -1.5s2.33301 -1.83301 3 -2.5c0 -4 -3.16699 -9 -9.5 -15s-15.166 -10 -26.499 -12l-358 -84l-17 -2c-8.66699 0 -16.334 2 -23.001 6s-10 10.333 -10 19l4 15l127 124c19.333 20 29 32.667 29 38z" />
    <glyph glyph-name="Ocircumflex" unicode="&#xd4;" horiz-adv-x="855" 
d="M35 344c24 50 72.001 99.334 144.001 148.001c62.667 42 127.334 73.667 194.001 95l-6 34c0 3.33301 2.66699 11 8 23c2.66699 2.66699 7 4 13 4c12.667 0 25.667 -3.5 39 -10.5s21.666 -15.167 24.999 -24.5v-13c14 0 25 -2 33 -6l2 -6
c0 -2.66699 -5.83301 -4.83398 -17.5 -6.50098s-18.167 -2.5 -19.5 -2.5c-1.33301 -5.33301 -2 -14.333 -2 -27c32 7.33301 68 11 108 11c72.667 0 133 -13.667 181 -41c53.333 -30.667 80 -72.667 80 -126c0 -73.333 -39 -140.666 -117 -201.999
c-72 -56.667 -160.333 -96.334 -265 -119.001c0 -13.333 0.166992 -27.666 0.5 -42.999s3.16602 -28 8.49902 -38c0 -6 -5.66699 -9 -17 -9c-7.33301 0 -16.833 2 -28.5 6s-17.5 7 -17.5 9l2 2c-1.33301 6.66699 -2.33301 17.167 -3 31.5s-1 26.166 -1 35.499
c-17.333 -2 -34 -3.66699 -50 -5s-32 -2 -48 -2c-32.667 0 -63.667 3 -93 9c-52 9.33301 -94.333 28.333 -127 57c-35.333 31.333 -53 69.333 -53 114c0 32 9 66 27 102zM375.001 563.001c-21.333 -5.33301 -44.3311 -13.333 -68.998 -24s-47.667 -23 -69 -37
c-41.333 -26 -75.166 -63.167 -101.499 -111.5s-39.5 -94.5 -39.5 -138.5c0 -22 3.83301 -41.667 11.5 -59s19.167 -30.333 34.5 -39c13.333 -14 36.666 -24.833 69.999 -32.5s72.333 -11.5 117 -11.5l50 2c0 8 0.666992 20.333 2 37s2 29.334 2 38.001v217
c0 12.667 -0.666992 29 -2 49s-2 33.667 -2 41c-26 -13.333 -42.667 -26 -50 -38c-2.66699 -6.66699 -7.33398 -11.834 -14.001 -15.501s-13 -5.5 -19 -5.5c-12.667 0 -19 4.33301 -19 13l6 14c23.333 26.667 54.666 49 93.999 67zM433.003 113.001
c31.333 3.33301 59.167 7.83203 83.5 13.499s44.5 12.834 60.5 21.501c46 26 85 58 117 96c36 42.667 54 83 54 121v20c-10.667 55.333 -35.667 96.666 -75 123.999c-33.333 23.333 -74.333 35 -123 35h-17c-27.333 0 -56.333 -5.66699 -87 -17
c0 -37.333 -1.33301 -81 -4 -131c-7.33301 -137.333 -11 -220.666 -11 -249.999z" />
    <glyph glyph-name="Ocircumflex" unicode="&#x424;" horiz-adv-x="855" 
d="M35 344c24 50 72.001 99.334 144.001 148.001c62.667 42 127.334 73.667 194.001 95l-6 34c0 3.33301 2.66699 11 8 23c2.66699 2.66699 7 4 13 4c12.667 0 25.667 -3.5 39 -10.5s21.666 -15.167 24.999 -24.5v-13c14 0 25 -2 33 -6l2 -6
c0 -2.66699 -5.83301 -4.83398 -17.5 -6.50098s-18.167 -2.5 -19.5 -2.5c-1.33301 -5.33301 -2 -14.333 -2 -27c32 7.33301 68 11 108 11c72.667 0 133 -13.667 181 -41c53.333 -30.667 80 -72.667 80 -126c0 -73.333 -39 -140.666 -117 -201.999
c-72 -56.667 -160.333 -96.334 -265 -119.001c0 -13.333 0.166992 -27.666 0.5 -42.999s3.16602 -28 8.49902 -38c0 -6 -5.66699 -9 -17 -9c-7.33301 0 -16.833 2 -28.5 6s-17.5 7 -17.5 9l2 2c-1.33301 6.66699 -2.33301 17.167 -3 31.5s-1 26.166 -1 35.499
c-17.333 -2 -34 -3.66699 -50 -5s-32 -2 -48 -2c-32.667 0 -63.667 3 -93 9c-52 9.33301 -94.333 28.333 -127 57c-35.333 31.333 -53 69.333 -53 114c0 32 9 66 27 102zM375.001 563.001c-21.333 -5.33301 -44.3311 -13.333 -68.998 -24s-47.667 -23 -69 -37
c-41.333 -26 -75.166 -63.167 -101.499 -111.5s-39.5 -94.5 -39.5 -138.5c0 -22 3.83301 -41.667 11.5 -59s19.167 -30.333 34.5 -39c13.333 -14 36.666 -24.833 69.999 -32.5s72.333 -11.5 117 -11.5l50 2c0 8 0.666992 20.333 2 37s2 29.334 2 38.001v217
c0 12.667 -0.666992 29 -2 49s-2 33.667 -2 41c-26 -13.333 -42.667 -26 -50 -38c-2.66699 -6.66699 -7.33398 -11.834 -14.001 -15.501s-13 -5.5 -19 -5.5c-12.667 0 -19 4.33301 -19 13l6 14c23.333 26.667 54.666 49 93.999 67zM433.003 113.001
c31.333 3.33301 59.167 7.83203 83.5 13.499s44.5 12.834 60.5 21.501c46 26 85 58 117 96c36 42.667 54 83 54 121v20c-10.667 55.333 -35.667 96.666 -75 123.999c-33.333 23.333 -74.333 35 -123 35h-17c-27.333 0 -56.333 -5.66699 -87 -17
c0 -37.333 -1.33301 -81 -4 -131c-7.33301 -137.333 -11 -220.666 -11 -249.999z" />
    <glyph glyph-name="Otilde" unicode="&#xd5;" horiz-adv-x="788" 
d="M358 327l-194.997 225c-13.333 15.333 -29.333 27.833 -48 37.5l-52 27.5l8 12l50 4c63.333 0 118.666 -31.333 165.999 -94l117 -166l71 75l107 108c40.667 39.333 71.667 66.333 93 81l10 1c12 0 25.833 -8.5 41.5 -25.5s23.5 -30.167 23.5 -39.5c0 -4 -2 -6 -6 -6
c-2.66699 1.33301 -7.66699 2 -15 2c-30 0 -83 -30.333 -159 -91c-50 -40 -97.667 -82.667 -143 -128c39.333 -62 87.666 -126.667 144.999 -194c74.667 -87.333 127 -131 157 -131c4.66699 0 8 -1 10 -3c0 -1.33301 0.333008 -2.33301 1 -3
c0 -4.66699 -10.833 -11.5 -32.5 -20.5s-40.167 -13.5 -55.5 -13.5l-15 2c-9.33301 2 -30.333 22 -63 60c-19.333 22.667 -53 65 -101 127l-100 130c-70.667 -79.333 -134.334 -158 -191.001 -236l-101 -147c-22 -33.333 -35.667 -50 -41 -50
c-4.66699 0 -12.5 9.83301 -23.5 29.5s-16.5 34.167 -16.5 43.5l2 4z" />
    <glyph glyph-name="Otilde" unicode="&#x425;" horiz-adv-x="788" 
d="M358 327l-194.997 225c-13.333 15.333 -29.333 27.833 -48 37.5l-52 27.5l8 12l50 4c63.333 0 118.666 -31.333 165.999 -94l117 -166l71 75l107 108c40.667 39.333 71.667 66.333 93 81l10 1c12 0 25.833 -8.5 41.5 -25.5s23.5 -30.167 23.5 -39.5c0 -4 -2 -6 -6 -6
c-2.66699 1.33301 -7.66699 2 -15 2c-30 0 -83 -30.333 -159 -91c-50 -40 -97.667 -82.667 -143 -128c39.333 -62 87.666 -126.667 144.999 -194c74.667 -87.333 127 -131 157 -131c4.66699 0 8 -1 10 -3c0 -1.33301 0.333008 -2.33301 1 -3
c0 -4.66699 -10.833 -11.5 -32.5 -20.5s-40.167 -13.5 -55.5 -13.5l-15 2c-9.33301 2 -30.333 22 -63 60c-19.333 22.667 -53 65 -101 127l-100 130c-70.667 -79.333 -134.334 -158 -191.001 -236l-101 -147c-22 -33.333 -35.667 -50 -41 -50
c-4.66699 0 -12.5 9.83301 -23.5 29.5s-16.5 34.167 -16.5 43.5l2 4z" />
    <glyph glyph-name="Odieresis" unicode="&#xd6;" horiz-adv-x="778" 
d="M125 44l229.003 -1.99902l127 2h4c22.667 0 34 -5 34 -15c0 -4.66699 -3.16699 -8.66699 -9.5 -12s-15.833 -5 -28.5 -5c-74.667 -7.33301 -133.334 -12.5 -176.001 -15.5s-79 -4.5 -109 -4.5l-9 2c-2.66699 0 -11.334 -0.666992 -26.001 -2s-26.667 -2 -36 -2v-42
l-15 -2c-10.667 0 -20.5 2.66699 -29.5 8s-14.833 13.666 -17.5 24.999v17c-18 3.33301 -31.667 8.66602 -41 15.999c-12 9.33301 -18 22 -18 38c0 0.666992 0.666992 3.33398 2 8.00098s2 8.33398 2 11.001c11.333 -6 31.666 -12.333 60.999 -19
c2.66699 26.667 5 57.667 7 93s3 65.333 3 90c2.66699 17.333 4 50.666 4 99.999c0 50.667 -1.33301 102 -4 154s-6.66699 89.667 -12 113c3.33301 6.66699 10.333 10 21 10c14 0 29.5 -4.66699 46.5 -14s25.5 -18.333 25.5 -27l-27 -323
c-4.66699 -22 -7.16699 -56.667 -7.5 -104s-0.5 -80 -0.5 -98zM552.003 598.001c0 4 4.33203 5.99902 12.999 5.99902c12 0 25.667 -3.16699 41 -9.5s23 -12.833 23 -19.5c0 -143.333 -1 -259.333 -3 -348s-5 -157.334 -9 -206.001c14 16.667 27 33.334 39 50.001
s24.667 35.334 38 56.001c14.667 19.333 25 29 31 29c4 0 7.16699 -2.66699 9.5 -8s4.16602 -12.333 5.49902 -21c-28 -44.667 -56.333 -86.667 -85 -126c-38 -51.333 -72.333 -93 -103 -125c-37.333 -38 -65.666 -57 -84.999 -57h-5c-16 2 -31 12 -45 30s-21 32.333 -21 43
c0 5.33301 2 8 6 8c6 0 13 -4 21 -12c4.66699 -3.33301 10.334 -5 17.001 -5c16 0 37 9.5 63 28.5s52.667 43.5 80 73.5c-6 2.66699 -11.667 5.5 -17 8.5s-10 5.83301 -14 8.5v596z" />
    <glyph glyph-name="Odieresis" unicode="&#x426;" horiz-adv-x="778" 
d="M125 44l229.003 -1.99902l127 2h4c22.667 0 34 -5 34 -15c0 -4.66699 -3.16699 -8.66699 -9.5 -12s-15.833 -5 -28.5 -5c-74.667 -7.33301 -133.334 -12.5 -176.001 -15.5s-79 -4.5 -109 -4.5l-9 2c-2.66699 0 -11.334 -0.666992 -26.001 -2s-26.667 -2 -36 -2v-42
l-15 -2c-10.667 0 -20.5 2.66699 -29.5 8s-14.833 13.666 -17.5 24.999v17c-18 3.33301 -31.667 8.66602 -41 15.999c-12 9.33301 -18 22 -18 38c0 0.666992 0.666992 3.33398 2 8.00098s2 8.33398 2 11.001c11.333 -6 31.666 -12.333 60.999 -19
c2.66699 26.667 5 57.667 7 93s3 65.333 3 90c2.66699 17.333 4 50.666 4 99.999c0 50.667 -1.33301 102 -4 154s-6.66699 89.667 -12 113c3.33301 6.66699 10.333 10 21 10c14 0 29.5 -4.66699 46.5 -14s25.5 -18.333 25.5 -27l-27 -323
c-4.66699 -22 -7.16699 -56.667 -7.5 -104s-0.5 -80 -0.5 -98zM552.003 598.001c0 4 4.33203 5.99902 12.999 5.99902c12 0 25.667 -3.16699 41 -9.5s23 -12.833 23 -19.5c0 -143.333 -1 -259.333 -3 -348s-5 -157.334 -9 -206.001c14 16.667 27 33.334 39 50.001
s24.667 35.334 38 56.001c14.667 19.333 25 29 31 29c4 0 7.16699 -2.66699 9.5 -8s4.16602 -12.333 5.49902 -21c-28 -44.667 -56.333 -86.667 -85 -126c-38 -51.333 -72.333 -93 -103 -125c-37.333 -38 -65.666 -57 -84.999 -57h-5c-16 2 -31 12 -45 30s-21 32.333 -21 43
c0 5.33301 2 8 6 8c6 0 13 -4 21 -12c4.66699 -3.33301 10.334 -5 17.001 -5c16 0 37 9.5 63 28.5s52.667 43.5 80 73.5c-6 2.66699 -11.667 5.5 -17 8.5s-10 5.83301 -14 8.5v596z" />
    <glyph glyph-name="multiply" unicode="&#xd7;" horiz-adv-x="643" 
d="M6 242l-3.99805 51.998c0 20.667 1.5 40.334 4.5 59.001l8.5 51c5.33301 22.667 9 42 11 58s3 32 3 48c0 21.333 -2.66699 41.333 -8 60l-8 28c0 7.33301 8.33301 12.333 25 15c27.333 -4.66699 47 -12.667 59 -24s18 -27 18 -47c0 -18 -6 -49.167 -18 -93.5l-37 -136.5
c0 -30 10.833 -56.5 32.5 -79.5s47.167 -34.5 76.5 -34.5c7.33301 0 16.166 1.33301 26.499 4s19.5 6 27.5 10c32 16 63.333 41.667 94 77c25.333 29.333 50.333 66.333 75 111c5.33301 15.333 10.5 39.5 15.5 72.5l15.5 102.5h6c29.333 0 50.333 -12.667 63 -38
c9.33301 -18.667 14 -45.667 14 -81v-62l2 -21l24 -249c11.333 -66 37.333 -104 78 -114v-4c0 -6.66699 -13.833 -15.5 -41.5 -26.5s-45.5 -16.5 -53.5 -16.5h-5c-16.667 0 -32 52.667 -46 158l-17 126l-12.5 89.5c-3 21 -7.5 37.167 -13.5 48.5
c-27.333 -53.333 -56 -97.666 -86 -132.999c-36 -42.667 -76 -74 -120 -94c-30.667 -15.333 -61.334 -23 -92.001 -23c-32 0 -59 9 -81 27c-24 20 -36 46.667 -36 80z" />
    <glyph glyph-name="multiply" unicode="&#x427;" horiz-adv-x="643" 
d="M6 242l-3.99805 51.998c0 20.667 1.5 40.334 4.5 59.001l8.5 51c5.33301 22.667 9 42 11 58s3 32 3 48c0 21.333 -2.66699 41.333 -8 60l-8 28c0 7.33301 8.33301 12.333 25 15c27.333 -4.66699 47 -12.667 59 -24s18 -27 18 -47c0 -18 -6 -49.167 -18 -93.5l-37 -136.5
c0 -30 10.833 -56.5 32.5 -79.5s47.167 -34.5 76.5 -34.5c7.33301 0 16.166 1.33301 26.499 4s19.5 6 27.5 10c32 16 63.333 41.667 94 77c25.333 29.333 50.333 66.333 75 111c5.33301 15.333 10.5 39.5 15.5 72.5l15.5 102.5h6c29.333 0 50.333 -12.667 63 -38
c9.33301 -18.667 14 -45.667 14 -81v-62l2 -21l24 -249c11.333 -66 37.333 -104 78 -114v-4c0 -6.66699 -13.833 -15.5 -41.5 -26.5s-45.5 -16.5 -53.5 -16.5h-5c-16.667 0 -32 52.667 -46 158l-17 126l-12.5 89.5c-3 21 -7.5 37.167 -13.5 48.5
c-27.333 -53.333 -56 -97.666 -86 -132.999c-36 -42.667 -76 -74 -120 -94c-30.667 -15.333 -61.334 -23 -92.001 -23c-32 0 -59 9 -81 27c-24 20 -36 46.667 -36 80z" />
    <glyph glyph-name="Oslash" unicode="&#xd8;" horiz-adv-x="855" 
d="M744 598c0 4 4.66699 6 14 6c11.333 0 24.666 -3.16699 39.999 -9.5s23 -12.833 23 -19.5c0 -49.333 -0.833008 -107 -2.5 -173l-5.5 -221.5c-2 -81.667 -3 -134.834 -3 -159.501l2 -15c0 -10.667 -3.66699 -18.5 -11 -23.5s-16 -7.5 -26 -7.5
c-7.33301 0 -14.666 2.33301 -21.999 7s-11 9.33398 -11 14.001l2 6v596zM673 44l4.00098 0.000976562c23.333 0 35 -5 35 -15c0 -11.333 -13 -17 -39 -17c-46.667 -4.66699 -123.5 -9.16699 -230.5 -13.5s-189.833 -6.5 -248.5 -6.5l-9 2
c-2.66699 0 -11.334 -0.666992 -26.001 -2s-26.667 -2 -36 -2v-42l-15 -2c-11.333 0 -21.166 2.66699 -29.499 8s-13.833 13.666 -16.5 24.999v17c-18.667 3.33301 -32.667 8.66602 -42 15.999c-12 9.33301 -18 22 -18 38c0 0.666992 0.666992 3.33398 2 8.00098
s2 8.33398 2 11.001c11.333 -6 31.666 -12.333 60.999 -19c2.66699 26.667 5 57.667 7 93s3 65.333 3 90c2.66699 17.333 4 50.666 4 99.999c0 50.667 -1.33301 102 -4 154s-6.66699 89.667 -12 113c3.33301 6.66699 10.666 10 21.999 10c13.333 0 28.5 -4.83301 45.5 -14.5
s25.5 -18.5 25.5 -26.5l-27 -323c-4.66699 -22 -7.16699 -56.667 -7.5 -104s-0.5 -80 -0.5 -98l267 -2c0 40.667 0.333008 72.667 1 96c3.33301 115.333 5 175.666 5 180.999c0 68 -0.666992 121.833 -2 161.5s-2.66602 84.5 -3.99902 134.5c0 4 4.66699 6 14 6
c12.667 0 26.334 -2.83301 41.001 -8.5s22 -12.5 22 -20.5c0 -35.333 -1 -89.166 -3 -161.499l-6.5 -236.5c-2.33301 -85.333 -3.5 -136 -3.5 -152c32 0 66.167 0.166992 102.5 0.5s75.166 0.833008 116.499 1.5z" />
    <glyph glyph-name="Oslash" unicode="&#x428;" horiz-adv-x="855" 
d="M744 598c0 4 4.66699 6 14 6c11.333 0 24.666 -3.16699 39.999 -9.5s23 -12.833 23 -19.5c0 -49.333 -0.833008 -107 -2.5 -173l-5.5 -221.5c-2 -81.667 -3 -134.834 -3 -159.501l2 -15c0 -10.667 -3.66699 -18.5 -11 -23.5s-16 -7.5 -26 -7.5
c-7.33301 0 -14.666 2.33301 -21.999 7s-11 9.33398 -11 14.001l2 6v596zM673 44l4.00098 0.000976562c23.333 0 35 -5 35 -15c0 -11.333 -13 -17 -39 -17c-46.667 -4.66699 -123.5 -9.16699 -230.5 -13.5s-189.833 -6.5 -248.5 -6.5l-9 2
c-2.66699 0 -11.334 -0.666992 -26.001 -2s-26.667 -2 -36 -2v-42l-15 -2c-11.333 0 -21.166 2.66699 -29.499 8s-13.833 13.666 -16.5 24.999v17c-18.667 3.33301 -32.667 8.66602 -42 15.999c-12 9.33301 -18 22 -18 38c0 0.666992 0.666992 3.33398 2 8.00098
s2 8.33398 2 11.001c11.333 -6 31.666 -12.333 60.999 -19c2.66699 26.667 5 57.667 7 93s3 65.333 3 90c2.66699 17.333 4 50.666 4 99.999c0 50.667 -1.33301 102 -4 154s-6.66699 89.667 -12 113c3.33301 6.66699 10.666 10 21.999 10c13.333 0 28.5 -4.83301 45.5 -14.5
s25.5 -18.5 25.5 -26.5l-27 -323c-4.66699 -22 -7.16699 -56.667 -7.5 -104s-0.5 -80 -0.5 -98l267 -2c0 40.667 0.333008 72.667 1 96c3.33301 115.333 5 175.666 5 180.999c0 68 -0.666992 121.833 -2 161.5s-2.66602 84.5 -3.99902 134.5c0 4 4.66699 6 14 6
c12.667 0 26.334 -2.83301 41.001 -8.5s22 -12.5 22 -20.5c0 -35.333 -1 -89.166 -3 -161.499l-6.5 -236.5c-2.33301 -85.333 -3.5 -136 -3.5 -152c32 0 66.167 0.166992 102.5 0.5s75.166 0.833008 116.499 1.5z" />
    <glyph glyph-name="Ugrave" unicode="&#xd9;" horiz-adv-x="970" 
d="M744 598c0 4 4.66895 6.00195 14.002 6.00195c11.333 0 24.666 -3.16699 39.999 -9.5s23 -12.833 23 -19.5c0 -49.333 -0.833008 -107 -2.5 -173l-5.5 -221.5c-2 -81.667 -3 -134.834 -3 -159.501c12.667 15.333 22.667 28 30 38c3.33301 4 19 26.667 47 68
c14 19.333 24 29 30 29c3.33301 0 6.5 -2.83301 9.5 -8.5s5.16699 -12.5 6.5 -20.5c-27.333 -43.333 -56 -85.333 -86 -126c-40 -54.667 -74 -96.334 -102 -125.001c-36.667 -38 -65 -57 -85 -57h-6c-16 2 -31 12 -45 30s-21 32.333 -21 43c0 5.33301 2 8 6 8
c6.66699 0 13.667 -4 21 -12c4.66699 -3.33301 10.667 -5 18 -5c15.333 0 36.166 9.5 62.499 28.5s52.833 43.5 79.5 73.5c-6 2.66699 -11.667 5.5 -17 8.5s-10 5.83301 -14 8.5v596zM673.002 44.002l4.00098 0.000976562c23.333 0 35 -5 35 -15c0 -11.333 -13 -17 -39 -17
c-46.667 -4.66699 -123.5 -9.16699 -230.5 -13.5s-189.833 -6.5 -248.5 -6.5l-9 2c-2.66699 0 -11.334 -0.666992 -26.001 -2s-26.667 -2 -36 -2v-42l-15 -2c-11.333 0 -21.166 2.66699 -29.499 8s-13.833 13.666 -16.5 24.999v17
c-18.667 3.33301 -32.667 8.66602 -42 15.999c-12 9.33301 -18 22 -18 38c0 0.666992 0.666992 3.33398 2 8.00098s2 8.33398 2 11.001c11.333 -6 31.666 -12.333 60.999 -19c2.66699 26.667 5 57.667 7 93s3 65.333 3 90c2.66699 17.333 4 50.666 4 99.999
c0 50.667 -1.33301 102 -4 154s-6.66699 89.667 -12 113c3.33301 6.66699 10.666 10 21.999 10c13.333 0 28.5 -4.83301 45.5 -14.5s25.5 -18.5 25.5 -26.5l-27 -323c-4.66699 -22 -7.16699 -56.667 -7.5 -104s-0.5 -80 -0.5 -98l267 -2c0 40.667 0.333008 72.667 1 96
c3.33301 115.333 5 175.666 5 180.999c0 68 -0.666992 121.833 -2 161.5s-2.66602 84.5 -3.99902 134.5c0 4 4.66699 6 14 6c12.667 0 26.334 -2.83301 41.001 -8.5s22 -12.5 22 -20.5c0 -35.333 -1 -89.166 -3 -161.499l-6.5 -236.5c-2.33301 -85.333 -3.5 -136 -3.5 -152
c32 0 66.167 0.166992 102.5 0.5s75.166 0.833008 116.499 1.5z" />
    <glyph glyph-name="Ugrave" unicode="&#x429;" horiz-adv-x="970" 
d="M744 598c0 4 4.66895 6.00195 14.002 6.00195c11.333 0 24.666 -3.16699 39.999 -9.5s23 -12.833 23 -19.5c0 -49.333 -0.833008 -107 -2.5 -173l-5.5 -221.5c-2 -81.667 -3 -134.834 -3 -159.501c12.667 15.333 22.667 28 30 38c3.33301 4 19 26.667 47 68
c14 19.333 24 29 30 29c3.33301 0 6.5 -2.83301 9.5 -8.5s5.16699 -12.5 6.5 -20.5c-27.333 -43.333 -56 -85.333 -86 -126c-40 -54.667 -74 -96.334 -102 -125.001c-36.667 -38 -65 -57 -85 -57h-6c-16 2 -31 12 -45 30s-21 32.333 -21 43c0 5.33301 2 8 6 8
c6.66699 0 13.667 -4 21 -12c4.66699 -3.33301 10.667 -5 18 -5c15.333 0 36.166 9.5 62.499 28.5s52.833 43.5 79.5 73.5c-6 2.66699 -11.667 5.5 -17 8.5s-10 5.83301 -14 8.5v596zM673.002 44.002l4.00098 0.000976562c23.333 0 35 -5 35 -15c0 -11.333 -13 -17 -39 -17
c-46.667 -4.66699 -123.5 -9.16699 -230.5 -13.5s-189.833 -6.5 -248.5 -6.5l-9 2c-2.66699 0 -11.334 -0.666992 -26.001 -2s-26.667 -2 -36 -2v-42l-15 -2c-11.333 0 -21.166 2.66699 -29.499 8s-13.833 13.666 -16.5 24.999v17
c-18.667 3.33301 -32.667 8.66602 -42 15.999c-12 9.33301 -18 22 -18 38c0 0.666992 0.666992 3.33398 2 8.00098s2 8.33398 2 11.001c11.333 -6 31.666 -12.333 60.999 -19c2.66699 26.667 5 57.667 7 93s3 65.333 3 90c2.66699 17.333 4 50.666 4 99.999
c0 50.667 -1.33301 102 -4 154s-6.66699 89.667 -12 113c3.33301 6.66699 10.666 10 21.999 10c13.333 0 28.5 -4.83301 45.5 -14.5s25.5 -18.5 25.5 -26.5l-27 -323c-4.66699 -22 -7.16699 -56.667 -7.5 -104s-0.5 -80 -0.5 -98l267 -2c0 40.667 0.333008 72.667 1 96
c3.33301 115.333 5 175.666 5 180.999c0 68 -0.666992 121.833 -2 161.5s-2.66602 84.5 -3.99902 134.5c0 4 4.66699 6 14 6c12.667 0 26.334 -2.83301 41.001 -8.5s22 -12.5 22 -20.5c0 -35.333 -1 -89.166 -3 -161.499l-6.5 -236.5c-2.33301 -85.333 -3.5 -136 -3.5 -152
c32 0 66.167 0.166992 102.5 0.5s75.166 0.833008 116.499 1.5z" />
    <glyph glyph-name="Uacute" unicode="&#xda;" horiz-adv-x="884" 
d="M306 521c-21.333 0 -41.665 -0.662109 -60.998 -1.99512c-66.667 -4.66699 -106.667 -7 -120 -7l-13 -2c-34 0 -62.333 11.667 -85 35c-18 18.667 -27 35.667 -27 51l2 8c2.66699 2.66699 7 4 13 4c38.667 -11.333 82.834 -21.333 132.501 -30s103.167 -13 160.5 -13v29
c-2 5.33301 -3.33301 9 -4 11c-2.66699 7.33301 -4 12.666 -4 15.999c0 8.66699 2.33301 15 7 19s10.667 6 18 6c14.667 0 29.167 -5.66699 43.5 -17s21.5 -25.333 21.5 -42l-3 -22c9.33301 0 21.333 1 36 3s23.667 3 27 3c8 0 12 -2 12 -6
c0 -7.33301 -9.66699 -14.5 -29 -21.5s-36 -10.5 -50 -10.5c-4 -32 -8.16699 -78.5 -12.5 -139.5l-12.5 -181.5c-4 -60 -9.33301 -114.667 -16 -164c62 -10 116.667 -15 164 -15c84 0 148.833 14.667 194.5 44s68.5 71 68.5 125v6c0 38 -20.333 66.667 -61 86
c-35.333 16.667 -82.333 25 -141 25c-22.667 0 -44.334 -0.833008 -65.001 -2.5s-50.334 -5.83398 -89.001 -12.501c-4 0 -7.66699 1.33301 -11 4c-6.66699 4.66699 -10 11 -10 19c0 5.33301 2.66699 10.5 8 15.5s12.333 7.5 21 7.5c5.33301 -2 11.333 -3.5 18 -4.5
s11.667 -1.5 15 -1.5c15.333 0 42 2 80 6s61.333 6 70 6h27c54.667 0 102.667 -10.333 144 -31c52.667 -26.667 79 -65 79 -115c0 -62.667 -51.333 -116 -154 -160c-93.333 -40 -196 -60 -308 -60c-44 0 -81 3.5 -111 10.5s-51.333 15.667 -64 26s-19 20.166 -19 29.499
c0 3.33301 1.66699 6.66602 5 9.99902s6.66602 5 9.99902 5h6c12 -4 23.833 -7.5 35.5 -10.5s25.5 -4.5 41.5 -4.5c0 34.667 0.666992 79.667 2 135s3 118.666 5 189.999s3 118 3 140z" />
    <glyph glyph-name="Uacute" unicode="&#x42a;" horiz-adv-x="884" 
d="M306 521c-21.333 0 -41.665 -0.662109 -60.998 -1.99512c-66.667 -4.66699 -106.667 -7 -120 -7l-13 -2c-34 0 -62.333 11.667 -85 35c-18 18.667 -27 35.667 -27 51l2 8c2.66699 2.66699 7 4 13 4c38.667 -11.333 82.834 -21.333 132.501 -30s103.167 -13 160.5 -13v29
c-2 5.33301 -3.33301 9 -4 11c-2.66699 7.33301 -4 12.666 -4 15.999c0 8.66699 2.33301 15 7 19s10.667 6 18 6c14.667 0 29.167 -5.66699 43.5 -17s21.5 -25.333 21.5 -42l-3 -22c9.33301 0 21.333 1 36 3s23.667 3 27 3c8 0 12 -2 12 -6
c0 -7.33301 -9.66699 -14.5 -29 -21.5s-36 -10.5 -50 -10.5c-4 -32 -8.16699 -78.5 -12.5 -139.5l-12.5 -181.5c-4 -60 -9.33301 -114.667 -16 -164c62 -10 116.667 -15 164 -15c84 0 148.833 14.667 194.5 44s68.5 71 68.5 125v6c0 38 -20.333 66.667 -61 86
c-35.333 16.667 -82.333 25 -141 25c-22.667 0 -44.334 -0.833008 -65.001 -2.5s-50.334 -5.83398 -89.001 -12.501c-4 0 -7.66699 1.33301 -11 4c-6.66699 4.66699 -10 11 -10 19c0 5.33301 2.66699 10.5 8 15.5s12.333 7.5 21 7.5c5.33301 -2 11.333 -3.5 18 -4.5
s11.667 -1.5 15 -1.5c15.333 0 42 2 80 6s61.333 6 70 6h27c54.667 0 102.667 -10.333 144 -31c52.667 -26.667 79 -65 79 -115c0 -62.667 -51.333 -116 -154 -160c-93.333 -40 -196 -60 -308 -60c-44 0 -81 3.5 -111 10.5s-51.333 15.667 -64 26s-19 20.166 -19 29.499
c0 3.33301 1.66699 6.66602 5 9.99902s6.66602 5 9.99902 5h6c12 -4 23.833 -7.5 35.5 -10.5s25.5 -4.5 41.5 -4.5c0 34.667 0.666992 79.667 2 135s3 118.666 5 189.999s3 118 3 140z" />
    <glyph glyph-name="Ucircumflex" unicode="&#xdb;" horiz-adv-x="807" 
d="M700 2c0 23.333 1.33301 68.667 4 136s4 119.333 4 156c0 82 -0.666992 149.333 -2 202s-3.33301 86.667 -6 102c0 4 4.33301 6 13 6c12 0 25.667 -3.16699 41 -9.5s23 -12.833 23 -19.5v-57c0 -188 -1 -318.5 -3 -391.5s-6 -119.5 -12 -139.5
c0 -5.33301 -3.33301 -8 -10 -8c-5.33301 0 -13.333 2.83301 -24 8.5zM113 562.001l0.000976562 32.0039l-4.5 16c-1.66699 6 -2.5 9.66699 -2.5 11c0 8.66699 2.33301 15 7 19s10.667 6 18 6c14.667 0 29.167 -5.66699 43.5 -17s21.5 -25.333 21.5 -42l-4 -27
c-4.66699 -33.333 -9.16699 -81.5 -13.5 -144.5l-13.5 -195c-4.66699 -67 -10.334 -124.5 -17.001 -172.5c62 -10 116.667 -15 164 -15c84 0 148.833 14.667 194.5 44s68.5 71 68.5 125v6c0 38 -20.333 66.667 -61 86c-35.333 16.667 -82.333 25 -141 25
c-23.333 0 -45.333 -0.833008 -66 -2.5s-50 -5.83398 -88 -12.501c-4 0 -7.66699 1.33301 -11 4c-6.66699 4.66699 -10 11 -10 19c0 5.33301 2.66699 10.5 8 15.5s12.333 7.5 21 7.5c5.33301 -2 11.333 -3.5 18 -4.5s11.667 -1.5 15 -1.5c15.333 0 42 2 80 6s61.333 6 70 6
h27c54.667 0 102.667 -10.333 144 -31c52.667 -26.667 79 -65 79 -115c0 -62.667 -51.333 -116 -154 -160c-93.333 -40 -196 -60 -308 -60c-45.333 0 -82.666 3.5 -111.999 10.5s-50.333 15.667 -63 26s-19 20.166 -19 29.499c0 3.33301 1.66699 6.66602 5 9.99902
s6.66602 5 9.99902 5h6c14 -4.66699 26.167 -8.33398 36.5 -11.001s23.833 -4 40.5 -4c2.66699 30 5.16699 95.833 7.5 197.5s3.5 204.5 3.5 308.5z" />
    <glyph glyph-name="Ucircumflex" unicode="&#x42b;" horiz-adv-x="807" 
d="M700 2c0 23.333 1.33301 68.667 4 136s4 119.333 4 156c0 82 -0.666992 149.333 -2 202s-3.33301 86.667 -6 102c0 4 4.33301 6 13 6c12 0 25.667 -3.16699 41 -9.5s23 -12.833 23 -19.5v-57c0 -188 -1 -318.5 -3 -391.5s-6 -119.5 -12 -139.5
c0 -5.33301 -3.33301 -8 -10 -8c-5.33301 0 -13.333 2.83301 -24 8.5zM113 562.001l0.000976562 32.0039l-4.5 16c-1.66699 6 -2.5 9.66699 -2.5 11c0 8.66699 2.33301 15 7 19s10.667 6 18 6c14.667 0 29.167 -5.66699 43.5 -17s21.5 -25.333 21.5 -42l-4 -27
c-4.66699 -33.333 -9.16699 -81.5 -13.5 -144.5l-13.5 -195c-4.66699 -67 -10.334 -124.5 -17.001 -172.5c62 -10 116.667 -15 164 -15c84 0 148.833 14.667 194.5 44s68.5 71 68.5 125v6c0 38 -20.333 66.667 -61 86c-35.333 16.667 -82.333 25 -141 25
c-23.333 0 -45.333 -0.833008 -66 -2.5s-50 -5.83398 -88 -12.501c-4 0 -7.66699 1.33301 -11 4c-6.66699 4.66699 -10 11 -10 19c0 5.33301 2.66699 10.5 8 15.5s12.333 7.5 21 7.5c5.33301 -2 11.333 -3.5 18 -4.5s11.667 -1.5 15 -1.5c15.333 0 42 2 80 6s61.333 6 70 6
h27c54.667 0 102.667 -10.333 144 -31c52.667 -26.667 79 -65 79 -115c0 -62.667 -51.333 -116 -154 -160c-93.333 -40 -196 -60 -308 -60c-45.333 0 -82.666 3.5 -111.999 10.5s-50.333 15.667 -63 26s-19 20.166 -19 29.499c0 3.33301 1.66699 6.66602 5 9.99902
s6.66602 5 9.99902 5h6c14 -4.66699 26.167 -8.33398 36.5 -11.001s23.833 -4 40.5 -4c2.66699 30 5.16699 95.833 7.5 197.5s3.5 204.5 3.5 308.5z" />
    <glyph glyph-name="Udieresis" unicode="&#xdc;" horiz-adv-x="691" 
d="M115 562l-0.000976562 32.0039l-4.5 16c-1.66699 6 -2.5 9.66699 -2.5 11c0 8.66699 2.33301 15 7 19s10.667 6 18 6c14.667 0 29.167 -5.66699 43.5 -17s21.5 -25.333 21.5 -42l-4 -27c-4.66699 -33.333 -9.16699 -81.5 -13.5 -144.5l-13.5 -195
c-4.66699 -67 -10.334 -124.5 -17.001 -172.5c62 -10 116.333 -15 163 -15c84.667 0 149.834 14.5 195.501 43.5s68.5 70.833 68.5 125.5v6c0 38 -20.333 66.667 -61 86c-35.333 16.667 -82.333 25 -141 25c-23.333 0 -45.333 -0.833008 -66 -2.5s-50 -5.83398 -88 -12.501
c-4 0 -7.66699 1.33301 -11 4c-6.66699 4.66699 -10 11 -10 19c0 5.33301 2.66699 10.5 8 15.5s12.333 7.5 21 7.5c5.33301 -2 11.333 -3.5 18 -4.5s11.667 -1.5 15 -1.5c15.333 0 42 2 80 6s61.333 6 70 6h26c55.333 0 103.666 -10.333 144.999 -31
c52.667 -26.667 79 -65 79 -115c0 -62.667 -51.333 -116 -154 -160c-93.333 -40 -196 -60 -308 -60c-45.333 0 -82.666 3.5 -111.999 10.5s-50.333 15.667 -63 26s-19 20.166 -19 29.499c0 3.33301 1.33301 6.66602 4 9.99902s6.33398 5 11.001 5h6
c14 -4.66699 26.167 -8.33398 36.5 -11.001s23.833 -4 40.5 -4c2.66699 30 5.16699 95.833 7.5 197.5s3.5 204.5 3.5 308.5z" />
    <glyph glyph-name="Udieresis" unicode="&#x42c;" horiz-adv-x="691" 
d="M115 562l-0.000976562 32.0039l-4.5 16c-1.66699 6 -2.5 9.66699 -2.5 11c0 8.66699 2.33301 15 7 19s10.667 6 18 6c14.667 0 29.167 -5.66699 43.5 -17s21.5 -25.333 21.5 -42l-4 -27c-4.66699 -33.333 -9.16699 -81.5 -13.5 -144.5l-13.5 -195
c-4.66699 -67 -10.334 -124.5 -17.001 -172.5c62 -10 116.333 -15 163 -15c84.667 0 149.834 14.5 195.501 43.5s68.5 70.833 68.5 125.5v6c0 38 -20.333 66.667 -61 86c-35.333 16.667 -82.333 25 -141 25c-23.333 0 -45.333 -0.833008 -66 -2.5s-50 -5.83398 -88 -12.501
c-4 0 -7.66699 1.33301 -11 4c-6.66699 4.66699 -10 11 -10 19c0 5.33301 2.66699 10.5 8 15.5s12.333 7.5 21 7.5c5.33301 -2 11.333 -3.5 18 -4.5s11.667 -1.5 15 -1.5c15.333 0 42 2 80 6s61.333 6 70 6h26c55.333 0 103.666 -10.333 144.999 -31
c52.667 -26.667 79 -65 79 -115c0 -62.667 -51.333 -116 -154 -160c-93.333 -40 -196 -60 -308 -60c-45.333 0 -82.666 3.5 -111.999 10.5s-50.333 15.667 -63 26s-19 20.166 -19 29.499c0 3.33301 1.33301 6.66602 4 9.99902s6.33398 5 11.001 5h6
c14 -4.66699 26.167 -8.33398 36.5 -11.001s23.833 -4 40.5 -4c2.66699 30 5.16699 95.833 7.5 197.5s3.5 204.5 3.5 308.5z" />
    <glyph glyph-name="Yacute" unicode="&#xdd;" horiz-adv-x="788" 
d="M23 117l133.502 -46.002c37.667 -12.667 65.5 -20.334 83.5 -23.001c26 -5.33301 55.667 -10.166 89 -14.499s64.666 -6.5 93.999 -6.5c50 0 92.667 5.33301 128 16c42 12.667 73 32.334 93 59.001c10 12.667 17.333 26.5 22 41.5s7 29.833 7 44.5
c0 33.333 -11.667 71.666 -35 114.999c-15.333 28.667 -39 65 -71 109c-35.333 46.667 -78.833 83 -130.5 109s-108.167 39 -169.5 39c-56.667 0 -116.667 -13 -180 -39l-10 -4c-2 0 -3.5 1 -4.5 3s-1.5 3.66699 -1.5 5c0 12 10 28.333 30 49
c12 12.667 23.333 20.834 34 24.501s24.667 7 42 10s34.666 4.5 51.999 4.5c53.333 0 109 -12.667 167 -38c72.667 -31.333 145 -80.666 217 -147.999c56 -62 95 -116.333 117 -163c16 -34 24 -67 24 -99l-2 -48c0 -42 -29.667 -75 -89 -99c-54 -22 -122.333 -33 -205 -33
c-94 0 -182 13.333 -264 40c-54 13.333 -98.833 27 -134.5 41s-53.5 26 -53.5 36c0 5.33301 5.66699 10.333 17 15zM606.002 272.998c-17.333 0 -51.667 -1.00098 -103 -3.00098c-136.667 -5.33301 -221.667 -8 -255 -8c-13.333 0 -24.833 0.333008 -34.5 1
s-18.5 1.33398 -26.5 2.00098c-6.66699 0 -15.5 6.5 -26.5 19.5s-16.5 23.833 -16.5 32.5l4 10c0 4 7.66699 6 23 6c70 -10 142 -18.667 216 -26s147 -11 219 -11v-23z" />
    <glyph glyph-name="Yacute" unicode="&#x42d;" horiz-adv-x="788" 
d="M23 117l133.502 -46.002c37.667 -12.667 65.5 -20.334 83.5 -23.001c26 -5.33301 55.667 -10.166 89 -14.499s64.666 -6.5 93.999 -6.5c50 0 92.667 5.33301 128 16c42 12.667 73 32.334 93 59.001c10 12.667 17.333 26.5 22 41.5s7 29.833 7 44.5
c0 33.333 -11.667 71.666 -35 114.999c-15.333 28.667 -39 65 -71 109c-35.333 46.667 -78.833 83 -130.5 109s-108.167 39 -169.5 39c-56.667 0 -116.667 -13 -180 -39l-10 -4c-2 0 -3.5 1 -4.5 3s-1.5 3.66699 -1.5 5c0 12 10 28.333 30 49
c12 12.667 23.333 20.834 34 24.501s24.667 7 42 10s34.666 4.5 51.999 4.5c53.333 0 109 -12.667 167 -38c72.667 -31.333 145 -80.666 217 -147.999c56 -62 95 -116.333 117 -163c16 -34 24 -67 24 -99l-2 -48c0 -42 -29.667 -75 -89 -99c-54 -22 -122.333 -33 -205 -33
c-94 0 -182 13.333 -264 40c-54 13.333 -98.833 27 -134.5 41s-53.5 26 -53.5 36c0 5.33301 5.66699 10.333 17 15zM606.002 272.998c-17.333 0 -51.667 -1.00098 -103 -3.00098c-136.667 -5.33301 -221.667 -8 -255 -8c-13.333 0 -24.833 0.333008 -34.5 1
s-18.5 1.33398 -26.5 2.00098c-6.66699 0 -15.5 6.5 -26.5 19.5s-16.5 23.833 -16.5 32.5l4 10c0 4 7.66699 6 23 6c70 -10 142 -18.667 216 -26s147 -11 219 -11v-23z" />
    <glyph glyph-name="Thorn" unicode="&#xde;" horiz-adv-x="1180" 
d="M358 317c30 75.333 95.002 146.664 195.002 213.997c91.333 61.333 165.333 92 222 92c16.667 0 28.334 -3.33301 35.001 -10l2 -5c-33.333 -7.33301 -73.5 -18.666 -120.5 -33.999s-90.167 -38 -129.5 -68c-28.667 -22 -53.667 -49.667 -75 -83
s-37.666 -69.333 -48.999 -108l-9 -36c-6.66699 -28 -10 -53 -10 -75c0 -54 16 -90.667 48 -110c14 -17.333 39.667 -30.666 77 -39.999s78.333 -14 123 -14c47.333 0 92.833 4.33301 136.5 13s76.5 20 98.5 34c45.333 29.333 84.333 67 117 113c36 50.667 54 98 54 142v23
c-10 66.667 -34.667 116.334 -74 149.001c-33.333 28 -74.666 42 -123.999 42c-46 0 -91.333 -11.333 -136 -34s-73 -46.667 -85 -72c-2.66699 -6.66699 -7.33398 -12.167 -14.001 -16.5s-13 -6.5 -19 -6.5c-4.66699 0 -9 1.33301 -13 4s-6 6.33398 -6 11.001
c0 2.66699 2 8 6 16c28 38 67.667 68 119 90s104 33 158 33c71.333 0 130.666 -16.667 177.999 -50c52.667 -36.667 79 -86.667 79 -150c0 -108 -56.667 -202.333 -170 -283c-108 -76.667 -226.333 -115 -355 -115c-34.667 0 -69.334 3.66699 -104.001 11
c-52.667 10 -95.667 32.333 -129 67c-36.667 38 -55 83.667 -55 137c0 11.333 1 22.666 3 33.999c0 0.666992 2.66699 13 8 37l-140 -9c-3.33301 -26.667 -5.5 -68 -6.5 -124s-1.5 -112.333 -1.5 -169l-15 -2c-10.667 0 -20.334 2.66699 -29.001 8
s-14.334 13.666 -17.001 24.999c4 28.667 8 85.334 12 170.001c2 39.333 3 67.333 3 84h-40c-28 0 -50 3.66699 -66 11c-24 10.667 -36 29.334 -36 56.001c2.66699 9.33301 4 15.666 4 18.999l61 -18c19.333 -4.66699 35.333 -7 48 -7l21 2c0.666992 2 1 10.333 1 25
s0.333008 27 1 37c0 46.667 -1.5 91.5 -4.5 134.5s-7.16699 78.167 -12.5 105.5c3.33301 6.66699 10.333 10 21 10c13.333 0 28.5 -4.83301 45.5 -14.5s25.5 -18.167 25.5 -25.5l-23 -272z" />
    <glyph glyph-name="Thorn" unicode="&#x42e;" horiz-adv-x="1180" 
d="M358 317c30 75.333 95.002 146.664 195.002 213.997c91.333 61.333 165.333 92 222 92c16.667 0 28.334 -3.33301 35.001 -10l2 -5c-33.333 -7.33301 -73.5 -18.666 -120.5 -33.999s-90.167 -38 -129.5 -68c-28.667 -22 -53.667 -49.667 -75 -83
s-37.666 -69.333 -48.999 -108l-9 -36c-6.66699 -28 -10 -53 -10 -75c0 -54 16 -90.667 48 -110c14 -17.333 39.667 -30.666 77 -39.999s78.333 -14 123 -14c47.333 0 92.833 4.33301 136.5 13s76.5 20 98.5 34c45.333 29.333 84.333 67 117 113c36 50.667 54 98 54 142v23
c-10 66.667 -34.667 116.334 -74 149.001c-33.333 28 -74.666 42 -123.999 42c-46 0 -91.333 -11.333 -136 -34s-73 -46.667 -85 -72c-2.66699 -6.66699 -7.33398 -12.167 -14.001 -16.5s-13 -6.5 -19 -6.5c-4.66699 0 -9 1.33301 -13 4s-6 6.33398 -6 11.001
c0 2.66699 2 8 6 16c28 38 67.667 68 119 90s104 33 158 33c71.333 0 130.666 -16.667 177.999 -50c52.667 -36.667 79 -86.667 79 -150c0 -108 -56.667 -202.333 -170 -283c-108 -76.667 -226.333 -115 -355 -115c-34.667 0 -69.334 3.66699 -104.001 11
c-52.667 10 -95.667 32.333 -129 67c-36.667 38 -55 83.667 -55 137c0 11.333 1 22.666 3 33.999c0 0.666992 2.66699 13 8 37l-140 -9c-3.33301 -26.667 -5.5 -68 -6.5 -124s-1.5 -112.333 -1.5 -169l-15 -2c-10.667 0 -20.334 2.66699 -29.001 8
s-14.334 13.666 -17.001 24.999c4 28.667 8 85.334 12 170.001c2 39.333 3 67.333 3 84h-40c-28 0 -50 3.66699 -66 11c-24 10.667 -36 29.334 -36 56.001c2.66699 9.33301 4 15.666 4 18.999l61 -18c19.333 -4.66699 35.333 -7 48 -7l21 2c0.666992 2 1 10.333 1 25
s0.333008 27 1 37c0 46.667 -1.5 91.5 -4.5 134.5s-7.16699 78.167 -12.5 105.5c3.33301 6.66699 10.333 10 21 10c13.333 0 28.5 -4.83301 45.5 -14.5s25.5 -18.167 25.5 -25.5l-23 -272z" />
    <glyph glyph-name="germandbls" unicode="&#xdf;" horiz-adv-x="778" 
d="M619 33c0 -8.66699 -7.66992 -17.335 -23.0029 -26.002s-29.333 -13 -42 -13c-10 0 -16.333 2.66699 -19 8l3 210c0 30.667 -1.83301 88.5 -5.5 173.5s-5.5 140.5 -5.5 166.5c-9.33301 2 -27.666 5.33301 -54.999 10c-49.333 8.66699 -88 13 -116 13
c-53.333 0 -102.333 -7.66699 -147 -23c-62.667 -21.333 -94 -52 -94 -92c0 -6 1.33301 -12.5 4 -19.5s6.66699 -16.5 12 -28.5c24 -42 61 -71.667 111 -89c36 -12.667 79 -19 129 -19c11.333 0 27 1 47 3s34 3 42 3c16 0 28 -1.66699 36 -5s15.667 -9 23 -17
c-31.333 -31.333 -79.333 -73.333 -144 -126l-169 -131.5c-56 -41.667 -99 -71.834 -129 -90.501h-6c-10 0 -24 7.33301 -42 22s-27 26 -27 34l6 6l11 -2c32 0 95.667 37.333 191 112c78 61.333 139.333 115 184 161c-84.667 0 -157.334 13 -218.001 39
c-81.333 34.667 -127.333 88.334 -138 161.001l-1 10c0 34 16 60.667 48 80c24.667 14.667 55.334 23.667 92.001 27c46.667 5.33301 104.334 8 173.001 8c39.333 0 73.5 -1.16699 102.5 -3.5s51.167 -6.16602 66.5 -11.499c7.33301 14 16.333 24.167 27 30.5
s20.334 9.5 29.001 9.5c2.66699 0 5 -0.166992 7 -0.5s4 -0.833008 6 -1.5v-40c0 -4 2.66699 -6 8 -6c38 -4.66699 66 -8 84 -10c32 -4.66699 52.667 -11.667 62 -21v-7c0 -7.33301 -3.66699 -14.666 -11 -21.999s-14.333 -11 -21 -11l-6 2
c-1.33301 0.666992 -21.333 7.66699 -60 21c-10.667 3.33301 -26.667 9 -48 17z" />
    <glyph glyph-name="germandbls" unicode="&#x42f;" horiz-adv-x="778" 
d="M619 33c0 -8.66699 -7.66992 -17.335 -23.0029 -26.002s-29.333 -13 -42 -13c-10 0 -16.333 2.66699 -19 8l3 210c0 30.667 -1.83301 88.5 -5.5 173.5s-5.5 140.5 -5.5 166.5c-9.33301 2 -27.666 5.33301 -54.999 10c-49.333 8.66699 -88 13 -116 13
c-53.333 0 -102.333 -7.66699 -147 -23c-62.667 -21.333 -94 -52 -94 -92c0 -6 1.33301 -12.5 4 -19.5s6.66699 -16.5 12 -28.5c24 -42 61 -71.667 111 -89c36 -12.667 79 -19 129 -19c11.333 0 27 1 47 3s34 3 42 3c16 0 28 -1.66699 36 -5s15.667 -9 23 -17
c-31.333 -31.333 -79.333 -73.333 -144 -126l-169 -131.5c-56 -41.667 -99 -71.834 -129 -90.501h-6c-10 0 -24 7.33301 -42 22s-27 26 -27 34l6 6l11 -2c32 0 95.667 37.333 191 112c78 61.333 139.333 115 184 161c-84.667 0 -157.334 13 -218.001 39
c-81.333 34.667 -127.333 88.334 -138 161.001l-1 10c0 34 16 60.667 48 80c24.667 14.667 55.334 23.667 92.001 27c46.667 5.33301 104.334 8 173.001 8c39.333 0 73.5 -1.16699 102.5 -3.5s51.167 -6.16602 66.5 -11.499c7.33301 14 16.333 24.167 27 30.5
s20.334 9.5 29.001 9.5c2.66699 0 5 -0.166992 7 -0.5s4 -0.833008 6 -1.5v-40c0 -4 2.66699 -6 8 -6c38 -4.66699 66 -8 84 -10c32 -4.66699 52.667 -11.667 62 -21v-7c0 -7.33301 -3.66699 -14.666 -11 -21.999s-14.333 -11 -21 -11l-6 2
c-1.33301 0.666992 -21.333 7.66699 -60 21c-10.667 3.33301 -26.667 9 -48 17z" />
    <glyph glyph-name="agrave" unicode="&#xe0;" horiz-adv-x="518" 
d="M363 117c1.33301 4 1.99609 12.3311 1.99609 24.998c0 9.33301 -0.666992 20.166 -2 32.499s-3.66602 29.166 -6.99902 50.499c-12 18 -26.667 31.167 -44 39.5s-35.333 12.5 -54 12.5c-24.667 0 -49 -5.33301 -73 -16s-42 -22.667 -54 -36
c-15.333 -15.333 -27.833 -33.666 -37.5 -54.999s-14.5 -42.666 -14.5 -63.999c0 -5.33301 0.833008 -11.666 2.5 -18.999s2.83398 -12.666 3.50098 -15.999c5.33301 -14.667 16 -26 32 -34s34.667 -12 56 -12c32.667 0 66.334 8 101.001 24
c38.667 18 68.334 40.667 89.001 68zM362.996 264.998c11.333 0 21.5 0.498047 30.5 1.49805s16.833 3.16699 23.5 6.5c3.33301 -50.667 7.33301 -96.334 12 -137.001c10 -80.667 26 -121 48 -121l4 2l4 -7c0 -6 -10.333 -13 -31 -21s-36 -12 -46 -12
c-2 0 -3.5 0.333008 -4.5 1s-2.33301 2.33398 -4 5.00098s-6.83398 27.334 -15.501 74.001c-4 20 -8.33301 32.333 -13 37c-15.333 -30 -51 -54.333 -107 -73c-49.333 -16.667 -99 -25 -149 -25c-25.333 0 -45.666 2 -60.999 6c-36 12.667 -54 36.334 -54 71.001
c0 48 30.5 99.5 91.5 154.5s120.167 82.5 177.5 82.5c19.333 0 37 -3.5 53 -10.5s29.667 -18.5 41 -34.5z" />
    <glyph glyph-name="agrave" unicode="&#x430;" horiz-adv-x="518" 
d="M363 117c1.33301 4 1.99609 12.3311 1.99609 24.998c0 9.33301 -0.666992 20.166 -2 32.499s-3.66602 29.166 -6.99902 50.499c-12 18 -26.667 31.167 -44 39.5s-35.333 12.5 -54 12.5c-24.667 0 -49 -5.33301 -73 -16s-42 -22.667 -54 -36
c-15.333 -15.333 -27.833 -33.666 -37.5 -54.999s-14.5 -42.666 -14.5 -63.999c0 -5.33301 0.833008 -11.666 2.5 -18.999s2.83398 -12.666 3.50098 -15.999c5.33301 -14.667 16 -26 32 -34s34.667 -12 56 -12c32.667 0 66.334 8 101.001 24
c38.667 18 68.334 40.667 89.001 68zM362.996 264.998c11.333 0 21.5 0.498047 30.5 1.49805s16.833 3.16699 23.5 6.5c3.33301 -50.667 7.33301 -96.334 12 -137.001c10 -80.667 26 -121 48 -121l4 2l4 -7c0 -6 -10.333 -13 -31 -21s-36 -12 -46 -12
c-2 0 -3.5 0.333008 -4.5 1s-2.33301 2.33398 -4 5.00098s-6.83398 27.334 -15.501 74.001c-4 20 -8.33301 32.333 -13 37c-15.333 -30 -51 -54.333 -107 -73c-49.333 -16.667 -99 -25 -149 -25c-25.333 0 -45.666 2 -60.999 6c-36 12.667 -54 36.334 -54 71.001
c0 48 30.5 99.5 91.5 154.5s120.167 82.5 177.5 82.5c19.333 0 37 -3.5 53 -10.5s29.667 -18.5 41 -34.5z" />
    <glyph glyph-name="aacute" unicode="&#xe1;" horiz-adv-x="461" 
d="M31 194c19.333 31.333 43.333 56 72 74c38.667 24 85.667 36 141 36c38.667 0 75 -7.33301 109 -22c49.333 -21.333 74 -52.666 74 -93.999c0 -24 -9.5 -51.833 -28.5 -83.5s-46.667 -58 -83 -79s-70.5 -31.5 -102.5 -31.5l-46 -2c-46 0 -82.667 7 -110 21
c-35.333 18 -53 47.667 -53 89c0 79.333 8.33301 145.666 25 198.999c25.333 81.333 71.333 145.666 138 192.999c39.333 23.333 78.666 39.5 117.999 48.5s80.333 13.5 123 13.5c4.66699 -8.66699 8.33398 -16 11.001 -22s4 -14 4 -24l-2 -25h-36
c-60 0 -107.333 -4.33301 -142 -13c-56 -14 -101.333 -40.333 -136 -79c-42.667 -47.333 -68 -113.666 -76 -198.999zM352 179c-10.667 28.667 -27.6689 49.833 -51.002 63.5s-48.666 20.5 -75.999 20.5s-53.833 -5 -79.5 -15s-42 -20.333 -49 -31s-12.667 -22 -17 -34
s-6.5 -23 -6.5 -33c0 -28.667 11 -54.667 33 -78s49 -37.666 81 -42.999c2 0 6.33301 -0.666992 13 -2s11.667 -2 15 -2c6.66699 0 12 0.333008 16 1c12.667 3.33301 22.334 5.66602 29.001 6.99902c28 5.33301 51.333 18.333 70 39s28 44 28 70c0 12.667 -2 25 -6 37z" />
    <glyph glyph-name="aacute" unicode="&#x431;" horiz-adv-x="461" 
d="M31 194c19.333 31.333 43.333 56 72 74c38.667 24 85.667 36 141 36c38.667 0 75 -7.33301 109 -22c49.333 -21.333 74 -52.666 74 -93.999c0 -24 -9.5 -51.833 -28.5 -83.5s-46.667 -58 -83 -79s-70.5 -31.5 -102.5 -31.5l-46 -2c-46 0 -82.667 7 -110 21
c-35.333 18 -53 47.667 -53 89c0 79.333 8.33301 145.666 25 198.999c25.333 81.333 71.333 145.666 138 192.999c39.333 23.333 78.666 39.5 117.999 48.5s80.333 13.5 123 13.5c4.66699 -8.66699 8.33398 -16 11.001 -22s4 -14 4 -24l-2 -25h-36
c-60 0 -107.333 -4.33301 -142 -13c-56 -14 -101.333 -40.333 -136 -79c-42.667 -47.333 -68 -113.666 -76 -198.999zM352 179c-10.667 28.667 -27.6689 49.833 -51.002 63.5s-48.666 20.5 -75.999 20.5s-53.833 -5 -79.5 -15s-42 -20.333 -49 -31s-12.667 -22 -17 -34
s-6.5 -23 -6.5 -33c0 -28.667 11 -54.667 33 -78s49 -37.666 81 -42.999c2 0 6.33301 -0.666992 13 -2s11.667 -2 15 -2c6.66699 0 12 0.333008 16 1c12.667 3.33301 22.334 5.66602 29.001 6.99902c28 5.33301 51.333 18.333 70 39s28 44 28 70c0 12.667 -2 25 -6 37z" />
    <glyph glyph-name="acircumflex" unicode="&#xe2;" horiz-adv-x="480" 
d="M210 262c19.333 6 40.334 11.334 63.001 16.001s42.667 7 60 7c31.333 0 57.666 -6.83301 78.999 -20.5s33.333 -34.5 36 -62.5v-8c0 -52 -25.667 -101.167 -77 -147.5s-107 -69.5 -167 -69.5c-24.667 0 -48.334 4.16699 -71.001 12.5s-44 22.166 -64 41.499l-36 -25
c-14 -9.33301 -22.333 -14 -25 -14l-2 112c0 131.333 13.667 228.333 41 291c34.667 79.333 98.334 128.333 191.001 147h8c19.333 0 34.833 -8.5 46.5 -25.5s17.5 -38.5 17.5 -64.5c0 -32 -8 -64.333 -24 -97c-18 -37.333 -43.333 -68.333 -76 -93zM173.001 250.001
c31.333 28.667 55 57 71 85c14 25.333 21 49 21 71c0 22.667 -7.83301 41.834 -23.5 57.501s-33.5 23.5 -53.5 23.5c-19.333 0 -37.333 -6.66699 -54 -20c-19.333 -16 -33.333 -37.667 -42 -65c-6.66699 -24.667 -12.5 -55.834 -17.5 -93.501s-7.5 -67.5 -7.5 -89.5l2 -32
c12.667 10.667 28.167 21.5 46.5 32.5s37.5 21.167 57.5 30.5zM69.001 140.001v-61.001c0 -19.333 15 -35.166 45 -47.499s64.333 -18.5 103 -18.5c26.667 0 51.167 3.16699 73.5 9.5s38.833 14.833 49.5 25.5c16 16 27.833 31.667 35.5 47s11.5 30.333 11.5 45
c0 27.333 -12.5 50.5 -37.5 69.5s-54.833 28.5 -89.5 28.5h-23c-30 -4.66699 -59 -14 -87 -28c-36 -18.667 -63 -42 -81 -70z" />
    <glyph glyph-name="acircumflex" unicode="&#x432;" horiz-adv-x="480" 
d="M210 262c19.333 6 40.334 11.334 63.001 16.001s42.667 7 60 7c31.333 0 57.666 -6.83301 78.999 -20.5s33.333 -34.5 36 -62.5v-8c0 -52 -25.667 -101.167 -77 -147.5s-107 -69.5 -167 -69.5c-24.667 0 -48.334 4.16699 -71.001 12.5s-44 22.166 -64 41.499l-36 -25
c-14 -9.33301 -22.333 -14 -25 -14l-2 112c0 131.333 13.667 228.333 41 291c34.667 79.333 98.334 128.333 191.001 147h8c19.333 0 34.833 -8.5 46.5 -25.5s17.5 -38.5 17.5 -64.5c0 -32 -8 -64.333 -24 -97c-18 -37.333 -43.333 -68.333 -76 -93zM173.001 250.001
c31.333 28.667 55 57 71 85c14 25.333 21 49 21 71c0 22.667 -7.83301 41.834 -23.5 57.501s-33.5 23.5 -53.5 23.5c-19.333 0 -37.333 -6.66699 -54 -20c-19.333 -16 -33.333 -37.667 -42 -65c-6.66699 -24.667 -12.5 -55.834 -17.5 -93.501s-7.5 -67.5 -7.5 -89.5l2 -32
c12.667 10.667 28.167 21.5 46.5 32.5s37.5 21.167 57.5 30.5zM69.001 140.001v-61.001c0 -19.333 15 -35.166 45 -47.499s64.333 -18.5 103 -18.5c26.667 0 51.167 3.16699 73.5 9.5s38.833 14.833 49.5 25.5c16 16 27.833 31.667 35.5 47s11.5 30.333 11.5 45
c0 27.333 -12.5 50.5 -37.5 69.5s-54.833 28.5 -89.5 28.5h-23c-30 -4.66699 -59 -14 -87 -28c-36 -18.667 -63 -42 -81 -70z" />
    <glyph glyph-name="atilde" unicode="&#xe3;" horiz-adv-x="490" 
d="M90 304c66 6 119.996 9 161.996 9c46.667 0 82.667 -2.5 108 -7.5s41.333 -10.833 48 -17.5c7.33301 -5.33301 11 -15.333 11 -30c0 -8.66699 -2.33301 -17 -7 -25s-13.667 -15.667 -27 -23c-27.333 -15.333 -88.333 -47 -183 -95c-61.333 -31.333 -93.333 -51 -96 -59
l-2 -4c0 -8 15.167 -13.167 45.5 -15.5s70.166 -3.5 119.499 -3.5c24 0 52 1.16699 84 3.5s53.333 3.5 64 3.5c24.667 0 37 -2.33301 37 -7c0 -9.33301 -59 -22.333 -177 -39c-17.333 0 -52.333 -1.66699 -105 -5c-21.333 -1.33301 -39.666 -2 -54.999 -2
c-23.333 0 -43.666 1 -60.999 3s-31.666 6 -42.999 12c-1.33301 0.666992 -2.33301 1.33398 -3 2.00098c-5.33301 4.66699 -8 9 -8 13c0 6.66699 3.66699 12 11 16l75 45l135 85c26.667 11.333 53.334 29 80.001 53c21.333 19.333 32 35.666 32 48.999l-4 16
c-4.66699 2.66699 -12 4.5 -22 5.5s-17 1.5 -21 1.5c-29.333 0 -75.666 -8.5 -138.999 -25.5s-98.333 -25.5 -105 -25.5c-2 0 -3.5 0.333008 -4.5 1s-1.83301 1.33398 -2.5 2.00098l-2 4c0 9.33301 7.33301 21.666 22 36.999s25.667 23 33 23z" />
    <glyph glyph-name="atilde" unicode="&#x433;" horiz-adv-x="490" 
d="M90 304c66 6 119.996 9 161.996 9c46.667 0 82.667 -2.5 108 -7.5s41.333 -10.833 48 -17.5c7.33301 -5.33301 11 -15.333 11 -30c0 -8.66699 -2.33301 -17 -7 -25s-13.667 -15.667 -27 -23c-27.333 -15.333 -88.333 -47 -183 -95c-61.333 -31.333 -93.333 -51 -96 -59
l-2 -4c0 -8 15.167 -13.167 45.5 -15.5s70.166 -3.5 119.499 -3.5c24 0 52 1.16699 84 3.5s53.333 3.5 64 3.5c24.667 0 37 -2.33301 37 -7c0 -9.33301 -59 -22.333 -177 -39c-17.333 0 -52.333 -1.66699 -105 -5c-21.333 -1.33301 -39.666 -2 -54.999 -2
c-23.333 0 -43.666 1 -60.999 3s-31.666 6 -42.999 12c-1.33301 0.666992 -2.33301 1.33398 -3 2.00098c-5.33301 4.66699 -8 9 -8 13c0 6.66699 3.66699 12 11 16l75 45l135 85c26.667 11.333 53.334 29 80.001 53c21.333 19.333 32 35.666 32 48.999l-4 16
c-4.66699 2.66699 -12 4.5 -22 5.5s-17 1.5 -21 1.5c-29.333 0 -75.666 -8.5 -138.999 -25.5s-98.333 -25.5 -105 -25.5c-2 0 -3.5 0.333008 -4.5 1s-1.83301 1.33398 -2.5 2.00098l-2 4c0 9.33301 7.33301 21.666 22 36.999s25.667 23 33 23z" />
    <glyph glyph-name="adieresis" unicode="&#xe4;" horiz-adv-x="480" 
d="M388 140l-0.00195312 61.9971c0 18.667 -15.167 33.834 -45.5 45.501s-65.166 17.5 -104.499 17.5c-26 0 -50.167 -2.83301 -72.5 -8.5s-38.5 -13.5 -48.5 -23.5c-32 -33.333 -48 -65.333 -48 -96c0 -27.333 12.167 -50.666 36.5 -69.999s53.833 -29 88.5 -29
c8.66699 0 18.834 1.33301 30.501 4s20.167 4.66699 25.5 6c26.667 4.66699 50.667 13.334 72 26.001c26.667 16 48.667 38 66 66zM387.998 249.997l37.001 23.998c14 9.33301 22.333 14 25 14v-113c0 -132 -13.333 -228.667 -40 -290
c-34.667 -78.667 -98.334 -127.667 -191.001 -147h-25c-40.667 0 -79.667 11.5 -117 34.5s-56 48.167 -56 75.5c0 10.667 4 21 12 31c2 2 7 8.66699 15 20c6 8.66699 11 13 15 13l8 -2l-2 -12c0 -37.333 15.667 -68.666 47 -93.999c29.333 -23.333 63.666 -35 102.999 -35
c33.333 0 63 8.66699 89 26c28.667 19.333 47.667 47.333 57 84c1.33301 4.66699 4.33301 20 9 46c9.33301 53.333 14 98.333 14 135v34c-32 -26.667 -73.667 -50.667 -125 -72s-98.666 -32 -141.999 -32c-32 0 -57.667 6.66699 -77 20c-22.667 15.333 -34 38.333 -34 69
l-2 6c0 52 25.5 101.5 76.5 148.5s106.833 70.5 167.5 70.5c25.333 0 49.333 -4.16699 72 -12.5s44 -22.166 64 -41.499z" />
    <glyph glyph-name="adieresis" unicode="&#x434;" horiz-adv-x="480" 
d="M388 140l-0.00195312 61.9971c0 18.667 -15.167 33.834 -45.5 45.501s-65.166 17.5 -104.499 17.5c-26 0 -50.167 -2.83301 -72.5 -8.5s-38.5 -13.5 -48.5 -23.5c-32 -33.333 -48 -65.333 -48 -96c0 -27.333 12.167 -50.666 36.5 -69.999s53.833 -29 88.5 -29
c8.66699 0 18.834 1.33301 30.501 4s20.167 4.66699 25.5 6c26.667 4.66699 50.667 13.334 72 26.001c26.667 16 48.667 38 66 66zM387.998 249.997l37.001 23.998c14 9.33301 22.333 14 25 14v-113c0 -132 -13.333 -228.667 -40 -290
c-34.667 -78.667 -98.334 -127.667 -191.001 -147h-25c-40.667 0 -79.667 11.5 -117 34.5s-56 48.167 -56 75.5c0 10.667 4 21 12 31c2 2 7 8.66699 15 20c6 8.66699 11 13 15 13l8 -2l-2 -12c0 -37.333 15.667 -68.666 47 -93.999c29.333 -23.333 63.666 -35 102.999 -35
c33.333 0 63 8.66699 89 26c28.667 19.333 47.667 47.333 57 84c1.33301 4.66699 4.33301 20 9 46c9.33301 53.333 14 98.333 14 135v34c-32 -26.667 -73.667 -50.667 -125 -72s-98.666 -32 -141.999 -32c-32 0 -57.667 6.66699 -77 20c-22.667 15.333 -34 38.333 -34 69
l-2 6c0 52 25.5 101.5 76.5 148.5s106.833 70.5 167.5 70.5c25.333 0 49.333 -4.16699 72 -12.5s44 -22.166 64 -41.499z" />
    <glyph glyph-name="aring" unicode="&#xe5;" horiz-adv-x="490" 
d="M73 148l196 28c29.333 6 44 17.333 44 34v13c0 17.333 -6.33301 31.333 -19 42s-31.667 16 -57 16c-22 0 -47.333 -8.33301 -76 -25c-42 -24.667 -71.333 -60.667 -88 -108zM42 179c15.333 24 31.668 43.999 49.001 59.999s37 30 59 42c8 4.66699 25.5 10 52.5 16
s52.5 9 76.5 9c27.333 0 50.166 -4.33301 68.499 -13s27.5 -23 27.5 -43c0 -19.333 2.33301 -35.666 7 -48.999l8 -20c-0.666992 -1.33301 -1.33398 -2.83301 -2.00098 -4.5s-2.33398 -3.5 -5.00098 -5.5l-310 -54c8 -34 24.5 -60.333 49.5 -79s58.5 -28 100.5 -28
c20 0 44 2.66699 72 8s57.333 12.666 88 21.999c32 6.66699 51.667 10 59 10c4.66699 0 8.66699 -1.66699 12 -5c0.666992 -1.33301 1.33398 -2.33301 2.00098 -3c0 -3.33301 -4 -6.33301 -12 -9c-41.333 -15.333 -86 -27.833 -134 -37.5s-93 -14.5 -135 -14.5
c-49.333 0 -88.666 7.33301 -117.999 22c-32.667 16.667 -49 41.334 -49 74.001c0 27.333 11.333 61.333 34 102z" />
    <glyph glyph-name="aring" unicode="&#x435;" horiz-adv-x="490" 
d="M73 148l196 28c29.333 6 44 17.333 44 34v13c0 17.333 -6.33301 31.333 -19 42s-31.667 16 -57 16c-22 0 -47.333 -8.33301 -76 -25c-42 -24.667 -71.333 -60.667 -88 -108zM42 179c15.333 24 31.668 43.999 49.001 59.999s37 30 59 42c8 4.66699 25.5 10 52.5 16
s52.5 9 76.5 9c27.333 0 50.166 -4.33301 68.499 -13s27.5 -23 27.5 -43c0 -19.333 2.33301 -35.666 7 -48.999l8 -20c-0.666992 -1.33301 -1.33398 -2.83301 -2.00098 -4.5s-2.33398 -3.5 -5.00098 -5.5l-310 -54c8 -34 24.5 -60.333 49.5 -79s58.5 -28 100.5 -28
c20 0 44 2.66699 72 8s57.333 12.666 88 21.999c32 6.66699 51.667 10 59 10c4.66699 0 8.66699 -1.66699 12 -5c0.666992 -1.33301 1.33398 -2.33301 2.00098 -3c0 -3.33301 -4 -6.33301 -12 -9c-41.333 -15.333 -86 -27.833 -134 -37.5s-93 -14.5 -135 -14.5
c-49.333 0 -88.666 7.33301 -117.999 22c-32.667 16.667 -49 41.334 -49 74.001c0 27.333 11.333 61.333 34 102z" />
    <glyph glyph-name="ae" unicode="&#xe6;" horiz-adv-x="701" 
d="M352 100c0 -10.667 1 -30.002 3 -58.002s3 -46 3 -54l-16 -1c-8.66699 0 -16.5 2 -23.5 6s-11.833 10.333 -14.5 19l2 96l-35 23c-6 -9.33301 -38.5 -40.166 -97.5 -92.499s-94.5 -82.5 -106.5 -90.5l-9 -2c-9.33301 0 -20.666 7.33301 -33.999 22s-20 26.667 -20 36l2 6
l11 -2c17.333 0 34.833 5.16699 52.5 15.5s34.834 23.5 51.501 39.5l100 93c-42 23.333 -73.333 42.333 -94 57c-29.333 20.667 -49.333 40.667 -60 60c-4.66699 2.66699 -7 8.33398 -7 17.001c0 11.333 2.5 22.833 7.5 34.5s10.167 17.5 15.5 17.5
c36.667 -42.667 72.667 -81.334 108 -116.001c39.333 -38.667 77 -68.334 113 -89.001v175c0 80.667 -1.16699 144.334 -3.5 191.001l-6.5 130l2 13l-2 2c4 2.66699 7.33301 4 10 4c16.667 0 33.667 -7.33301 51 -22c12 -10 18 -20 18 -30v-8l-19 -463
c38.667 20.667 78 50.334 118 89.001l118 124c6.66699 0 12.667 -8.66699 18 -26c2.66699 -8 4 -16.667 4 -26s-2 -15 -6 -17c-10.667 -18.667 -30.334 -38.334 -59.001 -59.001c-22 -16 -53.667 -35.333 -95 -58c9.33301 -13.333 29.333 -32.666 60 -57.999
c21.333 -18 34.666 -29.667 39.999 -35c15.333 -14.667 32.166 -27.5 50.499 -38.5s35.5 -16.5 51.5 -16.5l13 2v-6c0 -11.333 -6.16699 -23.833 -18.5 -37.5s-24.166 -20.5 -35.499 -20.5l-7 2c-14.667 10 -49.667 39.333 -105 88c-58.667 52 -91.667 83.667 -99 95z" />
    <glyph glyph-name="ae" unicode="&#x436;" horiz-adv-x="701" 
d="M352 100c0 -10.667 1 -30.002 3 -58.002s3 -46 3 -54l-16 -1c-8.66699 0 -16.5 2 -23.5 6s-11.833 10.333 -14.5 19l2 96l-35 23c-6 -9.33301 -38.5 -40.166 -97.5 -92.499s-94.5 -82.5 -106.5 -90.5l-9 -2c-9.33301 0 -20.666 7.33301 -33.999 22s-20 26.667 -20 36l2 6
l11 -2c17.333 0 34.833 5.16699 52.5 15.5s34.834 23.5 51.501 39.5l100 93c-42 23.333 -73.333 42.333 -94 57c-29.333 20.667 -49.333 40.667 -60 60c-4.66699 2.66699 -7 8.33398 -7 17.001c0 11.333 2.5 22.833 7.5 34.5s10.167 17.5 15.5 17.5
c36.667 -42.667 72.667 -81.334 108 -116.001c39.333 -38.667 77 -68.334 113 -89.001v175c0 80.667 -1.16699 144.334 -3.5 191.001l-6.5 130l2 13l-2 2c4 2.66699 7.33301 4 10 4c16.667 0 33.667 -7.33301 51 -22c12 -10 18 -20 18 -30v-8l-19 -463
c38.667 20.667 78 50.334 118 89.001l118 124c6.66699 0 12.667 -8.66699 18 -26c2.66699 -8 4 -16.667 4 -26s-2 -15 -6 -17c-10.667 -18.667 -30.334 -38.334 -59.001 -59.001c-22 -16 -53.667 -35.333 -95 -58c9.33301 -13.333 29.333 -32.666 60 -57.999
c21.333 -18 34.666 -29.667 39.999 -35c15.333 -14.667 32.166 -27.5 50.499 -38.5s35.5 -16.5 51.5 -16.5l13 2v-6c0 -11.333 -6.16699 -23.833 -18.5 -37.5s-24.166 -20.5 -35.499 -20.5l-7 2c-14.667 10 -49.667 39.333 -105 88c-58.667 52 -91.667 83.667 -99 95z" />
    <glyph glyph-name="ccedilla" unicode="&#xe7;" horiz-adv-x="557" 
d="M100 304c65.333 6 119.335 9.00098 162.002 9.00098c46.667 0 82.667 -2.5 108 -7.5s41 -10.833 47 -17.5c2 -1.33301 4.5 -5.33301 7.5 -12s4.5 -12.667 4.5 -18c0 -8 -2.66699 -16.333 -8 -25s-14.333 -16.334 -27 -23.001c-40 -22.667 -79.667 -44 -119 -64
c63.333 0 113.5 -5 150.5 -15s60.5 -21.667 70.5 -35c9.33301 -9.33301 16.833 -18.333 22.5 -27s8.5 -16.334 8.5 -23.001c0 -10.667 -9.33301 -21.5 -28 -32.5s-48.334 -21.833 -89.001 -32.5c-64 -12 -130.667 -18 -200 -18c-52 0 -95.667 4.66699 -131 14
s-59 24.666 -71 45.999c0 24.667 1.5 43.667 4.5 57s9.83301 20 20.5 20c6.66699 0 15.5 -4 26.5 -12s23.833 -20.667 38.5 -38c22 -16 54.167 -29.333 96.5 -40s82.5 -16 120.5 -16c34 0 62.167 4.83301 84.5 14.5s33.5 24.167 33.5 43.5l2 2
c-10.667 13.333 -25 24.333 -43 33c-30.667 14.667 -73 28 -127 40c-4.66699 -1.33301 -9.83398 -2.33301 -15.501 -3s-11.834 -1 -18.501 -1c-7.33301 0 -13.666 0.833008 -18.999 2.5s-8 4.16699 -8 7.5c0 7.33301 9.66699 17.333 29 30
c27.333 12.667 53.666 30.334 78.999 53.001c21.333 19.333 32 35.666 32 48.999l-4 16c-4.66699 3.33301 -10.167 5.33301 -16.5 6s-14.833 1 -25.5 1c-29.333 0 -75.666 -8.5 -138.999 -25.5s-98.333 -25.5 -105 -25.5c-2.66699 0 -4.5 0.333008 -5.5 1
s-1.83301 1.33398 -2.5 2.00098l-2 4c0 8.66699 7.5 20.834 22.5 36.501s26.167 23.5 33.5 23.5z" />
    <glyph glyph-name="ccedilla" unicode="&#x437;" horiz-adv-x="557" 
d="M100 304c65.333 6 119.335 9.00098 162.002 9.00098c46.667 0 82.667 -2.5 108 -7.5s41 -10.833 47 -17.5c2 -1.33301 4.5 -5.33301 7.5 -12s4.5 -12.667 4.5 -18c0 -8 -2.66699 -16.333 -8 -25s-14.333 -16.334 -27 -23.001c-40 -22.667 -79.667 -44 -119 -64
c63.333 0 113.5 -5 150.5 -15s60.5 -21.667 70.5 -35c9.33301 -9.33301 16.833 -18.333 22.5 -27s8.5 -16.334 8.5 -23.001c0 -10.667 -9.33301 -21.5 -28 -32.5s-48.334 -21.833 -89.001 -32.5c-64 -12 -130.667 -18 -200 -18c-52 0 -95.667 4.66699 -131 14
s-59 24.666 -71 45.999c0 24.667 1.5 43.667 4.5 57s9.83301 20 20.5 20c6.66699 0 15.5 -4 26.5 -12s23.833 -20.667 38.5 -38c22 -16 54.167 -29.333 96.5 -40s82.5 -16 120.5 -16c34 0 62.167 4.83301 84.5 14.5s33.5 24.167 33.5 43.5l2 2
c-10.667 13.333 -25 24.333 -43 33c-30.667 14.667 -73 28 -127 40c-4.66699 -1.33301 -9.83398 -2.33301 -15.501 -3s-11.834 -1 -18.501 -1c-7.33301 0 -13.666 0.833008 -18.999 2.5s-8 4.16699 -8 7.5c0 7.33301 9.66699 17.333 29 30
c27.333 12.667 53.666 30.334 78.999 53.001c21.333 19.333 32 35.666 32 48.999l-4 16c-4.66699 3.33301 -10.167 5.33301 -16.5 6s-14.833 1 -25.5 1c-29.333 0 -75.666 -8.5 -138.999 -25.5s-98.333 -25.5 -105 -25.5c-2.66699 0 -4.5 0.333008 -5.5 1
s-1.83301 1.33398 -2.5 2.00098l-2 4c0 8.66699 7.5 20.834 22.5 36.501s26.167 23.5 33.5 23.5z" />
    <glyph glyph-name="egrave" unicode="&#xe8;" horiz-adv-x="441" 
d="M6 171c0.666992 4.66699 3.33496 28.335 8.00195 71.002c1.33301 12.667 3.66602 30.667 6.99902 54c2.66699 2.66699 6.66699 4 12 4c8.66699 0 19.667 -4.33301 33 -13s21.333 -16 24 -22c-6.66699 -19.333 -13.334 -42 -20.001 -68c-9.33301 -38 -14 -68.333 -14 -91
c0 -16 2.16699 -29.167 6.5 -39.5s11.166 -16.5 20.499 -18.5c7.33301 -2.66699 13 -4 17 -4c34 0 71 24.333 111 73c37.333 44.667 62 89 74 133c2 7.33301 8 13 18 17s21.667 6 35 6l-1 -33c0 -50.667 5.83301 -99.167 17.5 -145.5s21.834 -69.5 30.501 -69.5
c6.66699 -0.666992 12 -3 16 -7c1.33301 -1.33301 3 -3.33301 5 -6c0 -4.66699 -6.66699 -10.667 -20 -18s-31.666 -15 -54.999 -23c-6.66699 9.33301 -14.334 34.666 -23.001 75.999c-16.667 82.667 -27 124 -31 124c-20.667 -38.667 -50.667 -75.667 -90 -111
c-46 -41.333 -86 -62 -120 -62c-10.667 0 -20.5 2.16699 -29.5 6.5s-17.167 11.166 -24.5 20.499c-8.66699 14.667 -13 35.667 -13 63c0 10.667 1 26 3 46s3 32.333 3 37z" />
    <glyph glyph-name="egrave" unicode="&#x438;" horiz-adv-x="441" 
d="M6 171c0.666992 4.66699 3.33496 28.335 8.00195 71.002c1.33301 12.667 3.66602 30.667 6.99902 54c2.66699 2.66699 6.66699 4 12 4c8.66699 0 19.667 -4.33301 33 -13s21.333 -16 24 -22c-6.66699 -19.333 -13.334 -42 -20.001 -68c-9.33301 -38 -14 -68.333 -14 -91
c0 -16 2.16699 -29.167 6.5 -39.5s11.166 -16.5 20.499 -18.5c7.33301 -2.66699 13 -4 17 -4c34 0 71 24.333 111 73c37.333 44.667 62 89 74 133c2 7.33301 8 13 18 17s21.667 6 35 6l-1 -33c0 -50.667 5.83301 -99.167 17.5 -145.5s21.834 -69.5 30.501 -69.5
c6.66699 -0.666992 12 -3 16 -7c1.33301 -1.33301 3 -3.33301 5 -6c0 -4.66699 -6.66699 -10.667 -20 -18s-31.666 -15 -54.999 -23c-6.66699 9.33301 -14.334 34.666 -23.001 75.999c-16.667 82.667 -27 124 -31 124c-20.667 -38.667 -50.667 -75.667 -90 -111
c-46 -41.333 -86 -62 -120 -62c-10.667 0 -20.5 2.16699 -29.5 6.5s-17.167 11.166 -24.5 20.499c-8.66699 14.667 -13 35.667 -13 63c0 10.667 1 26 3 46s3 32.333 3 37z" />
    <glyph glyph-name="eacute" unicode="&#xe9;" horiz-adv-x="441" 
d="M6 171c0.666992 4.66699 3.33496 28.335 8.00195 71.002c1.33301 12.667 3.66602 30.667 6.99902 54c2.66699 2.66699 6.66699 4 12 4c8.66699 0 19.667 -4.33301 33 -13s21.333 -16 24 -22c-6.66699 -19.333 -13.334 -42 -20.001 -68c-9.33301 -38 -14 -68.333 -14 -91
c0 -16 2.16699 -29.167 6.5 -39.5s11.166 -16.5 20.499 -18.5c7.33301 -2.66699 13 -4 17 -4c34 0 71 24.333 111 73c37.333 44.667 62 89 74 133c2 7.33301 8 13 18 17s21.667 6 35 6l-1 -33c0 -50.667 5.83301 -99.167 17.5 -145.5s21.834 -69.5 30.501 -69.5
c6.66699 -0.666992 12 -3 16 -7c1.33301 -1.33301 3 -3.33301 5 -6c0 -4.66699 -6.66699 -10.667 -20 -18s-31.666 -15 -54.999 -23c-6.66699 9.33301 -14.334 34.666 -23.001 75.999c-16.667 82.667 -27 124 -31 124c-20.667 -38.667 -50.667 -75.667 -90 -111
c-46 -41.333 -86 -62 -120 -62c-10.667 0 -20.5 2.16699 -29.5 6.5s-17.167 11.166 -24.5 20.499c-8.66699 14.667 -13 35.667 -13 63c0 10.667 1 26 3 46s3 32.333 3 37zM288.001 408.001c-26.667 -5.33301 -59.834 -9.66602 -99.501 -12.999s-73.167 -6 -100.5 -8l-9 -2
c-24 0 -44 10.667 -60 32c-12.667 16.667 -19 32 -19 46l2 6c2.66699 2.66699 6 4 10 4c31.333 -9.33301 67.833 -18 109.5 -26s85.167 -12 130.5 -12l36 2l45 3c3.33301 0 5.5 -0.333008 6.5 -1s1.83301 -1.33398 2.5 -2.00098c0 -6.66699 -6.66699 -13.167 -20 -19.5
s-24.666 -9.5 -33.999 -9.5z" />
    <glyph glyph-name="eacute" unicode="&#x439;" horiz-adv-x="441" 
d="M6 171c0.666992 4.66699 3.33496 28.335 8.00195 71.002c1.33301 12.667 3.66602 30.667 6.99902 54c2.66699 2.66699 6.66699 4 12 4c8.66699 0 19.667 -4.33301 33 -13s21.333 -16 24 -22c-6.66699 -19.333 -13.334 -42 -20.001 -68c-9.33301 -38 -14 -68.333 -14 -91
c0 -16 2.16699 -29.167 6.5 -39.5s11.166 -16.5 20.499 -18.5c7.33301 -2.66699 13 -4 17 -4c34 0 71 24.333 111 73c37.333 44.667 62 89 74 133c2 7.33301 8 13 18 17s21.667 6 35 6l-1 -33c0 -50.667 5.83301 -99.167 17.5 -145.5s21.834 -69.5 30.501 -69.5
c6.66699 -0.666992 12 -3 16 -7c1.33301 -1.33301 3 -3.33301 5 -6c0 -4.66699 -6.66699 -10.667 -20 -18s-31.666 -15 -54.999 -23c-6.66699 9.33301 -14.334 34.666 -23.001 75.999c-16.667 82.667 -27 124 -31 124c-20.667 -38.667 -50.667 -75.667 -90 -111
c-46 -41.333 -86 -62 -120 -62c-10.667 0 -20.5 2.16699 -29.5 6.5s-17.167 11.166 -24.5 20.499c-8.66699 14.667 -13 35.667 -13 63c0 10.667 1 26 3 46s3 32.333 3 37zM288.001 408.001c-26.667 -5.33301 -59.834 -9.66602 -99.501 -12.999s-73.167 -6 -100.5 -8l-9 -2
c-24 0 -44 10.667 -60 32c-12.667 16.667 -19 32 -19 46l2 6c2.66699 2.66699 6 4 10 4c31.333 -9.33301 67.833 -18 109.5 -26s85.167 -12 130.5 -12l36 2l45 3c3.33301 0 5.5 -0.333008 6.5 -1s1.83301 -1.33398 2.5 -2.00098c0 -6.66699 -6.66699 -13.167 -20 -19.5
s-24.666 -9.5 -33.999 -9.5z" />
    <glyph glyph-name="ecircumflex" unicode="&#xea;" horiz-adv-x="461" 
d="M63 110c48.667 14.667 97.334 43.6641 146.001 86.9971l141 145c4.66699 0 9.33398 -6 14.001 -18s7 -23.333 7 -34c0 -9.33301 -2 -15 -6 -17c-10.667 -18 -30.334 -37.667 -59.001 -59c-23.333 -16.667 -54.666 -36 -93.999 -58
c9.33301 -13.333 29.333 -32.666 60 -57.999c21.333 -18 34.666 -29.667 39.999 -35c14.667 -14.667 31.167 -27.5 49.5 -38.5s35.5 -16.5 51.5 -16.5l14 2v-6c0 -10.667 -6.33301 -23 -19 -37s-24.334 -21 -35.001 -21l-8 2c-19.333 12.667 -56.333 39.667 -111 81
c-64 48.667 -99.333 78 -106 88l-85 -38c0 -11.333 1.33301 -27.666 4 -48.999s4 -35.666 4 -42.999c-2.66699 -1.33301 -7.66699 -2 -15 -2c-9.33301 0 -17.5 2 -24.5 6s-11.833 10.333 -14.5 19l4 294c0 84.667 -1.5 151.167 -4.5 199.5l-8.5 131.5l2 9l-2 2
c4 2.66699 7 4 9 4c12 0 26.667 -5.33301 44 -16s26 -22.667 26 -36v-8z" />
    </font>
</defs>
</svg>
